%TF.GenerationSoftware,KiCad,Pcbnew,8.0.1*%
%TF.CreationDate,2024-10-08T14:05:53+09:00*%
%TF.ProjectId,CoolingBoxWireOrganizer,436f6f6c-696e-4674-926f-78576972654f,rev?*%
%TF.SameCoordinates,Original*%
%TF.FileFunction,Legend,Top*%
%TF.FilePolarity,Positive*%
%FSLAX46Y46*%
G04 Gerber Fmt 4.6, Leading zero omitted, Abs format (unit mm)*
G04 Created by KiCad (PCBNEW 8.0.1) date 2024-10-08 14:05:53*
%MOMM*%
%LPD*%
G01*
G04 APERTURE LIST*
%ADD10C,0.250000*%
%ADD11C,0.120000*%
%ADD12C,0.127000*%
%ADD13C,0.200000*%
G04 APERTURE END LIST*
D10*
X194049711Y-119483428D02*
X194383044Y-120983428D01*
X194383044Y-120983428D02*
X194716377Y-119483428D01*
X195192568Y-120983428D02*
X195097330Y-120912000D01*
X195097330Y-120912000D02*
X195049711Y-120840571D01*
X195049711Y-120840571D02*
X195002092Y-120697714D01*
X195002092Y-120697714D02*
X195002092Y-120269142D01*
X195002092Y-120269142D02*
X195049711Y-120126285D01*
X195049711Y-120126285D02*
X195097330Y-120054857D01*
X195097330Y-120054857D02*
X195192568Y-119983428D01*
X195192568Y-119983428D02*
X195335425Y-119983428D01*
X195335425Y-119983428D02*
X195430663Y-120054857D01*
X195430663Y-120054857D02*
X195478282Y-120126285D01*
X195478282Y-120126285D02*
X195525901Y-120269142D01*
X195525901Y-120269142D02*
X195525901Y-120697714D01*
X195525901Y-120697714D02*
X195478282Y-120840571D01*
X195478282Y-120840571D02*
X195430663Y-120912000D01*
X195430663Y-120912000D02*
X195335425Y-120983428D01*
X195335425Y-120983428D02*
X195192568Y-120983428D01*
X196097330Y-120983428D02*
X196002092Y-120912000D01*
X196002092Y-120912000D02*
X195954473Y-120769142D01*
X195954473Y-120769142D02*
X195954473Y-119483428D01*
X196335426Y-119983428D02*
X196716378Y-119983428D01*
X196478283Y-119483428D02*
X196478283Y-120769142D01*
X196478283Y-120769142D02*
X196525902Y-120912000D01*
X196525902Y-120912000D02*
X196621140Y-120983428D01*
X196621140Y-120983428D02*
X196716378Y-120983428D01*
X197478283Y-120983428D02*
X197478283Y-120197714D01*
X197478283Y-120197714D02*
X197430664Y-120054857D01*
X197430664Y-120054857D02*
X197335426Y-119983428D01*
X197335426Y-119983428D02*
X197144950Y-119983428D01*
X197144950Y-119983428D02*
X197049712Y-120054857D01*
X197478283Y-120912000D02*
X197383045Y-120983428D01*
X197383045Y-120983428D02*
X197144950Y-120983428D01*
X197144950Y-120983428D02*
X197049712Y-120912000D01*
X197049712Y-120912000D02*
X197002093Y-120769142D01*
X197002093Y-120769142D02*
X197002093Y-120626285D01*
X197002093Y-120626285D02*
X197049712Y-120483428D01*
X197049712Y-120483428D02*
X197144950Y-120412000D01*
X197144950Y-120412000D02*
X197383045Y-120412000D01*
X197383045Y-120412000D02*
X197478283Y-120340571D01*
X198383045Y-119983428D02*
X198383045Y-121197714D01*
X198383045Y-121197714D02*
X198335426Y-121340571D01*
X198335426Y-121340571D02*
X198287807Y-121412000D01*
X198287807Y-121412000D02*
X198192569Y-121483428D01*
X198192569Y-121483428D02*
X198049712Y-121483428D01*
X198049712Y-121483428D02*
X197954474Y-121412000D01*
X198383045Y-120912000D02*
X198287807Y-120983428D01*
X198287807Y-120983428D02*
X198097331Y-120983428D01*
X198097331Y-120983428D02*
X198002093Y-120912000D01*
X198002093Y-120912000D02*
X197954474Y-120840571D01*
X197954474Y-120840571D02*
X197906855Y-120697714D01*
X197906855Y-120697714D02*
X197906855Y-120269142D01*
X197906855Y-120269142D02*
X197954474Y-120126285D01*
X197954474Y-120126285D02*
X198002093Y-120054857D01*
X198002093Y-120054857D02*
X198097331Y-119983428D01*
X198097331Y-119983428D02*
X198287807Y-119983428D01*
X198287807Y-119983428D02*
X198383045Y-120054857D01*
X199240188Y-120912000D02*
X199144950Y-120983428D01*
X199144950Y-120983428D02*
X198954474Y-120983428D01*
X198954474Y-120983428D02*
X198859236Y-120912000D01*
X198859236Y-120912000D02*
X198811617Y-120769142D01*
X198811617Y-120769142D02*
X198811617Y-120197714D01*
X198811617Y-120197714D02*
X198859236Y-120054857D01*
X198859236Y-120054857D02*
X198954474Y-119983428D01*
X198954474Y-119983428D02*
X199144950Y-119983428D01*
X199144950Y-119983428D02*
X199240188Y-120054857D01*
X199240188Y-120054857D02*
X199287807Y-120197714D01*
X199287807Y-120197714D02*
X199287807Y-120340571D01*
X199287807Y-120340571D02*
X198811617Y-120483428D01*
X200478284Y-120983428D02*
X200478284Y-119483428D01*
X200478284Y-119483428D02*
X200716379Y-119483428D01*
X200716379Y-119483428D02*
X200859236Y-119554857D01*
X200859236Y-119554857D02*
X200954474Y-119697714D01*
X200954474Y-119697714D02*
X201002093Y-119840571D01*
X201002093Y-119840571D02*
X201049712Y-120126285D01*
X201049712Y-120126285D02*
X201049712Y-120340571D01*
X201049712Y-120340571D02*
X201002093Y-120626285D01*
X201002093Y-120626285D02*
X200954474Y-120769142D01*
X200954474Y-120769142D02*
X200859236Y-120912000D01*
X200859236Y-120912000D02*
X200716379Y-120983428D01*
X200716379Y-120983428D02*
X200478284Y-120983428D01*
X201478284Y-120983428D02*
X201478284Y-119983428D01*
X201478284Y-119483428D02*
X201430665Y-119554857D01*
X201430665Y-119554857D02*
X201478284Y-119626285D01*
X201478284Y-119626285D02*
X201525903Y-119554857D01*
X201525903Y-119554857D02*
X201478284Y-119483428D01*
X201478284Y-119483428D02*
X201478284Y-119626285D01*
X201859236Y-119983428D02*
X202097331Y-120983428D01*
X202097331Y-120983428D02*
X202335426Y-119983428D01*
X202716379Y-120983428D02*
X202716379Y-119983428D01*
X202716379Y-119483428D02*
X202668760Y-119554857D01*
X202668760Y-119554857D02*
X202716379Y-119626285D01*
X202716379Y-119626285D02*
X202763998Y-119554857D01*
X202763998Y-119554857D02*
X202716379Y-119483428D01*
X202716379Y-119483428D02*
X202716379Y-119626285D01*
X203621140Y-120983428D02*
X203621140Y-119483428D01*
X203621140Y-120912000D02*
X203525902Y-120983428D01*
X203525902Y-120983428D02*
X203335426Y-120983428D01*
X203335426Y-120983428D02*
X203240188Y-120912000D01*
X203240188Y-120912000D02*
X203192569Y-120840571D01*
X203192569Y-120840571D02*
X203144950Y-120697714D01*
X203144950Y-120697714D02*
X203144950Y-120269142D01*
X203144950Y-120269142D02*
X203192569Y-120126285D01*
X203192569Y-120126285D02*
X203240188Y-120054857D01*
X203240188Y-120054857D02*
X203335426Y-119983428D01*
X203335426Y-119983428D02*
X203525902Y-119983428D01*
X203525902Y-119983428D02*
X203621140Y-120054857D01*
X204478283Y-120912000D02*
X204383045Y-120983428D01*
X204383045Y-120983428D02*
X204192569Y-120983428D01*
X204192569Y-120983428D02*
X204097331Y-120912000D01*
X204097331Y-120912000D02*
X204049712Y-120769142D01*
X204049712Y-120769142D02*
X204049712Y-120197714D01*
X204049712Y-120197714D02*
X204097331Y-120054857D01*
X204097331Y-120054857D02*
X204192569Y-119983428D01*
X204192569Y-119983428D02*
X204383045Y-119983428D01*
X204383045Y-119983428D02*
X204478283Y-120054857D01*
X204478283Y-120054857D02*
X204525902Y-120197714D01*
X204525902Y-120197714D02*
X204525902Y-120340571D01*
X204525902Y-120340571D02*
X204049712Y-120483428D01*
X204954474Y-120983428D02*
X204954474Y-119983428D01*
X204954474Y-120269142D02*
X205002093Y-120126285D01*
X205002093Y-120126285D02*
X205049712Y-120054857D01*
X205049712Y-120054857D02*
X205144950Y-119983428D01*
X205144950Y-119983428D02*
X205240188Y-119983428D01*
X147398758Y-107003428D02*
X146922568Y-107003428D01*
X146922568Y-107003428D02*
X146922568Y-105503428D01*
X147589235Y-105503428D02*
X147922568Y-107003428D01*
X147922568Y-107003428D02*
X148255901Y-105503428D01*
X191722568Y-146993428D02*
X191722568Y-145493428D01*
X191722568Y-145493428D02*
X192293996Y-146993428D01*
X192293996Y-146993428D02*
X192293996Y-145493428D01*
X192627330Y-145493428D02*
X193198758Y-145493428D01*
X192913044Y-146993428D02*
X192913044Y-145493428D01*
X194103520Y-146850571D02*
X194055901Y-146922000D01*
X194055901Y-146922000D02*
X193913044Y-146993428D01*
X193913044Y-146993428D02*
X193817806Y-146993428D01*
X193817806Y-146993428D02*
X193674949Y-146922000D01*
X193674949Y-146922000D02*
X193579711Y-146779142D01*
X193579711Y-146779142D02*
X193532092Y-146636285D01*
X193532092Y-146636285D02*
X193484473Y-146350571D01*
X193484473Y-146350571D02*
X193484473Y-146136285D01*
X193484473Y-146136285D02*
X193532092Y-145850571D01*
X193532092Y-145850571D02*
X193579711Y-145707714D01*
X193579711Y-145707714D02*
X193674949Y-145564857D01*
X193674949Y-145564857D02*
X193817806Y-145493428D01*
X193817806Y-145493428D02*
X193913044Y-145493428D01*
X193913044Y-145493428D02*
X194055901Y-145564857D01*
X194055901Y-145564857D02*
X194103520Y-145636285D01*
X135048758Y-148253428D02*
X134572568Y-148253428D01*
X134572568Y-148253428D02*
X134572568Y-146753428D01*
X135524949Y-148253428D02*
X135429711Y-148182000D01*
X135429711Y-148182000D02*
X135382092Y-148110571D01*
X135382092Y-148110571D02*
X135334473Y-147967714D01*
X135334473Y-147967714D02*
X135334473Y-147539142D01*
X135334473Y-147539142D02*
X135382092Y-147396285D01*
X135382092Y-147396285D02*
X135429711Y-147324857D01*
X135429711Y-147324857D02*
X135524949Y-147253428D01*
X135524949Y-147253428D02*
X135667806Y-147253428D01*
X135667806Y-147253428D02*
X135763044Y-147324857D01*
X135763044Y-147324857D02*
X135810663Y-147396285D01*
X135810663Y-147396285D02*
X135858282Y-147539142D01*
X135858282Y-147539142D02*
X135858282Y-147967714D01*
X135858282Y-147967714D02*
X135810663Y-148110571D01*
X135810663Y-148110571D02*
X135763044Y-148182000D01*
X135763044Y-148182000D02*
X135667806Y-148253428D01*
X135667806Y-148253428D02*
X135524949Y-148253428D01*
X136715425Y-148182000D02*
X136620187Y-148253428D01*
X136620187Y-148253428D02*
X136429711Y-148253428D01*
X136429711Y-148253428D02*
X136334473Y-148182000D01*
X136334473Y-148182000D02*
X136286854Y-148110571D01*
X136286854Y-148110571D02*
X136239235Y-147967714D01*
X136239235Y-147967714D02*
X136239235Y-147539142D01*
X136239235Y-147539142D02*
X136286854Y-147396285D01*
X136286854Y-147396285D02*
X136334473Y-147324857D01*
X136334473Y-147324857D02*
X136429711Y-147253428D01*
X136429711Y-147253428D02*
X136620187Y-147253428D01*
X136620187Y-147253428D02*
X136715425Y-147324857D01*
X137143997Y-148253428D02*
X137143997Y-146753428D01*
X137239235Y-147682000D02*
X137524949Y-148253428D01*
X137524949Y-147253428D02*
X137143997Y-147824857D01*
X199773996Y-145385655D02*
X199726377Y-145457084D01*
X199726377Y-145457084D02*
X199583520Y-145528512D01*
X199583520Y-145528512D02*
X199488282Y-145528512D01*
X199488282Y-145528512D02*
X199345425Y-145457084D01*
X199345425Y-145457084D02*
X199250187Y-145314226D01*
X199250187Y-145314226D02*
X199202568Y-145171369D01*
X199202568Y-145171369D02*
X199154949Y-144885655D01*
X199154949Y-144885655D02*
X199154949Y-144671369D01*
X199154949Y-144671369D02*
X199202568Y-144385655D01*
X199202568Y-144385655D02*
X199250187Y-144242798D01*
X199250187Y-144242798D02*
X199345425Y-144099941D01*
X199345425Y-144099941D02*
X199488282Y-144028512D01*
X199488282Y-144028512D02*
X199583520Y-144028512D01*
X199583520Y-144028512D02*
X199726377Y-144099941D01*
X199726377Y-144099941D02*
X199773996Y-144171369D01*
X200202568Y-145528512D02*
X200202568Y-144028512D01*
X200631139Y-145528512D02*
X200631139Y-144742798D01*
X200631139Y-144742798D02*
X200583520Y-144599941D01*
X200583520Y-144599941D02*
X200488282Y-144528512D01*
X200488282Y-144528512D02*
X200345425Y-144528512D01*
X200345425Y-144528512D02*
X200250187Y-144599941D01*
X200250187Y-144599941D02*
X200202568Y-144671369D01*
X201107330Y-145528512D02*
X201107330Y-144528512D01*
X201107330Y-144028512D02*
X201059711Y-144099941D01*
X201059711Y-144099941D02*
X201107330Y-144171369D01*
X201107330Y-144171369D02*
X201154949Y-144099941D01*
X201154949Y-144099941D02*
X201107330Y-144028512D01*
X201107330Y-144028512D02*
X201107330Y-144171369D01*
X201726377Y-145528512D02*
X201631139Y-145457084D01*
X201631139Y-145457084D02*
X201583520Y-145314226D01*
X201583520Y-145314226D02*
X201583520Y-144028512D01*
X202250187Y-145528512D02*
X202154949Y-145457084D01*
X202154949Y-145457084D02*
X202107330Y-145314226D01*
X202107330Y-145314226D02*
X202107330Y-144028512D01*
X203012092Y-145457084D02*
X202916854Y-145528512D01*
X202916854Y-145528512D02*
X202726378Y-145528512D01*
X202726378Y-145528512D02*
X202631140Y-145457084D01*
X202631140Y-145457084D02*
X202583521Y-145314226D01*
X202583521Y-145314226D02*
X202583521Y-144742798D01*
X202583521Y-144742798D02*
X202631140Y-144599941D01*
X202631140Y-144599941D02*
X202726378Y-144528512D01*
X202726378Y-144528512D02*
X202916854Y-144528512D01*
X202916854Y-144528512D02*
X203012092Y-144599941D01*
X203012092Y-144599941D02*
X203059711Y-144742798D01*
X203059711Y-144742798D02*
X203059711Y-144885655D01*
X203059711Y-144885655D02*
X202583521Y-145028512D01*
X203488283Y-145528512D02*
X203488283Y-144528512D01*
X203488283Y-144814226D02*
X203535902Y-144671369D01*
X203535902Y-144671369D02*
X203583521Y-144599941D01*
X203583521Y-144599941D02*
X203678759Y-144528512D01*
X203678759Y-144528512D02*
X203773997Y-144528512D01*
X199154949Y-147514857D02*
X199631139Y-147514857D01*
X199059711Y-147943428D02*
X199393044Y-146443428D01*
X199393044Y-146443428D02*
X199726377Y-147943428D01*
X200202568Y-147943428D02*
X200107330Y-147872000D01*
X200107330Y-147872000D02*
X200059711Y-147729142D01*
X200059711Y-147729142D02*
X200059711Y-146443428D01*
X201012092Y-147943428D02*
X201012092Y-147157714D01*
X201012092Y-147157714D02*
X200964473Y-147014857D01*
X200964473Y-147014857D02*
X200869235Y-146943428D01*
X200869235Y-146943428D02*
X200678759Y-146943428D01*
X200678759Y-146943428D02*
X200583521Y-147014857D01*
X201012092Y-147872000D02*
X200916854Y-147943428D01*
X200916854Y-147943428D02*
X200678759Y-147943428D01*
X200678759Y-147943428D02*
X200583521Y-147872000D01*
X200583521Y-147872000D02*
X200535902Y-147729142D01*
X200535902Y-147729142D02*
X200535902Y-147586285D01*
X200535902Y-147586285D02*
X200583521Y-147443428D01*
X200583521Y-147443428D02*
X200678759Y-147372000D01*
X200678759Y-147372000D02*
X200916854Y-147372000D01*
X200916854Y-147372000D02*
X201012092Y-147300571D01*
X201488283Y-147943428D02*
X201488283Y-146943428D01*
X201488283Y-147229142D02*
X201535902Y-147086285D01*
X201535902Y-147086285D02*
X201583521Y-147014857D01*
X201583521Y-147014857D02*
X201678759Y-146943428D01*
X201678759Y-146943428D02*
X201773997Y-146943428D01*
X202107331Y-147943428D02*
X202107331Y-146943428D01*
X202107331Y-147086285D02*
X202154950Y-147014857D01*
X202154950Y-147014857D02*
X202250188Y-146943428D01*
X202250188Y-146943428D02*
X202393045Y-146943428D01*
X202393045Y-146943428D02*
X202488283Y-147014857D01*
X202488283Y-147014857D02*
X202535902Y-147157714D01*
X202535902Y-147157714D02*
X202535902Y-147943428D01*
X202535902Y-147157714D02*
X202583521Y-147014857D01*
X202583521Y-147014857D02*
X202678759Y-146943428D01*
X202678759Y-146943428D02*
X202821616Y-146943428D01*
X202821616Y-146943428D02*
X202916855Y-147014857D01*
X202916855Y-147014857D02*
X202964474Y-147157714D01*
X202964474Y-147157714D02*
X202964474Y-147943428D01*
X141752568Y-148723428D02*
X141752568Y-147223428D01*
X141752568Y-147223428D02*
X142133520Y-147223428D01*
X142133520Y-147223428D02*
X142228758Y-147294857D01*
X142228758Y-147294857D02*
X142276377Y-147366285D01*
X142276377Y-147366285D02*
X142323996Y-147509142D01*
X142323996Y-147509142D02*
X142323996Y-147723428D01*
X142323996Y-147723428D02*
X142276377Y-147866285D01*
X142276377Y-147866285D02*
X142228758Y-147937714D01*
X142228758Y-147937714D02*
X142133520Y-148009142D01*
X142133520Y-148009142D02*
X141752568Y-148009142D01*
X143133520Y-148652000D02*
X143038282Y-148723428D01*
X143038282Y-148723428D02*
X142847806Y-148723428D01*
X142847806Y-148723428D02*
X142752568Y-148652000D01*
X142752568Y-148652000D02*
X142704949Y-148509142D01*
X142704949Y-148509142D02*
X142704949Y-147937714D01*
X142704949Y-147937714D02*
X142752568Y-147794857D01*
X142752568Y-147794857D02*
X142847806Y-147723428D01*
X142847806Y-147723428D02*
X143038282Y-147723428D01*
X143038282Y-147723428D02*
X143133520Y-147794857D01*
X143133520Y-147794857D02*
X143181139Y-147937714D01*
X143181139Y-147937714D02*
X143181139Y-148080571D01*
X143181139Y-148080571D02*
X142704949Y-148223428D01*
X143752568Y-148723428D02*
X143657330Y-148652000D01*
X143657330Y-148652000D02*
X143609711Y-148509142D01*
X143609711Y-148509142D02*
X143609711Y-147223428D01*
X143990664Y-147723428D02*
X144371616Y-147723428D01*
X144133521Y-147223428D02*
X144133521Y-148509142D01*
X144133521Y-148509142D02*
X144181140Y-148652000D01*
X144181140Y-148652000D02*
X144276378Y-148723428D01*
X144276378Y-148723428D02*
X144371616Y-148723428D01*
X144704950Y-148723428D02*
X144704950Y-147723428D01*
X144704950Y-147223428D02*
X144657331Y-147294857D01*
X144657331Y-147294857D02*
X144704950Y-147366285D01*
X144704950Y-147366285D02*
X144752569Y-147294857D01*
X144752569Y-147294857D02*
X144704950Y-147223428D01*
X144704950Y-147223428D02*
X144704950Y-147366285D01*
X145562092Y-148652000D02*
X145466854Y-148723428D01*
X145466854Y-148723428D02*
X145276378Y-148723428D01*
X145276378Y-148723428D02*
X145181140Y-148652000D01*
X145181140Y-148652000D02*
X145133521Y-148509142D01*
X145133521Y-148509142D02*
X145133521Y-147937714D01*
X145133521Y-147937714D02*
X145181140Y-147794857D01*
X145181140Y-147794857D02*
X145276378Y-147723428D01*
X145276378Y-147723428D02*
X145466854Y-147723428D01*
X145466854Y-147723428D02*
X145562092Y-147794857D01*
X145562092Y-147794857D02*
X145609711Y-147937714D01*
X145609711Y-147937714D02*
X145609711Y-148080571D01*
X145609711Y-148080571D02*
X145133521Y-148223428D01*
X146038283Y-148723428D02*
X146038283Y-147723428D01*
X146038283Y-148009142D02*
X146085902Y-147866285D01*
X146085902Y-147866285D02*
X146133521Y-147794857D01*
X146133521Y-147794857D02*
X146228759Y-147723428D01*
X146228759Y-147723428D02*
X146323997Y-147723428D01*
X147419236Y-147723428D02*
X147419236Y-149223428D01*
X147419236Y-147794857D02*
X147514474Y-147723428D01*
X147514474Y-147723428D02*
X147704950Y-147723428D01*
X147704950Y-147723428D02*
X147800188Y-147794857D01*
X147800188Y-147794857D02*
X147847807Y-147866285D01*
X147847807Y-147866285D02*
X147895426Y-148009142D01*
X147895426Y-148009142D02*
X147895426Y-148437714D01*
X147895426Y-148437714D02*
X147847807Y-148580571D01*
X147847807Y-148580571D02*
X147800188Y-148652000D01*
X147800188Y-148652000D02*
X147704950Y-148723428D01*
X147704950Y-148723428D02*
X147514474Y-148723428D01*
X147514474Y-148723428D02*
X147419236Y-148652000D01*
X148466855Y-148723428D02*
X148371617Y-148652000D01*
X148371617Y-148652000D02*
X148323998Y-148580571D01*
X148323998Y-148580571D02*
X148276379Y-148437714D01*
X148276379Y-148437714D02*
X148276379Y-148009142D01*
X148276379Y-148009142D02*
X148323998Y-147866285D01*
X148323998Y-147866285D02*
X148371617Y-147794857D01*
X148371617Y-147794857D02*
X148466855Y-147723428D01*
X148466855Y-147723428D02*
X148609712Y-147723428D01*
X148609712Y-147723428D02*
X148704950Y-147794857D01*
X148704950Y-147794857D02*
X148752569Y-147866285D01*
X148752569Y-147866285D02*
X148800188Y-148009142D01*
X148800188Y-148009142D02*
X148800188Y-148437714D01*
X148800188Y-148437714D02*
X148752569Y-148580571D01*
X148752569Y-148580571D02*
X148704950Y-148652000D01*
X148704950Y-148652000D02*
X148609712Y-148723428D01*
X148609712Y-148723428D02*
X148466855Y-148723428D01*
X149371617Y-148723428D02*
X149276379Y-148652000D01*
X149276379Y-148652000D02*
X149228760Y-148509142D01*
X149228760Y-148509142D02*
X149228760Y-147223428D01*
X150181141Y-148723428D02*
X150181141Y-147937714D01*
X150181141Y-147937714D02*
X150133522Y-147794857D01*
X150133522Y-147794857D02*
X150038284Y-147723428D01*
X150038284Y-147723428D02*
X149847808Y-147723428D01*
X149847808Y-147723428D02*
X149752570Y-147794857D01*
X150181141Y-148652000D02*
X150085903Y-148723428D01*
X150085903Y-148723428D02*
X149847808Y-148723428D01*
X149847808Y-148723428D02*
X149752570Y-148652000D01*
X149752570Y-148652000D02*
X149704951Y-148509142D01*
X149704951Y-148509142D02*
X149704951Y-148366285D01*
X149704951Y-148366285D02*
X149752570Y-148223428D01*
X149752570Y-148223428D02*
X149847808Y-148152000D01*
X149847808Y-148152000D02*
X150085903Y-148152000D01*
X150085903Y-148152000D02*
X150181141Y-148080571D01*
X150657332Y-148723428D02*
X150657332Y-147723428D01*
X150657332Y-148009142D02*
X150704951Y-147866285D01*
X150704951Y-147866285D02*
X150752570Y-147794857D01*
X150752570Y-147794857D02*
X150847808Y-147723428D01*
X150847808Y-147723428D02*
X150943046Y-147723428D01*
X151276380Y-148723428D02*
X151276380Y-147723428D01*
X151276380Y-147223428D02*
X151228761Y-147294857D01*
X151228761Y-147294857D02*
X151276380Y-147366285D01*
X151276380Y-147366285D02*
X151323999Y-147294857D01*
X151323999Y-147294857D02*
X151276380Y-147223428D01*
X151276380Y-147223428D02*
X151276380Y-147366285D01*
X151609713Y-147723428D02*
X151990665Y-147723428D01*
X151752570Y-147223428D02*
X151752570Y-148509142D01*
X151752570Y-148509142D02*
X151800189Y-148652000D01*
X151800189Y-148652000D02*
X151895427Y-148723428D01*
X151895427Y-148723428D02*
X151990665Y-148723428D01*
X152228761Y-147723428D02*
X152466856Y-148723428D01*
X152704951Y-147723428D02*
X152466856Y-148723428D01*
X152466856Y-148723428D02*
X152371618Y-149080571D01*
X152371618Y-149080571D02*
X152323999Y-149152000D01*
X152323999Y-149152000D02*
X152228761Y-149223428D01*
X153133523Y-148652000D02*
X153133523Y-148723428D01*
X153133523Y-148723428D02*
X153085904Y-148866285D01*
X153085904Y-148866285D02*
X153038285Y-148937714D01*
X154276380Y-148294857D02*
X154752570Y-148294857D01*
X154181142Y-148723428D02*
X154514475Y-147223428D01*
X154514475Y-147223428D02*
X154847808Y-148723428D01*
X155752570Y-148580571D02*
X155704951Y-148652000D01*
X155704951Y-148652000D02*
X155562094Y-148723428D01*
X155562094Y-148723428D02*
X155466856Y-148723428D01*
X155466856Y-148723428D02*
X155323999Y-148652000D01*
X155323999Y-148652000D02*
X155228761Y-148509142D01*
X155228761Y-148509142D02*
X155181142Y-148366285D01*
X155181142Y-148366285D02*
X155133523Y-148080571D01*
X155133523Y-148080571D02*
X155133523Y-147866285D01*
X155133523Y-147866285D02*
X155181142Y-147580571D01*
X155181142Y-147580571D02*
X155228761Y-147437714D01*
X155228761Y-147437714D02*
X155323999Y-147294857D01*
X155323999Y-147294857D02*
X155466856Y-147223428D01*
X155466856Y-147223428D02*
X155562094Y-147223428D01*
X155562094Y-147223428D02*
X155704951Y-147294857D01*
X155704951Y-147294857D02*
X155752570Y-147366285D01*
X156704951Y-148723428D02*
X156133523Y-148723428D01*
X156419237Y-148723428D02*
X156419237Y-147223428D01*
X156419237Y-147223428D02*
X156323999Y-147437714D01*
X156323999Y-147437714D02*
X156228761Y-147580571D01*
X156228761Y-147580571D02*
X156133523Y-147652000D01*
X157323999Y-147223428D02*
X157419237Y-147223428D01*
X157419237Y-147223428D02*
X157514475Y-147294857D01*
X157514475Y-147294857D02*
X157562094Y-147366285D01*
X157562094Y-147366285D02*
X157609713Y-147509142D01*
X157609713Y-147509142D02*
X157657332Y-147794857D01*
X157657332Y-147794857D02*
X157657332Y-148152000D01*
X157657332Y-148152000D02*
X157609713Y-148437714D01*
X157609713Y-148437714D02*
X157562094Y-148580571D01*
X157562094Y-148580571D02*
X157514475Y-148652000D01*
X157514475Y-148652000D02*
X157419237Y-148723428D01*
X157419237Y-148723428D02*
X157323999Y-148723428D01*
X157323999Y-148723428D02*
X157228761Y-148652000D01*
X157228761Y-148652000D02*
X157181142Y-148580571D01*
X157181142Y-148580571D02*
X157133523Y-148437714D01*
X157133523Y-148437714D02*
X157085904Y-148152000D01*
X157085904Y-148152000D02*
X157085904Y-147794857D01*
X157085904Y-147794857D02*
X157133523Y-147509142D01*
X157133523Y-147509142D02*
X157181142Y-147366285D01*
X157181142Y-147366285D02*
X157228761Y-147294857D01*
X157228761Y-147294857D02*
X157323999Y-147223428D01*
X158276380Y-147223428D02*
X158371618Y-147223428D01*
X158371618Y-147223428D02*
X158466856Y-147294857D01*
X158466856Y-147294857D02*
X158514475Y-147366285D01*
X158514475Y-147366285D02*
X158562094Y-147509142D01*
X158562094Y-147509142D02*
X158609713Y-147794857D01*
X158609713Y-147794857D02*
X158609713Y-148152000D01*
X158609713Y-148152000D02*
X158562094Y-148437714D01*
X158562094Y-148437714D02*
X158514475Y-148580571D01*
X158514475Y-148580571D02*
X158466856Y-148652000D01*
X158466856Y-148652000D02*
X158371618Y-148723428D01*
X158371618Y-148723428D02*
X158276380Y-148723428D01*
X158276380Y-148723428D02*
X158181142Y-148652000D01*
X158181142Y-148652000D02*
X158133523Y-148580571D01*
X158133523Y-148580571D02*
X158085904Y-148437714D01*
X158085904Y-148437714D02*
X158038285Y-148152000D01*
X158038285Y-148152000D02*
X158038285Y-147794857D01*
X158038285Y-147794857D02*
X158085904Y-147509142D01*
X158085904Y-147509142D02*
X158133523Y-147366285D01*
X158133523Y-147366285D02*
X158181142Y-147294857D01*
X158181142Y-147294857D02*
X158276380Y-147223428D01*
X158895428Y-147223428D02*
X159228761Y-148723428D01*
X159228761Y-148723428D02*
X159562094Y-147223428D01*
X211503428Y-147852669D02*
X213003428Y-147614574D01*
X213003428Y-147614574D02*
X211932000Y-147424098D01*
X211932000Y-147424098D02*
X213003428Y-147233622D01*
X213003428Y-147233622D02*
X211503428Y-146995527D01*
X213003428Y-146614574D02*
X212003428Y-146614574D01*
X211503428Y-146614574D02*
X211574857Y-146662193D01*
X211574857Y-146662193D02*
X211646285Y-146614574D01*
X211646285Y-146614574D02*
X211574857Y-146566955D01*
X211574857Y-146566955D02*
X211503428Y-146614574D01*
X211503428Y-146614574D02*
X211646285Y-146614574D01*
X213003428Y-146138384D02*
X212003428Y-146138384D01*
X212289142Y-146138384D02*
X212146285Y-146090765D01*
X212146285Y-146090765D02*
X212074857Y-146043146D01*
X212074857Y-146043146D02*
X212003428Y-145947908D01*
X212003428Y-145947908D02*
X212003428Y-145852670D01*
X212932000Y-145138384D02*
X213003428Y-145233622D01*
X213003428Y-145233622D02*
X213003428Y-145424098D01*
X213003428Y-145424098D02*
X212932000Y-145519336D01*
X212932000Y-145519336D02*
X212789142Y-145566955D01*
X212789142Y-145566955D02*
X212217714Y-145566955D01*
X212217714Y-145566955D02*
X212074857Y-145519336D01*
X212074857Y-145519336D02*
X212003428Y-145424098D01*
X212003428Y-145424098D02*
X212003428Y-145233622D01*
X212003428Y-145233622D02*
X212074857Y-145138384D01*
X212074857Y-145138384D02*
X212217714Y-145090765D01*
X212217714Y-145090765D02*
X212360571Y-145090765D01*
X212360571Y-145090765D02*
X212503428Y-145566955D01*
X211503428Y-143709812D02*
X211503428Y-143519336D01*
X211503428Y-143519336D02*
X211574857Y-143424098D01*
X211574857Y-143424098D02*
X211717714Y-143328860D01*
X211717714Y-143328860D02*
X212003428Y-143281241D01*
X212003428Y-143281241D02*
X212503428Y-143281241D01*
X212503428Y-143281241D02*
X212789142Y-143328860D01*
X212789142Y-143328860D02*
X212932000Y-143424098D01*
X212932000Y-143424098D02*
X213003428Y-143519336D01*
X213003428Y-143519336D02*
X213003428Y-143709812D01*
X213003428Y-143709812D02*
X212932000Y-143805050D01*
X212932000Y-143805050D02*
X212789142Y-143900288D01*
X212789142Y-143900288D02*
X212503428Y-143947907D01*
X212503428Y-143947907D02*
X212003428Y-143947907D01*
X212003428Y-143947907D02*
X211717714Y-143900288D01*
X211717714Y-143900288D02*
X211574857Y-143805050D01*
X211574857Y-143805050D02*
X211503428Y-143709812D01*
X213003428Y-142852669D02*
X212003428Y-142852669D01*
X212289142Y-142852669D02*
X212146285Y-142805050D01*
X212146285Y-142805050D02*
X212074857Y-142757431D01*
X212074857Y-142757431D02*
X212003428Y-142662193D01*
X212003428Y-142662193D02*
X212003428Y-142566955D01*
X212003428Y-141805050D02*
X213217714Y-141805050D01*
X213217714Y-141805050D02*
X213360571Y-141852669D01*
X213360571Y-141852669D02*
X213432000Y-141900288D01*
X213432000Y-141900288D02*
X213503428Y-141995526D01*
X213503428Y-141995526D02*
X213503428Y-142138383D01*
X213503428Y-142138383D02*
X213432000Y-142233621D01*
X212932000Y-141805050D02*
X213003428Y-141900288D01*
X213003428Y-141900288D02*
X213003428Y-142090764D01*
X213003428Y-142090764D02*
X212932000Y-142186002D01*
X212932000Y-142186002D02*
X212860571Y-142233621D01*
X212860571Y-142233621D02*
X212717714Y-142281240D01*
X212717714Y-142281240D02*
X212289142Y-142281240D01*
X212289142Y-142281240D02*
X212146285Y-142233621D01*
X212146285Y-142233621D02*
X212074857Y-142186002D01*
X212074857Y-142186002D02*
X212003428Y-142090764D01*
X212003428Y-142090764D02*
X212003428Y-141900288D01*
X212003428Y-141900288D02*
X212074857Y-141805050D01*
X213003428Y-140900288D02*
X212217714Y-140900288D01*
X212217714Y-140900288D02*
X212074857Y-140947907D01*
X212074857Y-140947907D02*
X212003428Y-141043145D01*
X212003428Y-141043145D02*
X212003428Y-141233621D01*
X212003428Y-141233621D02*
X212074857Y-141328859D01*
X212932000Y-140900288D02*
X213003428Y-140995526D01*
X213003428Y-140995526D02*
X213003428Y-141233621D01*
X213003428Y-141233621D02*
X212932000Y-141328859D01*
X212932000Y-141328859D02*
X212789142Y-141376478D01*
X212789142Y-141376478D02*
X212646285Y-141376478D01*
X212646285Y-141376478D02*
X212503428Y-141328859D01*
X212503428Y-141328859D02*
X212432000Y-141233621D01*
X212432000Y-141233621D02*
X212432000Y-140995526D01*
X212432000Y-140995526D02*
X212360571Y-140900288D01*
X212003428Y-140424097D02*
X213003428Y-140424097D01*
X212146285Y-140424097D02*
X212074857Y-140376478D01*
X212074857Y-140376478D02*
X212003428Y-140281240D01*
X212003428Y-140281240D02*
X212003428Y-140138383D01*
X212003428Y-140138383D02*
X212074857Y-140043145D01*
X212074857Y-140043145D02*
X212217714Y-139995526D01*
X212217714Y-139995526D02*
X213003428Y-139995526D01*
X213003428Y-139519335D02*
X212003428Y-139519335D01*
X211503428Y-139519335D02*
X211574857Y-139566954D01*
X211574857Y-139566954D02*
X211646285Y-139519335D01*
X211646285Y-139519335D02*
X211574857Y-139471716D01*
X211574857Y-139471716D02*
X211503428Y-139519335D01*
X211503428Y-139519335D02*
X211646285Y-139519335D01*
X212003428Y-139138383D02*
X212003428Y-138614574D01*
X212003428Y-138614574D02*
X213003428Y-139138383D01*
X213003428Y-139138383D02*
X213003428Y-138614574D01*
X213003428Y-138233621D02*
X212003428Y-138233621D01*
X211503428Y-138233621D02*
X211574857Y-138281240D01*
X211574857Y-138281240D02*
X211646285Y-138233621D01*
X211646285Y-138233621D02*
X211574857Y-138186002D01*
X211574857Y-138186002D02*
X211503428Y-138233621D01*
X211503428Y-138233621D02*
X211646285Y-138233621D01*
X212003428Y-137757431D02*
X213003428Y-137757431D01*
X212146285Y-137757431D02*
X212074857Y-137709812D01*
X212074857Y-137709812D02*
X212003428Y-137614574D01*
X212003428Y-137614574D02*
X212003428Y-137471717D01*
X212003428Y-137471717D02*
X212074857Y-137376479D01*
X212074857Y-137376479D02*
X212217714Y-137328860D01*
X212217714Y-137328860D02*
X213003428Y-137328860D01*
X212003428Y-136424098D02*
X213217714Y-136424098D01*
X213217714Y-136424098D02*
X213360571Y-136471717D01*
X213360571Y-136471717D02*
X213432000Y-136519336D01*
X213432000Y-136519336D02*
X213503428Y-136614574D01*
X213503428Y-136614574D02*
X213503428Y-136757431D01*
X213503428Y-136757431D02*
X213432000Y-136852669D01*
X212932000Y-136424098D02*
X213003428Y-136519336D01*
X213003428Y-136519336D02*
X213003428Y-136709812D01*
X213003428Y-136709812D02*
X212932000Y-136805050D01*
X212932000Y-136805050D02*
X212860571Y-136852669D01*
X212860571Y-136852669D02*
X212717714Y-136900288D01*
X212717714Y-136900288D02*
X212289142Y-136900288D01*
X212289142Y-136900288D02*
X212146285Y-136852669D01*
X212146285Y-136852669D02*
X212074857Y-136805050D01*
X212074857Y-136805050D02*
X212003428Y-136709812D01*
X212003428Y-136709812D02*
X212003428Y-136519336D01*
X212003428Y-136519336D02*
X212074857Y-136424098D01*
X212217714Y-134852669D02*
X212289142Y-134709812D01*
X212289142Y-134709812D02*
X212360571Y-134662193D01*
X212360571Y-134662193D02*
X212503428Y-134614574D01*
X212503428Y-134614574D02*
X212717714Y-134614574D01*
X212717714Y-134614574D02*
X212860571Y-134662193D01*
X212860571Y-134662193D02*
X212932000Y-134709812D01*
X212932000Y-134709812D02*
X213003428Y-134805050D01*
X213003428Y-134805050D02*
X213003428Y-135186002D01*
X213003428Y-135186002D02*
X211503428Y-135186002D01*
X211503428Y-135186002D02*
X211503428Y-134852669D01*
X211503428Y-134852669D02*
X211574857Y-134757431D01*
X211574857Y-134757431D02*
X211646285Y-134709812D01*
X211646285Y-134709812D02*
X211789142Y-134662193D01*
X211789142Y-134662193D02*
X211932000Y-134662193D01*
X211932000Y-134662193D02*
X212074857Y-134709812D01*
X212074857Y-134709812D02*
X212146285Y-134757431D01*
X212146285Y-134757431D02*
X212217714Y-134852669D01*
X212217714Y-134852669D02*
X212217714Y-135186002D01*
X213003428Y-134043145D02*
X212932000Y-134138383D01*
X212932000Y-134138383D02*
X212860571Y-134186002D01*
X212860571Y-134186002D02*
X212717714Y-134233621D01*
X212717714Y-134233621D02*
X212289142Y-134233621D01*
X212289142Y-134233621D02*
X212146285Y-134186002D01*
X212146285Y-134186002D02*
X212074857Y-134138383D01*
X212074857Y-134138383D02*
X212003428Y-134043145D01*
X212003428Y-134043145D02*
X212003428Y-133900288D01*
X212003428Y-133900288D02*
X212074857Y-133805050D01*
X212074857Y-133805050D02*
X212146285Y-133757431D01*
X212146285Y-133757431D02*
X212289142Y-133709812D01*
X212289142Y-133709812D02*
X212717714Y-133709812D01*
X212717714Y-133709812D02*
X212860571Y-133757431D01*
X212860571Y-133757431D02*
X212932000Y-133805050D01*
X212932000Y-133805050D02*
X213003428Y-133900288D01*
X213003428Y-133900288D02*
X213003428Y-134043145D01*
X213003428Y-132852669D02*
X212217714Y-132852669D01*
X212217714Y-132852669D02*
X212074857Y-132900288D01*
X212074857Y-132900288D02*
X212003428Y-132995526D01*
X212003428Y-132995526D02*
X212003428Y-133186002D01*
X212003428Y-133186002D02*
X212074857Y-133281240D01*
X212932000Y-132852669D02*
X213003428Y-132947907D01*
X213003428Y-132947907D02*
X213003428Y-133186002D01*
X213003428Y-133186002D02*
X212932000Y-133281240D01*
X212932000Y-133281240D02*
X212789142Y-133328859D01*
X212789142Y-133328859D02*
X212646285Y-133328859D01*
X212646285Y-133328859D02*
X212503428Y-133281240D01*
X212503428Y-133281240D02*
X212432000Y-133186002D01*
X212432000Y-133186002D02*
X212432000Y-132947907D01*
X212432000Y-132947907D02*
X212360571Y-132852669D01*
X213003428Y-132376478D02*
X212003428Y-132376478D01*
X212289142Y-132376478D02*
X212146285Y-132328859D01*
X212146285Y-132328859D02*
X212074857Y-132281240D01*
X212074857Y-132281240D02*
X212003428Y-132186002D01*
X212003428Y-132186002D02*
X212003428Y-132090764D01*
X213003428Y-131328859D02*
X211503428Y-131328859D01*
X212932000Y-131328859D02*
X213003428Y-131424097D01*
X213003428Y-131424097D02*
X213003428Y-131614573D01*
X213003428Y-131614573D02*
X212932000Y-131709811D01*
X212932000Y-131709811D02*
X212860571Y-131757430D01*
X212860571Y-131757430D02*
X212717714Y-131805049D01*
X212717714Y-131805049D02*
X212289142Y-131805049D01*
X212289142Y-131805049D02*
X212146285Y-131757430D01*
X212146285Y-131757430D02*
X212074857Y-131709811D01*
X212074857Y-131709811D02*
X212003428Y-131614573D01*
X212003428Y-131614573D02*
X212003428Y-131424097D01*
X212003428Y-131424097D02*
X212074857Y-131328859D01*
X212003428Y-130186001D02*
X213003428Y-129947906D01*
X213003428Y-129947906D02*
X212003428Y-129709811D01*
X212932000Y-128947906D02*
X213003428Y-129043144D01*
X213003428Y-129043144D02*
X213003428Y-129233620D01*
X213003428Y-129233620D02*
X212932000Y-129328858D01*
X212932000Y-129328858D02*
X212789142Y-129376477D01*
X212789142Y-129376477D02*
X212217714Y-129376477D01*
X212217714Y-129376477D02*
X212074857Y-129328858D01*
X212074857Y-129328858D02*
X212003428Y-129233620D01*
X212003428Y-129233620D02*
X212003428Y-129043144D01*
X212003428Y-129043144D02*
X212074857Y-128947906D01*
X212074857Y-128947906D02*
X212217714Y-128900287D01*
X212217714Y-128900287D02*
X212360571Y-128900287D01*
X212360571Y-128900287D02*
X212503428Y-129376477D01*
X213003428Y-128471715D02*
X212003428Y-128471715D01*
X212289142Y-128471715D02*
X212146285Y-128424096D01*
X212146285Y-128424096D02*
X212074857Y-128376477D01*
X212074857Y-128376477D02*
X212003428Y-128281239D01*
X212003428Y-128281239D02*
X212003428Y-128186001D01*
X212860571Y-127852667D02*
X212932000Y-127805048D01*
X212932000Y-127805048D02*
X213003428Y-127852667D01*
X213003428Y-127852667D02*
X212932000Y-127900286D01*
X212932000Y-127900286D02*
X212860571Y-127852667D01*
X212860571Y-127852667D02*
X213003428Y-127852667D01*
X211646285Y-127424096D02*
X211574857Y-127376477D01*
X211574857Y-127376477D02*
X211503428Y-127281239D01*
X211503428Y-127281239D02*
X211503428Y-127043144D01*
X211503428Y-127043144D02*
X211574857Y-126947906D01*
X211574857Y-126947906D02*
X211646285Y-126900287D01*
X211646285Y-126900287D02*
X211789142Y-126852668D01*
X211789142Y-126852668D02*
X211932000Y-126852668D01*
X211932000Y-126852668D02*
X212146285Y-126900287D01*
X212146285Y-126900287D02*
X213003428Y-127471715D01*
X213003428Y-127471715D02*
X213003428Y-126852668D01*
X212860571Y-126424096D02*
X212932000Y-126376477D01*
X212932000Y-126376477D02*
X213003428Y-126424096D01*
X213003428Y-126424096D02*
X212932000Y-126471715D01*
X212932000Y-126471715D02*
X212860571Y-126424096D01*
X212860571Y-126424096D02*
X213003428Y-126424096D01*
X213003428Y-125424097D02*
X213003428Y-125995525D01*
X213003428Y-125709811D02*
X211503428Y-125709811D01*
X211503428Y-125709811D02*
X211717714Y-125805049D01*
X211717714Y-125805049D02*
X211860571Y-125900287D01*
X211860571Y-125900287D02*
X211932000Y-125995525D01*
X211503428Y-124043144D02*
X211503428Y-123852668D01*
X211503428Y-123852668D02*
X211574857Y-123757430D01*
X211574857Y-123757430D02*
X211717714Y-123662192D01*
X211717714Y-123662192D02*
X212003428Y-123614573D01*
X212003428Y-123614573D02*
X212503428Y-123614573D01*
X212503428Y-123614573D02*
X212789142Y-123662192D01*
X212789142Y-123662192D02*
X212932000Y-123757430D01*
X212932000Y-123757430D02*
X213003428Y-123852668D01*
X213003428Y-123852668D02*
X213003428Y-124043144D01*
X213003428Y-124043144D02*
X212932000Y-124138382D01*
X212932000Y-124138382D02*
X212789142Y-124233620D01*
X212789142Y-124233620D02*
X212503428Y-124281239D01*
X212503428Y-124281239D02*
X212003428Y-124281239D01*
X212003428Y-124281239D02*
X211717714Y-124233620D01*
X211717714Y-124233620D02*
X211574857Y-124138382D01*
X211574857Y-124138382D02*
X211503428Y-124043144D01*
X212932000Y-123233620D02*
X213003428Y-123138382D01*
X213003428Y-123138382D02*
X213003428Y-122947906D01*
X213003428Y-122947906D02*
X212932000Y-122852668D01*
X212932000Y-122852668D02*
X212789142Y-122805049D01*
X212789142Y-122805049D02*
X212717714Y-122805049D01*
X212717714Y-122805049D02*
X212574857Y-122852668D01*
X212574857Y-122852668D02*
X212503428Y-122947906D01*
X212503428Y-122947906D02*
X212503428Y-123090763D01*
X212503428Y-123090763D02*
X212432000Y-123186001D01*
X212432000Y-123186001D02*
X212289142Y-123233620D01*
X212289142Y-123233620D02*
X212217714Y-123233620D01*
X212217714Y-123233620D02*
X212074857Y-123186001D01*
X212074857Y-123186001D02*
X212003428Y-123090763D01*
X212003428Y-123090763D02*
X212003428Y-122947906D01*
X212003428Y-122947906D02*
X212074857Y-122852668D01*
X213003428Y-121947906D02*
X212217714Y-121947906D01*
X212217714Y-121947906D02*
X212074857Y-121995525D01*
X212074857Y-121995525D02*
X212003428Y-122090763D01*
X212003428Y-122090763D02*
X212003428Y-122281239D01*
X212003428Y-122281239D02*
X212074857Y-122376477D01*
X212932000Y-121947906D02*
X213003428Y-122043144D01*
X213003428Y-122043144D02*
X213003428Y-122281239D01*
X213003428Y-122281239D02*
X212932000Y-122376477D01*
X212932000Y-122376477D02*
X212789142Y-122424096D01*
X212789142Y-122424096D02*
X212646285Y-122424096D01*
X212646285Y-122424096D02*
X212503428Y-122376477D01*
X212503428Y-122376477D02*
X212432000Y-122281239D01*
X212432000Y-122281239D02*
X212432000Y-122043144D01*
X212432000Y-122043144D02*
X212360571Y-121947906D01*
X213003428Y-121471715D02*
X211503428Y-121471715D01*
X212432000Y-121376477D02*
X213003428Y-121090763D01*
X212003428Y-121090763D02*
X212574857Y-121471715D01*
X213003428Y-120233620D02*
X212217714Y-120233620D01*
X212217714Y-120233620D02*
X212074857Y-120281239D01*
X212074857Y-120281239D02*
X212003428Y-120376477D01*
X212003428Y-120376477D02*
X212003428Y-120566953D01*
X212003428Y-120566953D02*
X212074857Y-120662191D01*
X212932000Y-120233620D02*
X213003428Y-120328858D01*
X213003428Y-120328858D02*
X213003428Y-120566953D01*
X213003428Y-120566953D02*
X212932000Y-120662191D01*
X212932000Y-120662191D02*
X212789142Y-120709810D01*
X212789142Y-120709810D02*
X212646285Y-120709810D01*
X212646285Y-120709810D02*
X212503428Y-120662191D01*
X212503428Y-120662191D02*
X212432000Y-120566953D01*
X212432000Y-120566953D02*
X212432000Y-120328858D01*
X212432000Y-120328858D02*
X212360571Y-120233620D01*
X211503428Y-118995524D02*
X212717714Y-118995524D01*
X212717714Y-118995524D02*
X212860571Y-118947905D01*
X212860571Y-118947905D02*
X212932000Y-118900286D01*
X212932000Y-118900286D02*
X213003428Y-118805048D01*
X213003428Y-118805048D02*
X213003428Y-118614572D01*
X213003428Y-118614572D02*
X212932000Y-118519334D01*
X212932000Y-118519334D02*
X212860571Y-118471715D01*
X212860571Y-118471715D02*
X212717714Y-118424096D01*
X212717714Y-118424096D02*
X211503428Y-118424096D01*
X212003428Y-117947905D02*
X213003428Y-117947905D01*
X212146285Y-117947905D02*
X212074857Y-117900286D01*
X212074857Y-117900286D02*
X212003428Y-117805048D01*
X212003428Y-117805048D02*
X212003428Y-117662191D01*
X212003428Y-117662191D02*
X212074857Y-117566953D01*
X212074857Y-117566953D02*
X212217714Y-117519334D01*
X212217714Y-117519334D02*
X213003428Y-117519334D01*
X213003428Y-117043143D02*
X212003428Y-117043143D01*
X211503428Y-117043143D02*
X211574857Y-117090762D01*
X211574857Y-117090762D02*
X211646285Y-117043143D01*
X211646285Y-117043143D02*
X211574857Y-116995524D01*
X211574857Y-116995524D02*
X211503428Y-117043143D01*
X211503428Y-117043143D02*
X211646285Y-117043143D01*
X212003428Y-116662191D02*
X213003428Y-116424096D01*
X213003428Y-116424096D02*
X212003428Y-116186001D01*
X212860571Y-115805048D02*
X212932000Y-115757429D01*
X212932000Y-115757429D02*
X213003428Y-115805048D01*
X213003428Y-115805048D02*
X212932000Y-115852667D01*
X212932000Y-115852667D02*
X212860571Y-115805048D01*
X212860571Y-115805048D02*
X213003428Y-115805048D01*
X161142568Y-148723428D02*
X161142568Y-147223428D01*
X161142568Y-147937714D02*
X161713996Y-147937714D01*
X161713996Y-148723428D02*
X161713996Y-147223428D01*
X162571139Y-148652000D02*
X162475901Y-148723428D01*
X162475901Y-148723428D02*
X162285425Y-148723428D01*
X162285425Y-148723428D02*
X162190187Y-148652000D01*
X162190187Y-148652000D02*
X162142568Y-148509142D01*
X162142568Y-148509142D02*
X162142568Y-147937714D01*
X162142568Y-147937714D02*
X162190187Y-147794857D01*
X162190187Y-147794857D02*
X162285425Y-147723428D01*
X162285425Y-147723428D02*
X162475901Y-147723428D01*
X162475901Y-147723428D02*
X162571139Y-147794857D01*
X162571139Y-147794857D02*
X162618758Y-147937714D01*
X162618758Y-147937714D02*
X162618758Y-148080571D01*
X162618758Y-148080571D02*
X162142568Y-148223428D01*
X163475901Y-148723428D02*
X163475901Y-147937714D01*
X163475901Y-147937714D02*
X163428282Y-147794857D01*
X163428282Y-147794857D02*
X163333044Y-147723428D01*
X163333044Y-147723428D02*
X163142568Y-147723428D01*
X163142568Y-147723428D02*
X163047330Y-147794857D01*
X163475901Y-148652000D02*
X163380663Y-148723428D01*
X163380663Y-148723428D02*
X163142568Y-148723428D01*
X163142568Y-148723428D02*
X163047330Y-148652000D01*
X163047330Y-148652000D02*
X162999711Y-148509142D01*
X162999711Y-148509142D02*
X162999711Y-148366285D01*
X162999711Y-148366285D02*
X163047330Y-148223428D01*
X163047330Y-148223428D02*
X163142568Y-148152000D01*
X163142568Y-148152000D02*
X163380663Y-148152000D01*
X163380663Y-148152000D02*
X163475901Y-148080571D01*
X163809235Y-147723428D02*
X164190187Y-147723428D01*
X163952092Y-147223428D02*
X163952092Y-148509142D01*
X163952092Y-148509142D02*
X163999711Y-148652000D01*
X163999711Y-148652000D02*
X164094949Y-148723428D01*
X164094949Y-148723428D02*
X164190187Y-148723428D01*
X164904473Y-148652000D02*
X164809235Y-148723428D01*
X164809235Y-148723428D02*
X164618759Y-148723428D01*
X164618759Y-148723428D02*
X164523521Y-148652000D01*
X164523521Y-148652000D02*
X164475902Y-148509142D01*
X164475902Y-148509142D02*
X164475902Y-147937714D01*
X164475902Y-147937714D02*
X164523521Y-147794857D01*
X164523521Y-147794857D02*
X164618759Y-147723428D01*
X164618759Y-147723428D02*
X164809235Y-147723428D01*
X164809235Y-147723428D02*
X164904473Y-147794857D01*
X164904473Y-147794857D02*
X164952092Y-147937714D01*
X164952092Y-147937714D02*
X164952092Y-148080571D01*
X164952092Y-148080571D02*
X164475902Y-148223428D01*
X165380664Y-148723428D02*
X165380664Y-147723428D01*
X165380664Y-148009142D02*
X165428283Y-147866285D01*
X165428283Y-147866285D02*
X165475902Y-147794857D01*
X165475902Y-147794857D02*
X165571140Y-147723428D01*
X165571140Y-147723428D02*
X165666378Y-147723428D01*
X151522568Y-107033428D02*
X151522568Y-105533428D01*
X151522568Y-105533428D02*
X151903520Y-105533428D01*
X151903520Y-105533428D02*
X151998758Y-105604857D01*
X151998758Y-105604857D02*
X152046377Y-105676285D01*
X152046377Y-105676285D02*
X152093996Y-105819142D01*
X152093996Y-105819142D02*
X152093996Y-106033428D01*
X152093996Y-106033428D02*
X152046377Y-106176285D01*
X152046377Y-106176285D02*
X151998758Y-106247714D01*
X151998758Y-106247714D02*
X151903520Y-106319142D01*
X151903520Y-106319142D02*
X151522568Y-106319142D01*
X152903520Y-106962000D02*
X152808282Y-107033428D01*
X152808282Y-107033428D02*
X152617806Y-107033428D01*
X152617806Y-107033428D02*
X152522568Y-106962000D01*
X152522568Y-106962000D02*
X152474949Y-106819142D01*
X152474949Y-106819142D02*
X152474949Y-106247714D01*
X152474949Y-106247714D02*
X152522568Y-106104857D01*
X152522568Y-106104857D02*
X152617806Y-106033428D01*
X152617806Y-106033428D02*
X152808282Y-106033428D01*
X152808282Y-106033428D02*
X152903520Y-106104857D01*
X152903520Y-106104857D02*
X152951139Y-106247714D01*
X152951139Y-106247714D02*
X152951139Y-106390571D01*
X152951139Y-106390571D02*
X152474949Y-106533428D01*
X153522568Y-107033428D02*
X153427330Y-106962000D01*
X153427330Y-106962000D02*
X153379711Y-106819142D01*
X153379711Y-106819142D02*
X153379711Y-105533428D01*
X153760664Y-106033428D02*
X154141616Y-106033428D01*
X153903521Y-105533428D02*
X153903521Y-106819142D01*
X153903521Y-106819142D02*
X153951140Y-106962000D01*
X153951140Y-106962000D02*
X154046378Y-107033428D01*
X154046378Y-107033428D02*
X154141616Y-107033428D01*
X154474950Y-107033428D02*
X154474950Y-106033428D01*
X154474950Y-105533428D02*
X154427331Y-105604857D01*
X154427331Y-105604857D02*
X154474950Y-105676285D01*
X154474950Y-105676285D02*
X154522569Y-105604857D01*
X154522569Y-105604857D02*
X154474950Y-105533428D01*
X154474950Y-105533428D02*
X154474950Y-105676285D01*
X155332092Y-106962000D02*
X155236854Y-107033428D01*
X155236854Y-107033428D02*
X155046378Y-107033428D01*
X155046378Y-107033428D02*
X154951140Y-106962000D01*
X154951140Y-106962000D02*
X154903521Y-106819142D01*
X154903521Y-106819142D02*
X154903521Y-106247714D01*
X154903521Y-106247714D02*
X154951140Y-106104857D01*
X154951140Y-106104857D02*
X155046378Y-106033428D01*
X155046378Y-106033428D02*
X155236854Y-106033428D01*
X155236854Y-106033428D02*
X155332092Y-106104857D01*
X155332092Y-106104857D02*
X155379711Y-106247714D01*
X155379711Y-106247714D02*
X155379711Y-106390571D01*
X155379711Y-106390571D02*
X154903521Y-106533428D01*
X155808283Y-107033428D02*
X155808283Y-106033428D01*
X155808283Y-106319142D02*
X155855902Y-106176285D01*
X155855902Y-106176285D02*
X155903521Y-106104857D01*
X155903521Y-106104857D02*
X155998759Y-106033428D01*
X155998759Y-106033428D02*
X156093997Y-106033428D01*
X140502568Y-106973428D02*
X140502568Y-105473428D01*
X140502568Y-106187714D02*
X141073996Y-106187714D01*
X141073996Y-106973428D02*
X141073996Y-105473428D01*
X141407330Y-105473428D02*
X141740663Y-106973428D01*
X141740663Y-106973428D02*
X142073996Y-105473428D01*
X167592568Y-147473428D02*
X167592568Y-148973428D01*
X167592568Y-147544857D02*
X167687806Y-147473428D01*
X167687806Y-147473428D02*
X167878282Y-147473428D01*
X167878282Y-147473428D02*
X167973520Y-147544857D01*
X167973520Y-147544857D02*
X168021139Y-147616285D01*
X168021139Y-147616285D02*
X168068758Y-147759142D01*
X168068758Y-147759142D02*
X168068758Y-148187714D01*
X168068758Y-148187714D02*
X168021139Y-148330571D01*
X168021139Y-148330571D02*
X167973520Y-148402000D01*
X167973520Y-148402000D02*
X167878282Y-148473428D01*
X167878282Y-148473428D02*
X167687806Y-148473428D01*
X167687806Y-148473428D02*
X167592568Y-148402000D01*
X168640187Y-148473428D02*
X168544949Y-148402000D01*
X168544949Y-148402000D02*
X168497330Y-148330571D01*
X168497330Y-148330571D02*
X168449711Y-148187714D01*
X168449711Y-148187714D02*
X168449711Y-147759142D01*
X168449711Y-147759142D02*
X168497330Y-147616285D01*
X168497330Y-147616285D02*
X168544949Y-147544857D01*
X168544949Y-147544857D02*
X168640187Y-147473428D01*
X168640187Y-147473428D02*
X168783044Y-147473428D01*
X168783044Y-147473428D02*
X168878282Y-147544857D01*
X168878282Y-147544857D02*
X168925901Y-147616285D01*
X168925901Y-147616285D02*
X168973520Y-147759142D01*
X168973520Y-147759142D02*
X168973520Y-148187714D01*
X168973520Y-148187714D02*
X168925901Y-148330571D01*
X168925901Y-148330571D02*
X168878282Y-148402000D01*
X168878282Y-148402000D02*
X168783044Y-148473428D01*
X168783044Y-148473428D02*
X168640187Y-148473428D01*
X169306854Y-147473428D02*
X169497330Y-148473428D01*
X169497330Y-148473428D02*
X169687806Y-147759142D01*
X169687806Y-147759142D02*
X169878282Y-148473428D01*
X169878282Y-148473428D02*
X170068758Y-147473428D01*
X170830663Y-148402000D02*
X170735425Y-148473428D01*
X170735425Y-148473428D02*
X170544949Y-148473428D01*
X170544949Y-148473428D02*
X170449711Y-148402000D01*
X170449711Y-148402000D02*
X170402092Y-148259142D01*
X170402092Y-148259142D02*
X170402092Y-147687714D01*
X170402092Y-147687714D02*
X170449711Y-147544857D01*
X170449711Y-147544857D02*
X170544949Y-147473428D01*
X170544949Y-147473428D02*
X170735425Y-147473428D01*
X170735425Y-147473428D02*
X170830663Y-147544857D01*
X170830663Y-147544857D02*
X170878282Y-147687714D01*
X170878282Y-147687714D02*
X170878282Y-147830571D01*
X170878282Y-147830571D02*
X170402092Y-147973428D01*
X171306854Y-148473428D02*
X171306854Y-147473428D01*
X171306854Y-147759142D02*
X171354473Y-147616285D01*
X171354473Y-147616285D02*
X171402092Y-147544857D01*
X171402092Y-147544857D02*
X171497330Y-147473428D01*
X171497330Y-147473428D02*
X171592568Y-147473428D01*
X172640188Y-148402000D02*
X172735426Y-148473428D01*
X172735426Y-148473428D02*
X172925902Y-148473428D01*
X172925902Y-148473428D02*
X173021140Y-148402000D01*
X173021140Y-148402000D02*
X173068759Y-148259142D01*
X173068759Y-148259142D02*
X173068759Y-148187714D01*
X173068759Y-148187714D02*
X173021140Y-148044857D01*
X173021140Y-148044857D02*
X172925902Y-147973428D01*
X172925902Y-147973428D02*
X172783045Y-147973428D01*
X172783045Y-147973428D02*
X172687807Y-147902000D01*
X172687807Y-147902000D02*
X172640188Y-147759142D01*
X172640188Y-147759142D02*
X172640188Y-147687714D01*
X172640188Y-147687714D02*
X172687807Y-147544857D01*
X172687807Y-147544857D02*
X172783045Y-147473428D01*
X172783045Y-147473428D02*
X172925902Y-147473428D01*
X172925902Y-147473428D02*
X173021140Y-147544857D01*
X173925902Y-147473428D02*
X173925902Y-148473428D01*
X173497331Y-147473428D02*
X173497331Y-148259142D01*
X173497331Y-148259142D02*
X173544950Y-148402000D01*
X173544950Y-148402000D02*
X173640188Y-148473428D01*
X173640188Y-148473428D02*
X173783045Y-148473428D01*
X173783045Y-148473428D02*
X173878283Y-148402000D01*
X173878283Y-148402000D02*
X173925902Y-148330571D01*
X174402093Y-147473428D02*
X174402093Y-148973428D01*
X174402093Y-147544857D02*
X174497331Y-147473428D01*
X174497331Y-147473428D02*
X174687807Y-147473428D01*
X174687807Y-147473428D02*
X174783045Y-147544857D01*
X174783045Y-147544857D02*
X174830664Y-147616285D01*
X174830664Y-147616285D02*
X174878283Y-147759142D01*
X174878283Y-147759142D02*
X174878283Y-148187714D01*
X174878283Y-148187714D02*
X174830664Y-148330571D01*
X174830664Y-148330571D02*
X174783045Y-148402000D01*
X174783045Y-148402000D02*
X174687807Y-148473428D01*
X174687807Y-148473428D02*
X174497331Y-148473428D01*
X174497331Y-148473428D02*
X174402093Y-148402000D01*
X175306855Y-147473428D02*
X175306855Y-148973428D01*
X175306855Y-147544857D02*
X175402093Y-147473428D01*
X175402093Y-147473428D02*
X175592569Y-147473428D01*
X175592569Y-147473428D02*
X175687807Y-147544857D01*
X175687807Y-147544857D02*
X175735426Y-147616285D01*
X175735426Y-147616285D02*
X175783045Y-147759142D01*
X175783045Y-147759142D02*
X175783045Y-148187714D01*
X175783045Y-148187714D02*
X175735426Y-148330571D01*
X175735426Y-148330571D02*
X175687807Y-148402000D01*
X175687807Y-148402000D02*
X175592569Y-148473428D01*
X175592569Y-148473428D02*
X175402093Y-148473428D01*
X175402093Y-148473428D02*
X175306855Y-148402000D01*
X176354474Y-148473428D02*
X176259236Y-148402000D01*
X176259236Y-148402000D02*
X176211617Y-148259142D01*
X176211617Y-148259142D02*
X176211617Y-146973428D01*
X176640189Y-147473428D02*
X176878284Y-148473428D01*
X177116379Y-147473428D02*
X176878284Y-148473428D01*
X176878284Y-148473428D02*
X176783046Y-148830571D01*
X176783046Y-148830571D02*
X176735427Y-148902000D01*
X176735427Y-148902000D02*
X176640189Y-148973428D01*
X182744949Y-145279941D02*
X183221139Y-145279941D01*
X182649711Y-145708512D02*
X182983044Y-144208512D01*
X182983044Y-144208512D02*
X183316377Y-145708512D01*
X183649711Y-145708512D02*
X183649711Y-144708512D01*
X183649711Y-144994226D02*
X183697330Y-144851369D01*
X183697330Y-144851369D02*
X183744949Y-144779941D01*
X183744949Y-144779941D02*
X183840187Y-144708512D01*
X183840187Y-144708512D02*
X183935425Y-144708512D01*
X184697330Y-145708512D02*
X184697330Y-144208512D01*
X184697330Y-145637084D02*
X184602092Y-145708512D01*
X184602092Y-145708512D02*
X184411616Y-145708512D01*
X184411616Y-145708512D02*
X184316378Y-145637084D01*
X184316378Y-145637084D02*
X184268759Y-145565655D01*
X184268759Y-145565655D02*
X184221140Y-145422798D01*
X184221140Y-145422798D02*
X184221140Y-144994226D01*
X184221140Y-144994226D02*
X184268759Y-144851369D01*
X184268759Y-144851369D02*
X184316378Y-144779941D01*
X184316378Y-144779941D02*
X184411616Y-144708512D01*
X184411616Y-144708512D02*
X184602092Y-144708512D01*
X184602092Y-144708512D02*
X184697330Y-144779941D01*
X185602092Y-144708512D02*
X185602092Y-145708512D01*
X185173521Y-144708512D02*
X185173521Y-145494226D01*
X185173521Y-145494226D02*
X185221140Y-145637084D01*
X185221140Y-145637084D02*
X185316378Y-145708512D01*
X185316378Y-145708512D02*
X185459235Y-145708512D01*
X185459235Y-145708512D02*
X185554473Y-145637084D01*
X185554473Y-145637084D02*
X185602092Y-145565655D01*
X186078283Y-145708512D02*
X186078283Y-144708512D01*
X186078283Y-144208512D02*
X186030664Y-144279941D01*
X186030664Y-144279941D02*
X186078283Y-144351369D01*
X186078283Y-144351369D02*
X186125902Y-144279941D01*
X186125902Y-144279941D02*
X186078283Y-144208512D01*
X186078283Y-144208512D02*
X186078283Y-144351369D01*
X186554473Y-144708512D02*
X186554473Y-145708512D01*
X186554473Y-144851369D02*
X186602092Y-144779941D01*
X186602092Y-144779941D02*
X186697330Y-144708512D01*
X186697330Y-144708512D02*
X186840187Y-144708512D01*
X186840187Y-144708512D02*
X186935425Y-144779941D01*
X186935425Y-144779941D02*
X186983044Y-144922798D01*
X186983044Y-144922798D02*
X186983044Y-145708512D01*
X187602092Y-145708512D02*
X187506854Y-145637084D01*
X187506854Y-145637084D02*
X187459235Y-145565655D01*
X187459235Y-145565655D02*
X187411616Y-145422798D01*
X187411616Y-145422798D02*
X187411616Y-144994226D01*
X187411616Y-144994226D02*
X187459235Y-144851369D01*
X187459235Y-144851369D02*
X187506854Y-144779941D01*
X187506854Y-144779941D02*
X187602092Y-144708512D01*
X187602092Y-144708512D02*
X187744949Y-144708512D01*
X187744949Y-144708512D02*
X187840187Y-144779941D01*
X187840187Y-144779941D02*
X187887806Y-144851369D01*
X187887806Y-144851369D02*
X187935425Y-144994226D01*
X187935425Y-144994226D02*
X187935425Y-145422798D01*
X187935425Y-145422798D02*
X187887806Y-145565655D01*
X187887806Y-145565655D02*
X187840187Y-145637084D01*
X187840187Y-145637084D02*
X187744949Y-145708512D01*
X187744949Y-145708512D02*
X187602092Y-145708512D01*
X183221139Y-148052000D02*
X183125901Y-148123428D01*
X183125901Y-148123428D02*
X182935425Y-148123428D01*
X182935425Y-148123428D02*
X182840187Y-148052000D01*
X182840187Y-148052000D02*
X182792568Y-147980571D01*
X182792568Y-147980571D02*
X182744949Y-147837714D01*
X182744949Y-147837714D02*
X182744949Y-147409142D01*
X182744949Y-147409142D02*
X182792568Y-147266285D01*
X182792568Y-147266285D02*
X182840187Y-147194857D01*
X182840187Y-147194857D02*
X182935425Y-147123428D01*
X182935425Y-147123428D02*
X183125901Y-147123428D01*
X183125901Y-147123428D02*
X183221139Y-147194857D01*
X183792568Y-148123428D02*
X183697330Y-148052000D01*
X183697330Y-148052000D02*
X183649711Y-147980571D01*
X183649711Y-147980571D02*
X183602092Y-147837714D01*
X183602092Y-147837714D02*
X183602092Y-147409142D01*
X183602092Y-147409142D02*
X183649711Y-147266285D01*
X183649711Y-147266285D02*
X183697330Y-147194857D01*
X183697330Y-147194857D02*
X183792568Y-147123428D01*
X183792568Y-147123428D02*
X183935425Y-147123428D01*
X183935425Y-147123428D02*
X184030663Y-147194857D01*
X184030663Y-147194857D02*
X184078282Y-147266285D01*
X184078282Y-147266285D02*
X184125901Y-147409142D01*
X184125901Y-147409142D02*
X184125901Y-147837714D01*
X184125901Y-147837714D02*
X184078282Y-147980571D01*
X184078282Y-147980571D02*
X184030663Y-148052000D01*
X184030663Y-148052000D02*
X183935425Y-148123428D01*
X183935425Y-148123428D02*
X183792568Y-148123428D01*
X184554473Y-147123428D02*
X184554473Y-148123428D01*
X184554473Y-147266285D02*
X184602092Y-147194857D01*
X184602092Y-147194857D02*
X184697330Y-147123428D01*
X184697330Y-147123428D02*
X184840187Y-147123428D01*
X184840187Y-147123428D02*
X184935425Y-147194857D01*
X184935425Y-147194857D02*
X184983044Y-147337714D01*
X184983044Y-147337714D02*
X184983044Y-148123428D01*
X185316378Y-147123428D02*
X185697330Y-147123428D01*
X185459235Y-146623428D02*
X185459235Y-147909142D01*
X185459235Y-147909142D02*
X185506854Y-148052000D01*
X185506854Y-148052000D02*
X185602092Y-148123428D01*
X185602092Y-148123428D02*
X185697330Y-148123428D01*
X186030664Y-148123428D02*
X186030664Y-147123428D01*
X186030664Y-147409142D02*
X186078283Y-147266285D01*
X186078283Y-147266285D02*
X186125902Y-147194857D01*
X186125902Y-147194857D02*
X186221140Y-147123428D01*
X186221140Y-147123428D02*
X186316378Y-147123428D01*
X186792569Y-148123428D02*
X186697331Y-148052000D01*
X186697331Y-148052000D02*
X186649712Y-147980571D01*
X186649712Y-147980571D02*
X186602093Y-147837714D01*
X186602093Y-147837714D02*
X186602093Y-147409142D01*
X186602093Y-147409142D02*
X186649712Y-147266285D01*
X186649712Y-147266285D02*
X186697331Y-147194857D01*
X186697331Y-147194857D02*
X186792569Y-147123428D01*
X186792569Y-147123428D02*
X186935426Y-147123428D01*
X186935426Y-147123428D02*
X187030664Y-147194857D01*
X187030664Y-147194857D02*
X187078283Y-147266285D01*
X187078283Y-147266285D02*
X187125902Y-147409142D01*
X187125902Y-147409142D02*
X187125902Y-147837714D01*
X187125902Y-147837714D02*
X187078283Y-147980571D01*
X187078283Y-147980571D02*
X187030664Y-148052000D01*
X187030664Y-148052000D02*
X186935426Y-148123428D01*
X186935426Y-148123428D02*
X186792569Y-148123428D01*
X187697331Y-148123428D02*
X187602093Y-148052000D01*
X187602093Y-148052000D02*
X187554474Y-147909142D01*
X187554474Y-147909142D02*
X187554474Y-146623428D01*
X159139711Y-105443428D02*
X159711139Y-105443428D01*
X159425425Y-106943428D02*
X159425425Y-105443428D01*
X160044473Y-106943428D02*
X160044473Y-105443428D01*
X160473044Y-106943428D02*
X160473044Y-106157714D01*
X160473044Y-106157714D02*
X160425425Y-106014857D01*
X160425425Y-106014857D02*
X160330187Y-105943428D01*
X160330187Y-105943428D02*
X160187330Y-105943428D01*
X160187330Y-105943428D02*
X160092092Y-106014857D01*
X160092092Y-106014857D02*
X160044473Y-106086285D01*
X161330187Y-106872000D02*
X161234949Y-106943428D01*
X161234949Y-106943428D02*
X161044473Y-106943428D01*
X161044473Y-106943428D02*
X160949235Y-106872000D01*
X160949235Y-106872000D02*
X160901616Y-106729142D01*
X160901616Y-106729142D02*
X160901616Y-106157714D01*
X160901616Y-106157714D02*
X160949235Y-106014857D01*
X160949235Y-106014857D02*
X161044473Y-105943428D01*
X161044473Y-105943428D02*
X161234949Y-105943428D01*
X161234949Y-105943428D02*
X161330187Y-106014857D01*
X161330187Y-106014857D02*
X161377806Y-106157714D01*
X161377806Y-106157714D02*
X161377806Y-106300571D01*
X161377806Y-106300571D02*
X160901616Y-106443428D01*
X161806378Y-106943428D02*
X161806378Y-105943428D01*
X161806378Y-106229142D02*
X161853997Y-106086285D01*
X161853997Y-106086285D02*
X161901616Y-106014857D01*
X161901616Y-106014857D02*
X161996854Y-105943428D01*
X161996854Y-105943428D02*
X162092092Y-105943428D01*
X162425426Y-106943428D02*
X162425426Y-105943428D01*
X162425426Y-106086285D02*
X162473045Y-106014857D01*
X162473045Y-106014857D02*
X162568283Y-105943428D01*
X162568283Y-105943428D02*
X162711140Y-105943428D01*
X162711140Y-105943428D02*
X162806378Y-106014857D01*
X162806378Y-106014857D02*
X162853997Y-106157714D01*
X162853997Y-106157714D02*
X162853997Y-106943428D01*
X162853997Y-106157714D02*
X162901616Y-106014857D01*
X162901616Y-106014857D02*
X162996854Y-105943428D01*
X162996854Y-105943428D02*
X163139711Y-105943428D01*
X163139711Y-105943428D02*
X163234950Y-106014857D01*
X163234950Y-106014857D02*
X163282569Y-106157714D01*
X163282569Y-106157714D02*
X163282569Y-106943428D01*
X163901616Y-106943428D02*
X163806378Y-106872000D01*
X163806378Y-106872000D02*
X163758759Y-106800571D01*
X163758759Y-106800571D02*
X163711140Y-106657714D01*
X163711140Y-106657714D02*
X163711140Y-106229142D01*
X163711140Y-106229142D02*
X163758759Y-106086285D01*
X163758759Y-106086285D02*
X163806378Y-106014857D01*
X163806378Y-106014857D02*
X163901616Y-105943428D01*
X163901616Y-105943428D02*
X164044473Y-105943428D01*
X164044473Y-105943428D02*
X164139711Y-106014857D01*
X164139711Y-106014857D02*
X164187330Y-106086285D01*
X164187330Y-106086285D02*
X164234949Y-106229142D01*
X164234949Y-106229142D02*
X164234949Y-106657714D01*
X164234949Y-106657714D02*
X164187330Y-106800571D01*
X164187330Y-106800571D02*
X164139711Y-106872000D01*
X164139711Y-106872000D02*
X164044473Y-106943428D01*
X164044473Y-106943428D02*
X163901616Y-106943428D01*
X165092092Y-106872000D02*
X164996854Y-106943428D01*
X164996854Y-106943428D02*
X164806378Y-106943428D01*
X164806378Y-106943428D02*
X164711140Y-106872000D01*
X164711140Y-106872000D02*
X164663521Y-106800571D01*
X164663521Y-106800571D02*
X164615902Y-106657714D01*
X164615902Y-106657714D02*
X164615902Y-106229142D01*
X164615902Y-106229142D02*
X164663521Y-106086285D01*
X164663521Y-106086285D02*
X164711140Y-106014857D01*
X164711140Y-106014857D02*
X164806378Y-105943428D01*
X164806378Y-105943428D02*
X164996854Y-105943428D01*
X164996854Y-105943428D02*
X165092092Y-106014857D01*
X165663521Y-106943428D02*
X165568283Y-106872000D01*
X165568283Y-106872000D02*
X165520664Y-106800571D01*
X165520664Y-106800571D02*
X165473045Y-106657714D01*
X165473045Y-106657714D02*
X165473045Y-106229142D01*
X165473045Y-106229142D02*
X165520664Y-106086285D01*
X165520664Y-106086285D02*
X165568283Y-106014857D01*
X165568283Y-106014857D02*
X165663521Y-105943428D01*
X165663521Y-105943428D02*
X165806378Y-105943428D01*
X165806378Y-105943428D02*
X165901616Y-106014857D01*
X165901616Y-106014857D02*
X165949235Y-106086285D01*
X165949235Y-106086285D02*
X165996854Y-106229142D01*
X165996854Y-106229142D02*
X165996854Y-106657714D01*
X165996854Y-106657714D02*
X165949235Y-106800571D01*
X165949235Y-106800571D02*
X165901616Y-106872000D01*
X165901616Y-106872000D02*
X165806378Y-106943428D01*
X165806378Y-106943428D02*
X165663521Y-106943428D01*
X166853997Y-105943428D02*
X166853997Y-106943428D01*
X166425426Y-105943428D02*
X166425426Y-106729142D01*
X166425426Y-106729142D02*
X166473045Y-106872000D01*
X166473045Y-106872000D02*
X166568283Y-106943428D01*
X166568283Y-106943428D02*
X166711140Y-106943428D01*
X166711140Y-106943428D02*
X166806378Y-106872000D01*
X166806378Y-106872000D02*
X166853997Y-106800571D01*
X167330188Y-105943428D02*
X167330188Y-107443428D01*
X167330188Y-106014857D02*
X167425426Y-105943428D01*
X167425426Y-105943428D02*
X167615902Y-105943428D01*
X167615902Y-105943428D02*
X167711140Y-106014857D01*
X167711140Y-106014857D02*
X167758759Y-106086285D01*
X167758759Y-106086285D02*
X167806378Y-106229142D01*
X167806378Y-106229142D02*
X167806378Y-106657714D01*
X167806378Y-106657714D02*
X167758759Y-106800571D01*
X167758759Y-106800571D02*
X167711140Y-106872000D01*
X167711140Y-106872000D02*
X167615902Y-106943428D01*
X167615902Y-106943428D02*
X167425426Y-106943428D01*
X167425426Y-106943428D02*
X167330188Y-106872000D01*
X168377807Y-106943428D02*
X168282569Y-106872000D01*
X168282569Y-106872000D02*
X168234950Y-106729142D01*
X168234950Y-106729142D02*
X168234950Y-105443428D01*
X169139712Y-106872000D02*
X169044474Y-106943428D01*
X169044474Y-106943428D02*
X168853998Y-106943428D01*
X168853998Y-106943428D02*
X168758760Y-106872000D01*
X168758760Y-106872000D02*
X168711141Y-106729142D01*
X168711141Y-106729142D02*
X168711141Y-106157714D01*
X168711141Y-106157714D02*
X168758760Y-106014857D01*
X168758760Y-106014857D02*
X168853998Y-105943428D01*
X168853998Y-105943428D02*
X169044474Y-105943428D01*
X169044474Y-105943428D02*
X169139712Y-106014857D01*
X169139712Y-106014857D02*
X169187331Y-106157714D01*
X169187331Y-106157714D02*
X169187331Y-106300571D01*
X169187331Y-106300571D02*
X168711141Y-106443428D01*
X169568284Y-106872000D02*
X169663522Y-106943428D01*
X169663522Y-106943428D02*
X169853998Y-106943428D01*
X169853998Y-106943428D02*
X169949236Y-106872000D01*
X169949236Y-106872000D02*
X169996855Y-106729142D01*
X169996855Y-106729142D02*
X169996855Y-106657714D01*
X169996855Y-106657714D02*
X169949236Y-106514857D01*
X169949236Y-106514857D02*
X169853998Y-106443428D01*
X169853998Y-106443428D02*
X169711141Y-106443428D01*
X169711141Y-106443428D02*
X169615903Y-106372000D01*
X169615903Y-106372000D02*
X169568284Y-106229142D01*
X169568284Y-106229142D02*
X169568284Y-106157714D01*
X169568284Y-106157714D02*
X169615903Y-106014857D01*
X169615903Y-106014857D02*
X169711141Y-105943428D01*
X169711141Y-105943428D02*
X169853998Y-105943428D01*
X169853998Y-105943428D02*
X169949236Y-106014857D01*
X131504949Y-106932000D02*
X131647806Y-107003428D01*
X131647806Y-107003428D02*
X131885901Y-107003428D01*
X131885901Y-107003428D02*
X131981139Y-106932000D01*
X131981139Y-106932000D02*
X132028758Y-106860571D01*
X132028758Y-106860571D02*
X132076377Y-106717714D01*
X132076377Y-106717714D02*
X132076377Y-106574857D01*
X132076377Y-106574857D02*
X132028758Y-106432000D01*
X132028758Y-106432000D02*
X131981139Y-106360571D01*
X131981139Y-106360571D02*
X131885901Y-106289142D01*
X131885901Y-106289142D02*
X131695425Y-106217714D01*
X131695425Y-106217714D02*
X131600187Y-106146285D01*
X131600187Y-106146285D02*
X131552568Y-106074857D01*
X131552568Y-106074857D02*
X131504949Y-105932000D01*
X131504949Y-105932000D02*
X131504949Y-105789142D01*
X131504949Y-105789142D02*
X131552568Y-105646285D01*
X131552568Y-105646285D02*
X131600187Y-105574857D01*
X131600187Y-105574857D02*
X131695425Y-105503428D01*
X131695425Y-105503428D02*
X131933520Y-105503428D01*
X131933520Y-105503428D02*
X132076377Y-105574857D01*
X132504949Y-107003428D02*
X132504949Y-105503428D01*
X132504949Y-106217714D02*
X133076377Y-106217714D01*
X133076377Y-107003428D02*
X133076377Y-105503428D01*
X133409711Y-105503428D02*
X133981139Y-105503428D01*
X133695425Y-107003428D02*
X133695425Y-105503428D01*
X134457330Y-106146285D02*
X134362092Y-106074857D01*
X134362092Y-106074857D02*
X134314473Y-106003428D01*
X134314473Y-106003428D02*
X134266854Y-105860571D01*
X134266854Y-105860571D02*
X134266854Y-105789142D01*
X134266854Y-105789142D02*
X134314473Y-105646285D01*
X134314473Y-105646285D02*
X134362092Y-105574857D01*
X134362092Y-105574857D02*
X134457330Y-105503428D01*
X134457330Y-105503428D02*
X134647806Y-105503428D01*
X134647806Y-105503428D02*
X134743044Y-105574857D01*
X134743044Y-105574857D02*
X134790663Y-105646285D01*
X134790663Y-105646285D02*
X134838282Y-105789142D01*
X134838282Y-105789142D02*
X134838282Y-105860571D01*
X134838282Y-105860571D02*
X134790663Y-106003428D01*
X134790663Y-106003428D02*
X134743044Y-106074857D01*
X134743044Y-106074857D02*
X134647806Y-106146285D01*
X134647806Y-106146285D02*
X134457330Y-106146285D01*
X134457330Y-106146285D02*
X134362092Y-106217714D01*
X134362092Y-106217714D02*
X134314473Y-106289142D01*
X134314473Y-106289142D02*
X134266854Y-106432000D01*
X134266854Y-106432000D02*
X134266854Y-106717714D01*
X134266854Y-106717714D02*
X134314473Y-106860571D01*
X134314473Y-106860571D02*
X134362092Y-106932000D01*
X134362092Y-106932000D02*
X134457330Y-107003428D01*
X134457330Y-107003428D02*
X134647806Y-107003428D01*
X134647806Y-107003428D02*
X134743044Y-106932000D01*
X134743044Y-106932000D02*
X134790663Y-106860571D01*
X134790663Y-106860571D02*
X134838282Y-106717714D01*
X134838282Y-106717714D02*
X134838282Y-106432000D01*
X134838282Y-106432000D02*
X134790663Y-106289142D01*
X134790663Y-106289142D02*
X134743044Y-106217714D01*
X134743044Y-106217714D02*
X134647806Y-106146285D01*
X135743044Y-105503428D02*
X135266854Y-105503428D01*
X135266854Y-105503428D02*
X135219235Y-106217714D01*
X135219235Y-106217714D02*
X135266854Y-106146285D01*
X135266854Y-106146285D02*
X135362092Y-106074857D01*
X135362092Y-106074857D02*
X135600187Y-106074857D01*
X135600187Y-106074857D02*
X135695425Y-106146285D01*
X135695425Y-106146285D02*
X135743044Y-106217714D01*
X135743044Y-106217714D02*
X135790663Y-106360571D01*
X135790663Y-106360571D02*
X135790663Y-106717714D01*
X135790663Y-106717714D02*
X135743044Y-106860571D01*
X135743044Y-106860571D02*
X135695425Y-106932000D01*
X135695425Y-106932000D02*
X135600187Y-107003428D01*
X135600187Y-107003428D02*
X135362092Y-107003428D01*
X135362092Y-107003428D02*
X135266854Y-106932000D01*
X135266854Y-106932000D02*
X135219235Y-106860571D01*
X198392568Y-134223428D02*
X198392568Y-133223428D01*
X198392568Y-133509142D02*
X198440187Y-133366285D01*
X198440187Y-133366285D02*
X198487806Y-133294857D01*
X198487806Y-133294857D02*
X198583044Y-133223428D01*
X198583044Y-133223428D02*
X198678282Y-133223428D01*
X199392568Y-134152000D02*
X199297330Y-134223428D01*
X199297330Y-134223428D02*
X199106854Y-134223428D01*
X199106854Y-134223428D02*
X199011616Y-134152000D01*
X199011616Y-134152000D02*
X198963997Y-134009142D01*
X198963997Y-134009142D02*
X198963997Y-133437714D01*
X198963997Y-133437714D02*
X199011616Y-133294857D01*
X199011616Y-133294857D02*
X199106854Y-133223428D01*
X199106854Y-133223428D02*
X199297330Y-133223428D01*
X199297330Y-133223428D02*
X199392568Y-133294857D01*
X199392568Y-133294857D02*
X199440187Y-133437714D01*
X199440187Y-133437714D02*
X199440187Y-133580571D01*
X199440187Y-133580571D02*
X198963997Y-133723428D01*
X200011616Y-134223428D02*
X199916378Y-134152000D01*
X199916378Y-134152000D02*
X199868759Y-134009142D01*
X199868759Y-134009142D02*
X199868759Y-132723428D01*
X200821140Y-134223428D02*
X200821140Y-133437714D01*
X200821140Y-133437714D02*
X200773521Y-133294857D01*
X200773521Y-133294857D02*
X200678283Y-133223428D01*
X200678283Y-133223428D02*
X200487807Y-133223428D01*
X200487807Y-133223428D02*
X200392569Y-133294857D01*
X200821140Y-134152000D02*
X200725902Y-134223428D01*
X200725902Y-134223428D02*
X200487807Y-134223428D01*
X200487807Y-134223428D02*
X200392569Y-134152000D01*
X200392569Y-134152000D02*
X200344950Y-134009142D01*
X200344950Y-134009142D02*
X200344950Y-133866285D01*
X200344950Y-133866285D02*
X200392569Y-133723428D01*
X200392569Y-133723428D02*
X200487807Y-133652000D01*
X200487807Y-133652000D02*
X200725902Y-133652000D01*
X200725902Y-133652000D02*
X200821140Y-133580571D01*
X201202093Y-133223428D02*
X201440188Y-134223428D01*
X201678283Y-133223428D02*
X201440188Y-134223428D01*
X201440188Y-134223428D02*
X201344950Y-134580571D01*
X201344950Y-134580571D02*
X201297331Y-134652000D01*
X201297331Y-134652000D02*
X201202093Y-134723428D01*
D11*
%TO.C,J3*%
X159390000Y-111960000D02*
X159390000Y-113260000D01*
X159390000Y-113260000D02*
X160440000Y-113260000D01*
X160440000Y-113260000D02*
X160440000Y-114100000D01*
X160560000Y-110040000D02*
X162140000Y-110040000D01*
X162140000Y-108570000D02*
X166860000Y-108570000D01*
X162140000Y-110040000D02*
X162140000Y-108570000D01*
X166860000Y-108570000D02*
X166860000Y-110040000D01*
X166860000Y-110040000D02*
X168440000Y-110040000D01*
X169610000Y-111960000D02*
X169610000Y-113260000D01*
X169610000Y-113260000D02*
X168560000Y-113260000D01*
%TO.C,J21*%
X138890000Y-111960000D02*
X138890000Y-113260000D01*
X138890000Y-113260000D02*
X139940000Y-113260000D01*
X139940000Y-113260000D02*
X139940000Y-114100000D01*
X140060000Y-110040000D02*
X141940000Y-110040000D01*
X143110000Y-111960000D02*
X143110000Y-113260000D01*
X143110000Y-113260000D02*
X142060000Y-113260000D01*
%TO.C,J14*%
X151390000Y-111960000D02*
X151390000Y-113260000D01*
X151390000Y-113260000D02*
X152440000Y-113260000D01*
X152440000Y-113260000D02*
X152440000Y-114100000D01*
X152560000Y-110040000D02*
X154440000Y-110040000D01*
X155610000Y-111960000D02*
X155610000Y-113260000D01*
X155610000Y-113260000D02*
X154560000Y-113260000D01*
D12*
%TO.C,J19*%
X128340000Y-121920000D02*
X148660000Y-121920000D01*
X128340000Y-132080000D02*
X128340000Y-121920000D01*
X128340000Y-132080000D02*
X148660000Y-132080000D01*
X148660000Y-121920000D02*
X148660000Y-132080000D01*
D13*
X147490000Y-121270000D02*
G75*
G02*
X147290000Y-121270000I-100000J0D01*
G01*
X147290000Y-121270000D02*
G75*
G02*
X147490000Y-121270000I100000J0D01*
G01*
D11*
%TO.C,J22*%
X145390000Y-111960000D02*
X145390000Y-113260000D01*
X145390000Y-113260000D02*
X146440000Y-113260000D01*
X146440000Y-113260000D02*
X146440000Y-114100000D01*
X146560000Y-110040000D02*
X148440000Y-110040000D01*
X149610000Y-111960000D02*
X149610000Y-113260000D01*
X149610000Y-113260000D02*
X148560000Y-113260000D01*
%TO.C,J17*%
X182890000Y-138740000D02*
X183940000Y-138740000D01*
X182890000Y-140040000D02*
X182890000Y-138740000D01*
X185940000Y-141960000D02*
X184060000Y-141960000D01*
X186060000Y-138740000D02*
X186060000Y-137900000D01*
X187110000Y-138740000D02*
X186060000Y-138740000D01*
X187110000Y-140040000D02*
X187110000Y-138740000D01*
%TO.C,J11*%
X189390000Y-138740000D02*
X190440000Y-138740000D01*
X189390000Y-140040000D02*
X189390000Y-138740000D01*
X194440000Y-141960000D02*
X190560000Y-141960000D01*
X194560000Y-138740000D02*
X194560000Y-137900000D01*
X195610000Y-138740000D02*
X194560000Y-138740000D01*
X195610000Y-140040000D02*
X195610000Y-138740000D01*
%TO.C,J2*%
X168315000Y-136450000D02*
X169735000Y-136450000D01*
X168315000Y-139415000D02*
X168315000Y-136450000D01*
X168315000Y-141585000D02*
X168315000Y-144040000D01*
X168315000Y-144040000D02*
X171105000Y-144040000D01*
X169735000Y-136450000D02*
X169735000Y-136950000D01*
X169735000Y-136950000D02*
X171105000Y-136950000D01*
X171105000Y-136950000D02*
X171105000Y-134530000D01*
X174265000Y-136450000D02*
X174265000Y-136950000D01*
X174265000Y-136950000D02*
X172895000Y-136950000D01*
X175685000Y-136450000D02*
X174265000Y-136450000D01*
X175685000Y-139415000D02*
X175685000Y-136450000D01*
X175685000Y-141585000D02*
X175685000Y-144040000D01*
X175685000Y-144040000D02*
X172895000Y-144040000D01*
%TO.C,R16*%
X178977500Y-135754724D02*
X178977500Y-135245276D01*
X180022500Y-135754724D02*
X180022500Y-135245276D01*
%TO.C,J1*%
X130390000Y-111960000D02*
X130390000Y-113260000D01*
X130390000Y-113260000D02*
X131440000Y-113260000D01*
X131440000Y-113260000D02*
X131440000Y-114100000D01*
X131560000Y-110040000D02*
X135440000Y-110040000D01*
X136610000Y-111960000D02*
X136610000Y-113260000D01*
X136610000Y-113260000D02*
X135560000Y-113260000D01*
%TO.C,L1*%
X199615000Y-116703733D02*
X199615000Y-117046267D01*
X200635000Y-116703733D02*
X200635000Y-117046267D01*
%TO.C,L8*%
X190865000Y-116703733D02*
X190865000Y-117046267D01*
X191885000Y-116703733D02*
X191885000Y-117046267D01*
%TO.C,L7*%
X189115000Y-116703733D02*
X189115000Y-117046267D01*
X190135000Y-116703733D02*
X190135000Y-117046267D01*
%TO.C,L5*%
X194115000Y-116703733D02*
X194115000Y-117046267D01*
X195135000Y-116703733D02*
X195135000Y-117046267D01*
%TO.C,J9*%
X129315000Y-136450000D02*
X130735000Y-136450000D01*
X129315000Y-139415000D02*
X129315000Y-136450000D01*
X129315000Y-141585000D02*
X129315000Y-144040000D01*
X129315000Y-144040000D02*
X132105000Y-144040000D01*
X130735000Y-136450000D02*
X130735000Y-136950000D01*
X130735000Y-136950000D02*
X132105000Y-136950000D01*
X132105000Y-136950000D02*
X132105000Y-134530000D01*
X141265000Y-136450000D02*
X141265000Y-136950000D01*
X141265000Y-136950000D02*
X139895000Y-136950000D01*
X142685000Y-136450000D02*
X141265000Y-136450000D01*
X142685000Y-139415000D02*
X142685000Y-136450000D01*
X142685000Y-141585000D02*
X142685000Y-144040000D01*
X142685000Y-144040000D02*
X139895000Y-144040000D01*
%TO.C,J4*%
X159315000Y-136450000D02*
X160735000Y-136450000D01*
X159315000Y-139415000D02*
X159315000Y-136450000D01*
X159315000Y-141585000D02*
X159315000Y-144040000D01*
X159315000Y-144040000D02*
X162105000Y-144040000D01*
X160735000Y-136450000D02*
X160735000Y-136950000D01*
X160735000Y-136950000D02*
X162105000Y-136950000D01*
X162105000Y-136950000D02*
X162105000Y-134530000D01*
X165265000Y-136450000D02*
X165265000Y-136950000D01*
X165265000Y-136950000D02*
X163895000Y-136950000D01*
X166685000Y-136450000D02*
X165265000Y-136450000D01*
X166685000Y-139415000D02*
X166685000Y-136450000D01*
X166685000Y-141585000D02*
X166685000Y-144040000D01*
X166685000Y-144040000D02*
X163895000Y-144040000D01*
%TO.C,L4*%
X185865000Y-116703733D02*
X185865000Y-117046267D01*
X186885000Y-116703733D02*
X186885000Y-117046267D01*
%TO.C,R2*%
X203037500Y-124357224D02*
X203037500Y-123847776D01*
X204082500Y-124357224D02*
X204082500Y-123847776D01*
%TO.C,R1*%
X194627500Y-123847776D02*
X194627500Y-124357224D01*
X195672500Y-123847776D02*
X195672500Y-124357224D01*
D12*
%TO.C,J18*%
X172840000Y-132080000D02*
X172840000Y-121920000D01*
X193160000Y-121920000D02*
X172840000Y-121920000D01*
X193160000Y-121920000D02*
X193160000Y-132080000D01*
X193160000Y-132080000D02*
X172840000Y-132080000D01*
D13*
X174210000Y-132730000D02*
G75*
G02*
X174010000Y-132730000I-100000J0D01*
G01*
X174010000Y-132730000D02*
G75*
G02*
X174210000Y-132730000I100000J0D01*
G01*
D11*
%TO.C,J12*%
X144315000Y-136450000D02*
X145735000Y-136450000D01*
X144315000Y-139415000D02*
X144315000Y-136450000D01*
X144315000Y-141585000D02*
X144315000Y-144040000D01*
X144315000Y-144040000D02*
X147105000Y-144040000D01*
X145735000Y-136450000D02*
X145735000Y-136950000D01*
X145735000Y-136950000D02*
X147105000Y-136950000D01*
X147105000Y-136950000D02*
X147105000Y-134530000D01*
X156265000Y-136450000D02*
X156265000Y-136950000D01*
X156265000Y-136950000D02*
X154895000Y-136950000D01*
X157685000Y-136450000D02*
X156265000Y-136450000D01*
X157685000Y-139415000D02*
X157685000Y-136450000D01*
X157685000Y-141585000D02*
X157685000Y-144040000D01*
X157685000Y-144040000D02*
X154895000Y-144040000D01*
%TO.C,J16*%
X197890000Y-138740000D02*
X198940000Y-138740000D01*
X197890000Y-140040000D02*
X197890000Y-138740000D01*
X202940000Y-141960000D02*
X199060000Y-141960000D01*
X203060000Y-138740000D02*
X203060000Y-137900000D01*
X204110000Y-138740000D02*
X203060000Y-138740000D01*
X204110000Y-140040000D02*
X204110000Y-138740000D01*
%TO.C,R18*%
X180977500Y-135754724D02*
X180977500Y-135245276D01*
X182022500Y-135754724D02*
X182022500Y-135245276D01*
%TO.C,L3*%
X184115000Y-116703733D02*
X184115000Y-117046267D01*
X185135000Y-116703733D02*
X185135000Y-117046267D01*
%TO.C,J20*%
X197130000Y-130870000D02*
X197130000Y-123130000D01*
X199730000Y-128270000D02*
X199730000Y-130870000D01*
X199730000Y-130870000D02*
X197130000Y-130870000D01*
X202330000Y-123130000D02*
X197130000Y-123130000D01*
X202330000Y-128270000D02*
X199730000Y-128270000D01*
X202330000Y-128270000D02*
X202330000Y-123130000D01*
X202330000Y-129540000D02*
X202330000Y-130870000D01*
X202330000Y-130870000D02*
X201000000Y-130870000D01*
D12*
%TO.C,J23*%
X150590000Y-121920000D02*
X170910000Y-121920000D01*
X150590000Y-132080000D02*
X150590000Y-121920000D01*
X150590000Y-132080000D02*
X170910000Y-132080000D01*
X170910000Y-121920000D02*
X170910000Y-132080000D01*
D13*
X169740000Y-121270000D02*
G75*
G02*
X169540000Y-121270000I-100000J0D01*
G01*
X169540000Y-121270000D02*
G75*
G02*
X169740000Y-121270000I100000J0D01*
G01*
D11*
%TO.C,R14*%
X176977500Y-135754724D02*
X176977500Y-135245276D01*
X178022500Y-135754724D02*
X178022500Y-135245276D01*
%TO.C,L2*%
X201365000Y-116703733D02*
X201365000Y-117046267D01*
X202385000Y-116703733D02*
X202385000Y-117046267D01*
%TO.C,L6*%
X195865000Y-116703733D02*
X195865000Y-117046267D01*
X196885000Y-116703733D02*
X196885000Y-117046267D01*
%TD*%
M02*
