%TF.GenerationSoftware,KiCad,Pcbnew,8.0.1*%
%TF.CreationDate,2024-10-07T17:28:15+09:00*%
%TF.ProjectId,CoolingBoxWireOrganizer,436f6f6c-696e-4674-926f-78576972654f,rev?*%
%TF.SameCoordinates,Original*%
%TF.FileFunction,Paste,Bot*%
%TF.FilePolarity,Positive*%
%FSLAX46Y46*%
G04 Gerber Fmt 4.6, Leading zero omitted, Abs format (unit mm)*
G04 Created by KiCad (PCBNEW 8.0.1) date 2024-10-07 17:28:15*
%MOMM*%
%LPD*%
G01*
G04 APERTURE LIST*
G04 Aperture macros list*
%AMRoundRect*
0 Rectangle with rounded corners*
0 $1 Rounding radius*
0 $2 $3 $4 $5 $6 $7 $8 $9 X,Y pos of 4 corners*
0 Add a 4 corners polygon primitive as box body*
4,1,4,$2,$3,$4,$5,$6,$7,$8,$9,$2,$3,0*
0 Add four circle primitives for the rounded corners*
1,1,$1+$1,$2,$3*
1,1,$1+$1,$4,$5*
1,1,$1+$1,$6,$7*
1,1,$1+$1,$8,$9*
0 Add four rect primitives between the rounded corners*
20,1,$1+$1,$2,$3,$4,$5,0*
20,1,$1+$1,$4,$5,$6,$7,0*
20,1,$1+$1,$6,$7,$8,$9,0*
20,1,$1+$1,$8,$9,$2,$3,0*%
G04 Aperture macros list end*
%ADD10RoundRect,0.237500X-0.237500X0.287500X-0.237500X-0.287500X0.237500X-0.287500X0.237500X0.287500X0*%
%ADD11RoundRect,0.237500X0.287500X0.237500X-0.287500X0.237500X-0.287500X-0.237500X0.287500X-0.237500X0*%
%ADD12RoundRect,0.237500X0.250000X0.237500X-0.250000X0.237500X-0.250000X-0.237500X0.250000X-0.237500X0*%
%ADD13RoundRect,0.237500X-0.237500X0.250000X-0.237500X-0.250000X0.237500X-0.250000X0.237500X0.250000X0*%
%ADD14RoundRect,0.237500X-0.300000X-0.237500X0.300000X-0.237500X0.300000X0.237500X-0.300000X0.237500X0*%
%ADD15RoundRect,0.237500X0.237500X-0.250000X0.237500X0.250000X-0.237500X0.250000X-0.237500X-0.250000X0*%
%ADD16RoundRect,0.150000X0.150000X-1.075000X0.150000X1.075000X-0.150000X1.075000X-0.150000X-1.075000X0*%
%ADD17RoundRect,0.237500X0.237500X-0.300000X0.237500X0.300000X-0.237500X0.300000X-0.237500X-0.300000X0*%
%ADD18RoundRect,0.237500X-0.287500X-0.237500X0.287500X-0.237500X0.287500X0.237500X-0.287500X0.237500X0*%
G04 APERTURE END LIST*
D10*
%TO.C,D2*%
X174276000Y-107125000D03*
X174276000Y-108875000D03*
%TD*%
D11*
%TO.C,D5*%
X200875000Y-135050000D03*
X199125000Y-135050000D03*
%TD*%
D10*
%TO.C,D6*%
X171736000Y-107125000D03*
X171736000Y-108875000D03*
%TD*%
%TO.C,D1*%
X176816000Y-107125000D03*
X176816000Y-108875000D03*
%TD*%
D12*
%TO.C,R9*%
X163845000Y-127000000D03*
X162020000Y-127000000D03*
%TD*%
D10*
%TO.C,D4*%
X166656000Y-107125000D03*
X166656000Y-108875000D03*
%TD*%
D13*
%TO.C,R3*%
X195150000Y-129540000D03*
X195150000Y-131365000D03*
%TD*%
D10*
%TO.C,D8*%
X169196000Y-107125000D03*
X169196000Y-108875000D03*
%TD*%
D14*
%TO.C,C2*%
X200137500Y-116000000D03*
X201862500Y-116000000D03*
%TD*%
D15*
%TO.C,R20*%
X196760000Y-134972500D03*
X196760000Y-133147500D03*
%TD*%
D12*
%TO.C,R7*%
X131435000Y-127000000D03*
X129610000Y-127000000D03*
%TD*%
D14*
%TO.C,C4*%
X194637500Y-116000000D03*
X196362500Y-116000000D03*
%TD*%
D15*
%TO.C,R13*%
X174276000Y-112912500D03*
X174276000Y-111087500D03*
%TD*%
D12*
%TO.C,R8*%
X168925000Y-127000000D03*
X167100000Y-127000000D03*
%TD*%
D16*
%TO.C,U1*%
X202905000Y-112725000D03*
X201635000Y-112725000D03*
X200365000Y-112725000D03*
X199095000Y-112725000D03*
X199095000Y-107275000D03*
X200365000Y-107275000D03*
X201635000Y-107275000D03*
X202905000Y-107275000D03*
%TD*%
%TO.C,U2*%
X184905000Y-112725000D03*
X183635000Y-112725000D03*
X182365000Y-112725000D03*
X181095000Y-112725000D03*
X181095000Y-107275000D03*
X182365000Y-107275000D03*
X183635000Y-107275000D03*
X184905000Y-107275000D03*
%TD*%
D17*
%TO.C,C1*%
X179360000Y-112862500D03*
X179360000Y-111137500D03*
%TD*%
D12*
%TO.C,R10*%
X158765000Y-127000000D03*
X156940000Y-127000000D03*
%TD*%
D16*
%TO.C,U3*%
X196905000Y-112725000D03*
X195635000Y-112725000D03*
X194365000Y-112725000D03*
X193095000Y-112725000D03*
X193095000Y-107275000D03*
X194365000Y-107275000D03*
X195635000Y-107275000D03*
X196905000Y-107275000D03*
%TD*%
D12*
%TO.C,R5*%
X141595000Y-127000000D03*
X139770000Y-127000000D03*
%TD*%
D14*
%TO.C,C5*%
X189637500Y-116000000D03*
X191362500Y-116000000D03*
%TD*%
D12*
%TO.C,R4*%
X146675000Y-127000000D03*
X144850000Y-127000000D03*
%TD*%
D15*
%TO.C,R12*%
X176816000Y-112912500D03*
X176816000Y-111087500D03*
%TD*%
D16*
%TO.C,U4*%
X190905000Y-112725000D03*
X189635000Y-112725000D03*
X188365000Y-112725000D03*
X187095000Y-112725000D03*
X187095000Y-107275000D03*
X188365000Y-107275000D03*
X189635000Y-107275000D03*
X190905000Y-107275000D03*
%TD*%
D14*
%TO.C,C3*%
X184637500Y-116000000D03*
X186362500Y-116000000D03*
%TD*%
D15*
%TO.C,R19*%
X169196000Y-112912500D03*
X169196000Y-111087500D03*
%TD*%
D12*
%TO.C,R6*%
X136515000Y-127000000D03*
X134690000Y-127000000D03*
%TD*%
%TO.C,R11*%
X153685000Y-127000000D03*
X151860000Y-127000000D03*
%TD*%
D15*
%TO.C,R17*%
X171736000Y-112912500D03*
X171736000Y-111087500D03*
%TD*%
%TO.C,R15*%
X166656000Y-112912500D03*
X166656000Y-111087500D03*
%TD*%
D18*
%TO.C,D3*%
X199125000Y-132830000D03*
X200875000Y-132830000D03*
%TD*%
M02*
