%TF.GenerationSoftware,KiCad,Pcbnew,8.0.1*%
%TF.CreationDate,2024-10-08T14:05:54+09:00*%
%TF.ProjectId,CoolingBoxWireOrganizer,436f6f6c-696e-4674-926f-78576972654f,rev?*%
%TF.SameCoordinates,Original*%
%TF.FileFunction,Profile,NP*%
%FSLAX46Y46*%
G04 Gerber Fmt 4.6, Leading zero omitted, Abs format (unit mm)*
G04 Created by KiCad (PCBNEW 8.0.1) date 2024-10-08 14:05:54*
%MOMM*%
%LPD*%
G01*
G04 APERTURE LIST*
%TA.AperFunction,Profile*%
%ADD10C,0.127000*%
%TD*%
%TA.AperFunction,Profile*%
%ADD11C,0.050000*%
%TD*%
G04 APERTURE END LIST*
D10*
X125000000Y-100000000D02*
X212316000Y-100000000D01*
X125000000Y-153340000D02*
X125000000Y-100000000D01*
D11*
X180943500Y-145720000D02*
G75*
G02*
X177768500Y-145720000I-1587500J0D01*
G01*
X177768500Y-145720000D02*
G75*
G02*
X180943500Y-145720000I1587500J0D01*
G01*
X211423500Y-150800000D02*
G75*
G02*
X208248500Y-150800000I-1587500J0D01*
G01*
X208248500Y-150800000D02*
G75*
G02*
X211423500Y-150800000I1587500J0D01*
G01*
D10*
X125000000Y-153340000D02*
X212316000Y-153340000D01*
X212316000Y-112954000D02*
X214856000Y-115494000D01*
X214856000Y-148260000D02*
X212316000Y-150800000D01*
D11*
X130143500Y-102540000D02*
G75*
G02*
X126968500Y-102540000I-1587500J0D01*
G01*
X126968500Y-102540000D02*
G75*
G02*
X130143500Y-102540000I1587500J0D01*
G01*
X205143500Y-102540000D02*
G75*
G02*
X201968500Y-102540000I-1587500J0D01*
G01*
X201968500Y-102540000D02*
G75*
G02*
X205143500Y-102540000I1587500J0D01*
G01*
X180943500Y-117780000D02*
G75*
G02*
X177768500Y-117780000I-1587500J0D01*
G01*
X177768500Y-117780000D02*
G75*
G02*
X180943500Y-117780000I1587500J0D01*
G01*
X128873500Y-150800000D02*
G75*
G02*
X125698500Y-150800000I-1587500J0D01*
G01*
X125698500Y-150800000D02*
G75*
G02*
X128873500Y-150800000I1587500J0D01*
G01*
D10*
X212316000Y-153340000D02*
X212316000Y-150800000D01*
X212316000Y-112954000D02*
X212316000Y-100000000D01*
X214856000Y-148260000D02*
X214856000Y-115494000D01*
M02*
