%TF.GenerationSoftware,KiCad,Pcbnew,8.0.1*%
%TF.CreationDate,2024-10-24T15:31:50+09:00*%
%TF.ProjectId,CoolingBoxWireOrganizer,436f6f6c-696e-4674-926f-78576972654f,rev?*%
%TF.SameCoordinates,Original*%
%TF.FileFunction,Paste,Top*%
%TF.FilePolarity,Positive*%
%FSLAX46Y46*%
G04 Gerber Fmt 4.6, Leading zero omitted, Abs format (unit mm)*
G04 Created by KiCad (PCBNEW 8.0.1) date 2024-10-24 15:31:50*
%MOMM*%
%LPD*%
G01*
G04 APERTURE LIST*
G04 Aperture macros list*
%AMRoundRect*
0 Rectangle with rounded corners*
0 $1 Rounding radius*
0 $2 $3 $4 $5 $6 $7 $8 $9 X,Y pos of 4 corners*
0 Add a 4 corners polygon primitive as box body*
4,1,4,$2,$3,$4,$5,$6,$7,$8,$9,$2,$3,0*
0 Add four circle primitives for the rounded corners*
1,1,$1+$1,$2,$3*
1,1,$1+$1,$4,$5*
1,1,$1+$1,$6,$7*
1,1,$1+$1,$8,$9*
0 Add four rect primitives between the rounded corners*
20,1,$1+$1,$2,$3,$4,$5,0*
20,1,$1+$1,$4,$5,$6,$7,0*
20,1,$1+$1,$6,$7,$8,$9,0*
20,1,$1+$1,$8,$9,$2,$3,0*%
G04 Aperture macros list end*
%ADD10RoundRect,0.150000X-0.150000X-0.875000X0.150000X-0.875000X0.150000X0.875000X-0.150000X0.875000X0*%
%ADD11RoundRect,0.250000X-0.350000X-0.900000X0.350000X-0.900000X0.350000X0.900000X-0.350000X0.900000X0*%
%ADD12RoundRect,0.150000X0.150000X0.875000X-0.150000X0.875000X-0.150000X-0.875000X0.150000X-0.875000X0*%
%ADD13RoundRect,0.250000X0.350000X0.900000X-0.350000X0.900000X-0.350000X-0.900000X0.350000X-0.900000X0*%
%ADD14R,1.270000X2.540000*%
%ADD15RoundRect,0.237500X0.237500X-0.250000X0.237500X0.250000X-0.237500X0.250000X-0.237500X-0.250000X0*%
%ADD16RoundRect,0.237500X-0.237500X0.287500X-0.237500X-0.287500X0.237500X-0.287500X0.237500X0.287500X0*%
%ADD17RoundRect,0.237500X-0.237500X0.250000X-0.237500X-0.250000X0.237500X-0.250000X0.237500X0.250000X0*%
G04 APERTURE END LIST*
D10*
%TO.C,J3*%
X161000000Y-113575000D03*
X162000000Y-113575000D03*
X163000000Y-113575000D03*
X164000000Y-113575000D03*
X165000000Y-113575000D03*
X166000000Y-113575000D03*
X167000000Y-113575000D03*
X168000000Y-113575000D03*
D11*
X159700000Y-110550000D03*
X169300000Y-110550000D03*
%TD*%
D10*
%TO.C,J21*%
X140500000Y-113575000D03*
X141500000Y-113575000D03*
D11*
X139200000Y-110550000D03*
X142800000Y-110550000D03*
%TD*%
D10*
%TO.C,J14*%
X153000000Y-113575000D03*
X154000000Y-113575000D03*
D11*
X151700000Y-110550000D03*
X155300000Y-110550000D03*
%TD*%
D10*
%TO.C,J22*%
X147000000Y-113575000D03*
X148000000Y-113575000D03*
D11*
X145700000Y-110550000D03*
X149300000Y-110550000D03*
%TD*%
D12*
%TO.C,J17*%
X185500000Y-138425000D03*
X184500000Y-138425000D03*
D13*
X186800000Y-141450000D03*
X183200000Y-141450000D03*
%TD*%
D12*
%TO.C,J11*%
X194000000Y-138425000D03*
X193000000Y-138425000D03*
X192000000Y-138425000D03*
X191000000Y-138425000D03*
D13*
X195300000Y-141450000D03*
X189700000Y-141450000D03*
%TD*%
D14*
%TO.C,J2*%
X172000000Y-135800000D03*
X172000000Y-145200000D03*
%TD*%
D15*
%TO.C,R16*%
X179500000Y-136412500D03*
X179500000Y-134587500D03*
%TD*%
D10*
%TO.C,J1*%
X132000000Y-113575000D03*
X133000000Y-113575000D03*
X134000000Y-113575000D03*
X135000000Y-113575000D03*
D11*
X130700000Y-110550000D03*
X136300000Y-110550000D03*
%TD*%
D16*
%TO.C,L1*%
X200125000Y-116000000D03*
X200125000Y-117750000D03*
%TD*%
%TO.C,L8*%
X191375000Y-116000000D03*
X191375000Y-117750000D03*
%TD*%
%TO.C,L7*%
X189625000Y-116000000D03*
X189625000Y-117750000D03*
%TD*%
%TO.C,L5*%
X194625000Y-116000000D03*
X194625000Y-117750000D03*
%TD*%
D14*
%TO.C,J9*%
X133000000Y-135800000D03*
X136000000Y-135800000D03*
X139000000Y-135800000D03*
X133000000Y-145200000D03*
X136000000Y-145200000D03*
X139000000Y-145200000D03*
%TD*%
%TO.C,J4*%
X163000000Y-135800000D03*
X163000000Y-145200000D03*
%TD*%
D16*
%TO.C,L4*%
X186375000Y-116000000D03*
X186375000Y-117750000D03*
%TD*%
D15*
%TO.C,R2*%
X203560000Y-125015000D03*
X203560000Y-123190000D03*
%TD*%
D17*
%TO.C,R1*%
X195150000Y-123190000D03*
X195150000Y-125015000D03*
%TD*%
D14*
%TO.C,J12*%
X148000000Y-135800000D03*
X151000000Y-135800000D03*
X154000000Y-135800000D03*
X148000000Y-145200000D03*
X151000000Y-145200000D03*
X154000000Y-145200000D03*
%TD*%
D12*
%TO.C,J16*%
X202500000Y-138425000D03*
X201500000Y-138425000D03*
X200500000Y-138425000D03*
X199500000Y-138425000D03*
D13*
X203800000Y-141450000D03*
X198200000Y-141450000D03*
%TD*%
D15*
%TO.C,R18*%
X181500000Y-136412500D03*
X181500000Y-134587500D03*
%TD*%
D16*
%TO.C,L3*%
X184625000Y-116000000D03*
X184625000Y-117750000D03*
%TD*%
D15*
%TO.C,R14*%
X177500000Y-136412500D03*
X177500000Y-134587500D03*
%TD*%
D16*
%TO.C,L2*%
X201875000Y-116000000D03*
X201875000Y-117750000D03*
%TD*%
%TO.C,L6*%
X196375000Y-116000000D03*
X196375000Y-117750000D03*
%TD*%
M02*
