%TF.GenerationSoftware,KiCad,Pcbnew,8.0.1*%
%TF.CreationDate,2024-10-24T15:31:51+09:00*%
%TF.ProjectId,CoolingBoxWireOrganizer,436f6f6c-696e-4674-926f-78576972654f,rev?*%
%TF.SameCoordinates,Original*%
%TF.FileFunction,Soldermask,Bot*%
%TF.FilePolarity,Negative*%
%FSLAX46Y46*%
G04 Gerber Fmt 4.6, Leading zero omitted, Abs format (unit mm)*
G04 Created by KiCad (PCBNEW 8.0.1) date 2024-10-24 15:31:51*
%MOMM*%
%LPD*%
G01*
G04 APERTURE LIST*
G04 Aperture macros list*
%AMRoundRect*
0 Rectangle with rounded corners*
0 $1 Rounding radius*
0 $2 $3 $4 $5 $6 $7 $8 $9 X,Y pos of 4 corners*
0 Add a 4 corners polygon primitive as box body*
4,1,4,$2,$3,$4,$5,$6,$7,$8,$9,$2,$3,0*
0 Add four circle primitives for the rounded corners*
1,1,$1+$1,$2,$3*
1,1,$1+$1,$4,$5*
1,1,$1+$1,$6,$7*
1,1,$1+$1,$8,$9*
0 Add four rect primitives between the rounded corners*
20,1,$1+$1,$2,$3,$4,$5,0*
20,1,$1+$1,$4,$5,$6,$7,0*
20,1,$1+$1,$6,$7,$8,$9,0*
20,1,$1+$1,$8,$9,$2,$3,0*%
G04 Aperture macros list end*
%ADD10RoundRect,0.102000X-0.787500X0.787500X-0.787500X-0.787500X0.787500X-0.787500X0.787500X0.787500X0*%
%ADD11C,1.779000*%
%ADD12C,2.410000*%
%ADD13RoundRect,0.102000X0.787500X-0.787500X0.787500X0.787500X-0.787500X0.787500X-0.787500X-0.787500X0*%
%ADD14R,1.700000X1.700000*%
%ADD15O,1.700000X1.700000*%
%ADD16RoundRect,0.237500X-0.237500X0.287500X-0.237500X-0.287500X0.237500X-0.287500X0.237500X0.287500X0*%
%ADD17RoundRect,0.237500X0.287500X0.237500X-0.287500X0.237500X-0.287500X-0.237500X0.287500X-0.237500X0*%
%ADD18RoundRect,0.237500X0.250000X0.237500X-0.250000X0.237500X-0.250000X-0.237500X0.250000X-0.237500X0*%
%ADD19RoundRect,0.237500X-0.237500X0.250000X-0.237500X-0.250000X0.237500X-0.250000X0.237500X0.250000X0*%
%ADD20RoundRect,0.237500X-0.300000X-0.237500X0.300000X-0.237500X0.300000X0.237500X-0.300000X0.237500X0*%
%ADD21C,1.700000*%
%ADD22RoundRect,0.237500X0.237500X-0.250000X0.237500X0.250000X-0.237500X0.250000X-0.237500X-0.250000X0*%
%ADD23RoundRect,0.150000X0.150000X-1.075000X0.150000X1.075000X-0.150000X1.075000X-0.150000X-1.075000X0*%
%ADD24RoundRect,0.237500X0.237500X-0.300000X0.237500X0.300000X-0.237500X0.300000X-0.237500X-0.300000X0*%
%ADD25RoundRect,0.237500X-0.287500X-0.237500X0.287500X-0.237500X0.287500X0.237500X-0.287500X0.237500X0*%
G04 APERTURE END LIST*
D10*
%TO.C,J19*%
X147390000Y-123190000D03*
D11*
X144850000Y-123190000D03*
X142310000Y-123190000D03*
X139770000Y-123190000D03*
X137230000Y-123190000D03*
X134690000Y-123190000D03*
X132150000Y-123190000D03*
X129610000Y-123190000D03*
X129610000Y-130810000D03*
X132150000Y-130810000D03*
X134690000Y-130810000D03*
X137230000Y-130810000D03*
X139770000Y-130810000D03*
X142310000Y-130810000D03*
X144850000Y-130810000D03*
X147390000Y-130810000D03*
%TD*%
D12*
%TO.C,J2*%
X169850000Y-140500000D03*
X174150000Y-140500000D03*
%TD*%
%TO.C,J9*%
X130850000Y-140500000D03*
X141150000Y-140500000D03*
%TD*%
%TO.C,J4*%
X160850000Y-140500000D03*
X165150000Y-140500000D03*
%TD*%
D13*
%TO.C,J18*%
X174110000Y-130810000D03*
D11*
X176650000Y-130810000D03*
X179190000Y-130810000D03*
X181730000Y-130810000D03*
X184270000Y-130810000D03*
X186810000Y-130810000D03*
X189350000Y-130810000D03*
X191890000Y-130810000D03*
X191890000Y-123190000D03*
X189350000Y-123190000D03*
X186810000Y-123190000D03*
X184270000Y-123190000D03*
X181730000Y-123190000D03*
X179190000Y-123190000D03*
X176650000Y-123190000D03*
X174110000Y-123190000D03*
%TD*%
D12*
%TO.C,J12*%
X145850000Y-140500000D03*
X156150000Y-140500000D03*
%TD*%
D14*
%TO.C,J20*%
X201000000Y-129540000D03*
D15*
X198460000Y-129540000D03*
X201000000Y-127000000D03*
X198460000Y-127000000D03*
X201000000Y-124460000D03*
X198460000Y-124460000D03*
%TD*%
D10*
%TO.C,J23*%
X169640000Y-123190000D03*
D11*
X167100000Y-123190000D03*
X164560000Y-123190000D03*
X162020000Y-123190000D03*
X159480000Y-123190000D03*
X156940000Y-123190000D03*
X154400000Y-123190000D03*
X151860000Y-123190000D03*
X151860000Y-130810000D03*
X154400000Y-130810000D03*
X156940000Y-130810000D03*
X159480000Y-130810000D03*
X162020000Y-130810000D03*
X164560000Y-130810000D03*
X167100000Y-130810000D03*
X169640000Y-130810000D03*
%TD*%
D16*
%TO.C,D2*%
X174276000Y-107125000D03*
X174276000Y-108875000D03*
%TD*%
D17*
%TO.C,D5*%
X200875000Y-135050000D03*
X199125000Y-135050000D03*
%TD*%
D16*
%TO.C,D6*%
X171736000Y-107125000D03*
X171736000Y-108875000D03*
%TD*%
%TO.C,D1*%
X176816000Y-107125000D03*
X176816000Y-108875000D03*
%TD*%
D18*
%TO.C,R9*%
X163845000Y-127000000D03*
X162020000Y-127000000D03*
%TD*%
D16*
%TO.C,D4*%
X166656000Y-107125000D03*
X166656000Y-108875000D03*
%TD*%
D19*
%TO.C,R3*%
X195150000Y-129540000D03*
X195150000Y-131365000D03*
%TD*%
D16*
%TO.C,D8*%
X169196000Y-107125000D03*
X169196000Y-108875000D03*
%TD*%
D20*
%TO.C,C2*%
X200137500Y-116000000D03*
X201862500Y-116000000D03*
%TD*%
D21*
%TO.C,J15*%
X209836000Y-102540000D03*
D14*
X207296000Y-102540000D03*
D15*
X209836000Y-105080000D03*
X207296000Y-105080000D03*
X209836000Y-107620000D03*
X207296000Y-107620000D03*
X209836000Y-110160000D03*
X207296000Y-110160000D03*
X209836000Y-112700000D03*
X207296000Y-112700000D03*
X209836000Y-115240000D03*
X207296000Y-115240000D03*
X209836000Y-117780000D03*
X207296000Y-117780000D03*
X209836000Y-120320000D03*
X207296000Y-120320000D03*
X209836000Y-122860000D03*
X207296000Y-122860000D03*
X209836000Y-125400000D03*
X207296000Y-125400000D03*
X209836000Y-127940000D03*
X207296000Y-127940000D03*
X209836000Y-130480000D03*
X207296000Y-130480000D03*
X209836000Y-133020000D03*
X207296000Y-133020000D03*
X209836000Y-135560000D03*
X207296000Y-135560000D03*
X209836000Y-138100000D03*
X207296000Y-138100000D03*
X209836000Y-140640000D03*
X207296000Y-140640000D03*
X209836000Y-143180000D03*
X207296000Y-143180000D03*
X209836000Y-145720000D03*
X207296000Y-145720000D03*
%TD*%
D22*
%TO.C,R20*%
X196760000Y-134972500D03*
X196760000Y-133147500D03*
%TD*%
D18*
%TO.C,R7*%
X131435000Y-127000000D03*
X129610000Y-127000000D03*
%TD*%
D20*
%TO.C,C4*%
X194637500Y-116000000D03*
X196362500Y-116000000D03*
%TD*%
D22*
%TO.C,R13*%
X174276000Y-112912500D03*
X174276000Y-111087500D03*
%TD*%
D14*
%TO.C,J10*%
X186976000Y-150800000D03*
D15*
X189516000Y-150800000D03*
X192056000Y-150800000D03*
X194596000Y-150800000D03*
X197136000Y-150800000D03*
X199676000Y-150800000D03*
X202216000Y-150800000D03*
X204756000Y-150800000D03*
%TD*%
D18*
%TO.C,R8*%
X168925000Y-127000000D03*
X167100000Y-127000000D03*
%TD*%
D23*
%TO.C,U1*%
X202905000Y-112725000D03*
X201635000Y-112725000D03*
X200365000Y-112725000D03*
X199095000Y-112725000D03*
X199095000Y-107275000D03*
X200365000Y-107275000D03*
X201635000Y-107275000D03*
X202905000Y-107275000D03*
%TD*%
D14*
%TO.C,J6*%
X141256000Y-150800000D03*
D15*
X143796000Y-150800000D03*
X146336000Y-150800000D03*
X148876000Y-150800000D03*
X151416000Y-150800000D03*
X153956000Y-150800000D03*
X156496000Y-150800000D03*
X159036000Y-150800000D03*
%TD*%
D23*
%TO.C,U2*%
X184905000Y-112725000D03*
X183635000Y-112725000D03*
X182365000Y-112725000D03*
X181095000Y-112725000D03*
X181095000Y-107275000D03*
X182365000Y-107275000D03*
X183635000Y-107275000D03*
X184905000Y-107275000D03*
%TD*%
D24*
%TO.C,C1*%
X179360000Y-112862500D03*
X179360000Y-111137500D03*
%TD*%
D18*
%TO.C,R10*%
X158765000Y-127000000D03*
X156940000Y-127000000D03*
%TD*%
D23*
%TO.C,U3*%
X196905000Y-112725000D03*
X195635000Y-112725000D03*
X194365000Y-112725000D03*
X193095000Y-112725000D03*
X193095000Y-107275000D03*
X194365000Y-107275000D03*
X195635000Y-107275000D03*
X196905000Y-107275000D03*
%TD*%
D18*
%TO.C,R5*%
X141595000Y-127000000D03*
X139770000Y-127000000D03*
%TD*%
D20*
%TO.C,C5*%
X189637500Y-116000000D03*
X191362500Y-116000000D03*
%TD*%
D18*
%TO.C,R4*%
X146675000Y-127000000D03*
X144850000Y-127000000D03*
%TD*%
D22*
%TO.C,R12*%
X176816000Y-112912500D03*
X176816000Y-111087500D03*
%TD*%
D14*
%TO.C,J5*%
X154972000Y-102540000D03*
D15*
X152432000Y-102540000D03*
X149892000Y-102540000D03*
X147352000Y-102540000D03*
X144812000Y-102540000D03*
X142272000Y-102540000D03*
X139732000Y-102540000D03*
X137192000Y-102540000D03*
X134652000Y-102540000D03*
X132112000Y-102540000D03*
%TD*%
D23*
%TO.C,U4*%
X190905000Y-112725000D03*
X189635000Y-112725000D03*
X188365000Y-112725000D03*
X187095000Y-112725000D03*
X187095000Y-107275000D03*
X188365000Y-107275000D03*
X189635000Y-107275000D03*
X190905000Y-107275000D03*
%TD*%
D20*
%TO.C,C3*%
X184637500Y-116000000D03*
X186362500Y-116000000D03*
%TD*%
D14*
%TO.C,J7*%
X164116000Y-150800000D03*
D15*
X166656000Y-150800000D03*
X169196000Y-150800000D03*
X171736000Y-150800000D03*
X174276000Y-150800000D03*
X176816000Y-150800000D03*
X179356000Y-150800000D03*
X181896000Y-150800000D03*
%TD*%
D22*
%TO.C,R19*%
X169196000Y-112912500D03*
X169196000Y-111087500D03*
%TD*%
D18*
%TO.C,R6*%
X136515000Y-127000000D03*
X134690000Y-127000000D03*
%TD*%
D14*
%TO.C,J13*%
X181896000Y-102540000D03*
D15*
X184436000Y-102540000D03*
X186976000Y-102540000D03*
X189516000Y-102540000D03*
X192056000Y-102540000D03*
X194596000Y-102540000D03*
X197136000Y-102540000D03*
X199676000Y-102540000D03*
%TD*%
D18*
%TO.C,R11*%
X153685000Y-127000000D03*
X151860000Y-127000000D03*
%TD*%
D22*
%TO.C,R17*%
X171736000Y-112912500D03*
X171736000Y-111087500D03*
%TD*%
%TO.C,R15*%
X166656000Y-112912500D03*
X166656000Y-111087500D03*
%TD*%
D25*
%TO.C,D3*%
X199125000Y-132830000D03*
X200875000Y-132830000D03*
%TD*%
D14*
%TO.C,J8*%
X176816000Y-102540000D03*
D15*
X174276000Y-102540000D03*
X171736000Y-102540000D03*
X169196000Y-102540000D03*
X166656000Y-102540000D03*
X164116000Y-102540000D03*
X161576000Y-102540000D03*
X159036000Y-102540000D03*
%TD*%
M02*
