%TF.GenerationSoftware,KiCad,Pcbnew,8.0.1*%
%TF.CreationDate,2024-10-24T15:31:51+09:00*%
%TF.ProjectId,CoolingBoxWireOrganizer,436f6f6c-696e-4674-926f-78576972654f,rev?*%
%TF.SameCoordinates,Original*%
%TF.FileFunction,Legend,Bot*%
%TF.FilePolarity,Positive*%
%FSLAX46Y46*%
G04 Gerber Fmt 4.6, Leading zero omitted, Abs format (unit mm)*
G04 Created by KiCad (PCBNEW 8.0.1) date 2024-10-24 15:31:51*
%MOMM*%
%LPD*%
G01*
G04 APERTURE LIST*
%ADD10C,0.120000*%
G04 APERTURE END LIST*
D10*
%TO.C,D2*%
X173541000Y-106340000D02*
X173541000Y-108800000D01*
X175011000Y-106340000D02*
X173541000Y-106340000D01*
X175011000Y-108800000D02*
X175011000Y-106340000D01*
%TO.C,D5*%
X199200000Y-135785000D02*
X201660000Y-135785000D01*
X201660000Y-134315000D02*
X199200000Y-134315000D01*
X201660000Y-135785000D02*
X201660000Y-134315000D01*
%TO.C,D6*%
X171001000Y-106340000D02*
X171001000Y-108800000D01*
X172471000Y-106340000D02*
X171001000Y-106340000D01*
X172471000Y-108800000D02*
X172471000Y-106340000D01*
%TO.C,D1*%
X176081000Y-106340000D02*
X176081000Y-108800000D01*
X177551000Y-106340000D02*
X176081000Y-106340000D01*
X177551000Y-108800000D02*
X177551000Y-106340000D01*
%TO.C,R9*%
X162677776Y-126477500D02*
X163187224Y-126477500D01*
X162677776Y-127522500D02*
X163187224Y-127522500D01*
%TO.C,D4*%
X165921000Y-106340000D02*
X165921000Y-108800000D01*
X167391000Y-106340000D02*
X165921000Y-106340000D01*
X167391000Y-108800000D02*
X167391000Y-106340000D01*
%TO.C,R3*%
X194627500Y-130707224D02*
X194627500Y-130197776D01*
X195672500Y-130707224D02*
X195672500Y-130197776D01*
%TO.C,D8*%
X168461000Y-106340000D02*
X168461000Y-108800000D01*
X169931000Y-106340000D02*
X168461000Y-106340000D01*
X169931000Y-108800000D02*
X169931000Y-106340000D01*
%TO.C,C2*%
X201146267Y-115490000D02*
X200853733Y-115490000D01*
X201146267Y-116510000D02*
X200853733Y-116510000D01*
%TO.C,J15*%
X205966000Y-147050000D02*
X205966000Y-103750000D01*
X205966000Y-147050000D02*
X211166000Y-147050000D01*
X206026000Y-101210000D02*
X207356000Y-101210000D01*
X206026000Y-103810000D02*
X208626000Y-103810000D01*
X206086000Y-101210000D02*
X206086000Y-102540000D01*
X208506000Y-101210000D02*
X211106000Y-101210000D01*
X208566000Y-101210000D02*
X208566000Y-103810000D01*
X211166000Y-147050000D02*
X211166000Y-101270000D01*
%TO.C,R20*%
X196237500Y-133805276D02*
X196237500Y-134314724D01*
X197282500Y-133805276D02*
X197282500Y-134314724D01*
%TO.C,R7*%
X130267776Y-126477500D02*
X130777224Y-126477500D01*
X130267776Y-127522500D02*
X130777224Y-127522500D01*
%TO.C,C4*%
X195646267Y-115490000D02*
X195353733Y-115490000D01*
X195646267Y-116510000D02*
X195353733Y-116510000D01*
%TO.C,R13*%
X173753500Y-111745276D02*
X173753500Y-112254724D01*
X174798500Y-111745276D02*
X174798500Y-112254724D01*
%TO.C,J10*%
X185646000Y-149470000D02*
X186976000Y-149470000D01*
X185646000Y-150800000D02*
X185646000Y-149470000D01*
X188246000Y-152130000D02*
X188246000Y-149470000D01*
X206086000Y-149470000D02*
X188246000Y-149470000D01*
X206086000Y-152130000D02*
X188246000Y-152130000D01*
X206086000Y-152130000D02*
X206086000Y-149470000D01*
%TO.C,R8*%
X167757776Y-126477500D02*
X168267224Y-126477500D01*
X167757776Y-127522500D02*
X168267224Y-127522500D01*
%TO.C,U1*%
X198440000Y-108050000D02*
X198440000Y-110000000D01*
X198440000Y-111950000D02*
X198440000Y-110000000D01*
X203560000Y-108050000D02*
X203560000Y-110000000D01*
X203560000Y-111950000D02*
X203560000Y-110000000D01*
X203795000Y-112940000D02*
X203465000Y-112700000D01*
X203795000Y-112460000D01*
X203795000Y-112940000D01*
G36*
X203795000Y-112940000D02*
G01*
X203465000Y-112700000D01*
X203795000Y-112460000D01*
X203795000Y-112940000D01*
G37*
%TO.C,J6*%
X139926000Y-149470000D02*
X141256000Y-149470000D01*
X139926000Y-150800000D02*
X139926000Y-149470000D01*
X142526000Y-152130000D02*
X142526000Y-149470000D01*
X160366000Y-149470000D02*
X142526000Y-149470000D01*
X160366000Y-152130000D02*
X142526000Y-152130000D01*
X160366000Y-152130000D02*
X160366000Y-149470000D01*
%TO.C,U2*%
X180440000Y-108050000D02*
X180440000Y-110000000D01*
X180440000Y-111950000D02*
X180440000Y-110000000D01*
X185560000Y-108050000D02*
X185560000Y-110000000D01*
X185560000Y-111950000D02*
X185560000Y-110000000D01*
X185795000Y-112940000D02*
X185465000Y-112700000D01*
X185795000Y-112460000D01*
X185795000Y-112940000D01*
G36*
X185795000Y-112940000D02*
G01*
X185465000Y-112700000D01*
X185795000Y-112460000D01*
X185795000Y-112940000D01*
G37*
%TO.C,C1*%
X178850000Y-111853733D02*
X178850000Y-112146267D01*
X179870000Y-111853733D02*
X179870000Y-112146267D01*
%TO.C,R10*%
X157597776Y-126477500D02*
X158107224Y-126477500D01*
X157597776Y-127522500D02*
X158107224Y-127522500D01*
%TO.C,U3*%
X192440000Y-108050000D02*
X192440000Y-110000000D01*
X192440000Y-111950000D02*
X192440000Y-110000000D01*
X197560000Y-108050000D02*
X197560000Y-110000000D01*
X197560000Y-111950000D02*
X197560000Y-110000000D01*
X197795000Y-112940000D02*
X197465000Y-112700000D01*
X197795000Y-112460000D01*
X197795000Y-112940000D01*
G36*
X197795000Y-112940000D02*
G01*
X197465000Y-112700000D01*
X197795000Y-112460000D01*
X197795000Y-112940000D01*
G37*
%TO.C,R5*%
X140427776Y-126477500D02*
X140937224Y-126477500D01*
X140427776Y-127522500D02*
X140937224Y-127522500D01*
%TO.C,C5*%
X190646267Y-115490000D02*
X190353733Y-115490000D01*
X190646267Y-116510000D02*
X190353733Y-116510000D01*
%TO.C,R4*%
X145507776Y-126477500D02*
X146017224Y-126477500D01*
X145507776Y-127522500D02*
X146017224Y-127522500D01*
%TO.C,R12*%
X176293500Y-111745276D02*
X176293500Y-112254724D01*
X177338500Y-111745276D02*
X177338500Y-112254724D01*
%TO.C,J5*%
X130782000Y-101210000D02*
X130782000Y-103870000D01*
X130782000Y-101210000D02*
X153702000Y-101210000D01*
X130782000Y-103870000D02*
X153702000Y-103870000D01*
X153702000Y-101210000D02*
X153702000Y-103870000D01*
X156302000Y-102540000D02*
X156302000Y-103870000D01*
X156302000Y-103870000D02*
X154972000Y-103870000D01*
%TO.C,U4*%
X186440000Y-108050000D02*
X186440000Y-110000000D01*
X186440000Y-111950000D02*
X186440000Y-110000000D01*
X191560000Y-108050000D02*
X191560000Y-110000000D01*
X191560000Y-111950000D02*
X191560000Y-110000000D01*
X191795000Y-112940000D02*
X191465000Y-112700000D01*
X191795000Y-112460000D01*
X191795000Y-112940000D01*
G36*
X191795000Y-112940000D02*
G01*
X191465000Y-112700000D01*
X191795000Y-112460000D01*
X191795000Y-112940000D01*
G37*
%TO.C,C3*%
X185646267Y-115490000D02*
X185353733Y-115490000D01*
X185646267Y-116510000D02*
X185353733Y-116510000D01*
%TO.C,J7*%
X162786000Y-149470000D02*
X164116000Y-149470000D01*
X162786000Y-150800000D02*
X162786000Y-149470000D01*
X165386000Y-152130000D02*
X165386000Y-149470000D01*
X183226000Y-149470000D02*
X165386000Y-149470000D01*
X183226000Y-152130000D02*
X165386000Y-152130000D01*
X183226000Y-152130000D02*
X183226000Y-149470000D01*
%TO.C,R19*%
X168673500Y-111745276D02*
X168673500Y-112254724D01*
X169718500Y-111745276D02*
X169718500Y-112254724D01*
%TO.C,R6*%
X135347776Y-126477500D02*
X135857224Y-126477500D01*
X135347776Y-127522500D02*
X135857224Y-127522500D01*
%TO.C,J13*%
X180566000Y-101210000D02*
X181896000Y-101210000D01*
X180566000Y-102540000D02*
X180566000Y-101210000D01*
X183166000Y-103870000D02*
X183166000Y-101210000D01*
X201006000Y-101210000D02*
X183166000Y-101210000D01*
X201006000Y-103870000D02*
X183166000Y-103870000D01*
X201006000Y-103870000D02*
X201006000Y-101210000D01*
%TO.C,R11*%
X152517776Y-126477500D02*
X153027224Y-126477500D01*
X152517776Y-127522500D02*
X153027224Y-127522500D01*
%TO.C,R17*%
X171213500Y-111745276D02*
X171213500Y-112254724D01*
X172258500Y-111745276D02*
X172258500Y-112254724D01*
%TO.C,R15*%
X166133500Y-111745276D02*
X166133500Y-112254724D01*
X167178500Y-111745276D02*
X167178500Y-112254724D01*
%TO.C,D3*%
X198340000Y-132095000D02*
X198340000Y-133565000D01*
X198340000Y-133565000D02*
X200800000Y-133565000D01*
X200800000Y-132095000D02*
X198340000Y-132095000D01*
%TO.C,J8*%
X157706000Y-101210000D02*
X157706000Y-103870000D01*
X157706000Y-101210000D02*
X175546000Y-101210000D01*
X157706000Y-103870000D02*
X175546000Y-103870000D01*
X175546000Y-101210000D02*
X175546000Y-103870000D01*
X178146000Y-102540000D02*
X178146000Y-103870000D01*
X178146000Y-103870000D02*
X176816000Y-103870000D01*
%TD*%
M02*
