M48
; DRILL file {KiCad 8.0.1} date 2024-10-24T15:31:56+0900
; FORMAT={-:-/ absolute / inch / decimal}
; #@! TF.CreationDate,2024-10-24T15:31:56+09:00
; #@! TF.GenerationSoftware,Kicad,Pcbnew,8.0.1
; #@! TF.FileFunction,MixedPlating,1,2
FMAT,2
INCH
; #@! TA.AperFunction,Plated,PTH,ViaDrill
T1C0.0118
; #@! TA.AperFunction,Plated,PTH,ComponentDrill
T2C0.0394
; #@! TA.AperFunction,Plated,PTH,ComponentDrill
T3C0.0413
; #@! TA.AperFunction,NonPlated,NPTH,ComponentDrill
T4C0.0949
%
G90
G05
T1
X4.9591Y-4.1638
X4.9626Y-5.8378
X4.965Y-5.7035
X4.9689Y-3.9858
X5.0248Y-4.8268
X5.0287Y-5.0661
X5.0287Y-5.1752
X5.0295Y-4.2768
X5.0315Y-4.476
X5.0327Y-4.9343
X5.0358Y-5.3264
X5.0358Y-5.5795
X5.0378Y-4.6606
X5.076Y-4.7835
X5.1335Y-4.1197
X5.1374Y-4.6555
X5.1417Y-5.9965
X5.1425Y-4.478
X5.1457Y-4.2717
X5.1504Y-3.9768
X5.1508Y-5.2051
X5.1555Y-4.9217
X5.1563Y-5.7795
X5.1602Y-5.4323
X5.1677Y-5.6362
X5.1925Y-4.7642
X5.2181Y-4.552
X5.2425Y-4.9583
X5.2524Y-4.115
X5.2535Y-4.2728
X5.2539Y-4.9039
X5.2555Y-4.3791
X5.2752Y-5.9122
X5.2957Y-5.6606
X5.2957Y-5.763
X5.2961Y-5.3878
X5.298Y-5.2728
X5.298Y-5.3303
X5.3059Y-4.6823
X5.3429Y-4.952
X5.3465Y-5.5441
X5.3524Y-5.1957
X5.3551Y-4.5756
X5.3559Y-4.8992
X5.3657Y-4.2728
X5.3673Y-4.7398
X5.3677Y-5.2417
X5.3681Y-4.1543
X5.3713Y-4.4461
X5.4067Y-4.9543
X5.4114Y-5.7906
X5.4134Y-5.3504
X5.4134Y-5.4083
X5.415Y-5.6563
X5.4535Y-4.913
X5.4555Y-4.9854
X5.4634Y-4.111
X5.4713Y-5.9949
X5.478Y-5.9193
X5.5272Y-5.7913
X5.5366Y-5.3098
X5.5472Y-4.9303
X5.5972Y-4.713
X5.6134Y-4.1118
X5.6327Y-5.7024
X5.6492Y-5.3976
X5.6492Y-5.5256
X5.6516Y-4.9497
X5.6539Y-5.2035
X5.6555Y-3.9768
X5.7201Y-5.7913
X5.7476Y-5.3142
X5.7555Y-5.2055
X5.8098Y-5.6047
X5.8508Y-5.0972
X5.8575Y-4.7362
X5.8862Y-5.2031
X5.8862Y-5.3087
X5.8862Y-5.3819
X5.8902Y-5.1378
X5.9142Y-6.0043
X5.9165Y-5.5602
X5.9331Y-5.0984
X5.9559Y-5.4969
X6.0043Y-5.3035
X6.0043Y-5.3835
X6.026Y-5.2024
X6.063Y-4.7665
X6.0677Y-5.5626
X6.0787Y-5.4925
X6.1126Y-5.6039
X6.1382Y-5.3772
X6.1591Y-5.3165
X6.1906Y-3.9835
X6.228Y-4.8937
X6.2378Y-5.2039
X6.2756Y-4.1606
X6.2764Y-4.7161
X6.2787Y-4.272
X6.2815Y-4.439
X6.2843Y-4.5291
X6.2945Y-4.9154
X6.3134Y-4.9827
X6.3256Y-5.3106
X6.3323Y-5.2024
X6.3409Y-4.9417
X6.3421Y-5.374
X6.3551Y-5.9083
X6.3567Y-4.3929
X6.3622Y-5.9933
X6.3634Y-4.6571
X6.3638Y-5.2685
X6.4039Y-4.1598
X6.4051Y-5.089
X6.4181Y-4.9543
X6.4193Y-4.2713
X6.4291Y-4.9031
X6.4366Y-4.1984
X6.4571Y-4.1504
X6.4661Y-4.2323
X6.4693Y-4.7189
X6.4815Y-5.3736
X6.5031Y-5.3146
X6.5063Y-4.2752
X6.5075Y-4.3937
X6.5138Y-4.0913
X6.5169Y-4.1598
X6.5173Y-4.9681
X6.5295Y-4.9154
X6.6122Y-3.9803
X6.6177Y-4.911
X6.6193Y-4.948
X6.628Y-5.2425
X6.6339Y-4.1488
X6.6807Y-5.3083
X6.689Y-4.9169
X6.7004Y-5.3736
X6.7122Y-5.0146
X6.7217Y-4.1724
X6.7772Y-5.1878
X6.7988Y-4.7626
X6.8083Y-4.2783
X6.8114Y-5.9933
X6.8118Y-4.9839
X6.8406Y-5.376
X6.8469Y-5.3169
X6.8571Y-5.0173
X6.862Y-4.9654
X6.887Y-4.1244
X6.8929Y-5.0091
X6.8961Y-4.761
X6.9039Y-5.3783
X6.9091Y-4.2906
X6.9134Y-5.4878
X6.9236Y-5.2094
X6.928Y-5.2752
X6.9386Y-4.6776
X6.963Y-5.0047
X6.9752Y-4.5823
X6.9846Y-4.761
X7.0091Y-4.3236
X7.0539Y-4.0965
X7.0583Y-5.4953
X7.0591Y-5.015
X7.0602Y-3.9803
X7.0697Y-4.9402
X7.0894Y-5.5555
X7.1016Y-4.3224
X7.1016Y-4.7661
X7.1335Y-5.6657
X7.15Y-4.1476
X7.1512Y-4.5839
X7.1555Y-5.7866
X7.1575Y-5.5555
X7.1583Y-5.0087
X7.1831Y-4.674
X7.1949Y-5.3213
X7.198Y-5.2504
X7.2063Y-4.6055
X7.2079Y-5.3768
X7.2157Y-4.7657
X7.2177Y-5.4953
X7.2343Y-5.6657
X7.2547Y-4.9421
X7.2598Y-5.9929
X7.2602Y-5.9189
X7.2638Y-5.55
X7.2697Y-4.6953
X7.2768Y-4.1476
X7.2972Y-5.0492
X7.3016Y-5.7224
X7.302Y-5.5185
X7.3035Y-5.7846
X7.3043Y-5.3709
X7.313Y-5.6303
X7.339Y-4.6945
X7.3535Y-5.4992
X7.3539Y-4.7685
X7.3961Y-4.5445
X7.3988Y-4.9075
X7.4024Y-5.6992
X7.4051Y-4.6768
X7.4059Y-4.7472
X7.4098Y-5.3654
X7.4114Y-5.2201
X7.4134Y-5.5685
X7.4165Y-5.0146
X7.4665Y-4.6945
X7.474Y-5.4992
X7.4787Y-5.6516
X7.5185Y-3.9768
X7.5197Y-5.6732
X7.5343Y-4.6921
X7.5492Y-5.0665
X7.5587Y-5.6256
X7.5713Y-5.2465
X7.5732Y-5.3669
X7.6228Y-4.1287
X7.6638Y-4.6929
X7.7134Y-5.9976
X7.7323Y-4.6913
X7.7382Y-4.8811
X7.7417Y-4.8425
X7.8114Y-4.8339
X7.8736Y-4.1591
X7.874Y-5.8764
X7.8744Y-4.8425
X7.878Y-4.689
X7.9201Y-3.9803
X7.9295Y-5.3732
X7.9323Y-5.8736
X7.9472Y-4.6902
X7.9547Y-4.8409
X7.9638Y-4.952
X7.9661Y-5.2343
X7.9685Y-5.5252
X7.9705Y-5.6366
X7.976Y-5.7835
X7.9835Y-4.139
X8.0134Y-5.8776
X8.0173Y-5.0516
X8.0213Y-5.485
X8.0217Y-5.2787
X8.0232Y-5.148
X8.024Y-4.9858
X8.0283Y-4.2815
X8.0606Y-5.4051
X8.0654Y-5.4953
X8.0823Y-5.5941
X8.0902Y-5.7929
X8.098Y-5.6874
X8.1008Y-3.9772
X8.1469Y-5.8858
X8.1496Y-5.9878
X8.3244Y-4.287
X8.3256Y-4.4866
X8.3543Y-5.8697
X8.4055Y-4.6063
X8.4114Y-5.0161
X8.4142Y-4.7358
X8.4142Y-4.8717
X8.415Y-5.1598
X8.415Y-5.7748
X8.4157Y-5.6362
X8.4165Y-5.472
X8.4181Y-5.3059
T2
X5.2013Y-4.037
X5.3013Y-4.037
X5.4013Y-4.037
X5.5013Y-4.037
X5.5613Y-5.937
X5.6013Y-4.037
X5.6613Y-5.937
X5.7013Y-4.037
X5.7613Y-5.937
X5.8013Y-4.037
X5.8613Y-5.937
X5.9013Y-4.037
X5.9613Y-5.937
X6.0013Y-4.037
X6.0613Y-5.937
X6.1013Y-4.037
X6.1613Y-5.937
X6.2613Y-4.037
X6.2613Y-5.937
X6.3613Y-4.037
X6.4613Y-4.037
X6.4613Y-5.937
X6.5613Y-4.037
X6.5613Y-5.937
X6.6613Y-4.037
X6.6613Y-5.937
X6.7613Y-4.037
X6.7613Y-5.937
X6.8613Y-4.037
X6.8613Y-5.937
X6.9613Y-4.037
X6.9613Y-5.937
X7.0613Y-5.937
X7.1613Y-4.037
X7.1613Y-5.937
X7.2613Y-4.037
X7.3613Y-4.037
X7.3613Y-5.937
X7.4613Y-4.037
X7.4613Y-5.937
X7.5613Y-4.037
X7.5613Y-5.937
X7.6613Y-4.037
X7.6613Y-5.937
X7.7613Y-4.037
X7.7613Y-5.937
X7.8134Y-4.9
X7.8134Y-5.0
X7.8134Y-5.1
X7.8613Y-4.037
X7.8613Y-5.937
X7.9134Y-4.9
X7.9134Y-5.0
X7.9134Y-5.1
X7.9613Y-5.937
X8.0613Y-5.937
X8.1613Y-4.037
X8.1613Y-4.137
X8.1613Y-4.237
X8.1613Y-4.337
X8.1613Y-4.437
X8.1613Y-4.537
X8.1613Y-4.637
X8.1613Y-4.737
X8.1613Y-4.837
X8.1613Y-4.937
X8.1613Y-5.037
X8.1613Y-5.137
X8.1613Y-5.237
X8.1613Y-5.337
X8.1613Y-5.437
X8.1613Y-5.537
X8.1613Y-5.637
X8.1613Y-5.737
X8.2613Y-4.037
X8.2613Y-4.137
X8.2613Y-4.237
X8.2613Y-4.337
X8.2613Y-4.437
X8.2613Y-4.537
X8.2613Y-4.637
X8.2613Y-4.737
X8.2613Y-4.837
X8.2613Y-4.937
X8.2613Y-5.037
X8.2613Y-5.137
X8.2613Y-5.237
X8.2613Y-5.337
X8.2613Y-5.437
X8.2613Y-5.537
X8.2613Y-5.637
X8.2613Y-5.737
T3
X5.1028Y-4.85
X5.1028Y-5.15
X5.2028Y-4.85
X5.2028Y-5.15
X5.3028Y-4.85
X5.3028Y-5.15
X5.4028Y-4.85
X5.4028Y-5.15
X5.5028Y-4.85
X5.5028Y-5.15
X5.6028Y-4.85
X5.6028Y-5.15
X5.7028Y-4.85
X5.7028Y-5.15
X5.8028Y-4.85
X5.8028Y-5.15
X5.9787Y-4.85
X5.9787Y-5.15
X6.0787Y-4.85
X6.0787Y-5.15
X6.1787Y-4.85
X6.1787Y-5.15
X6.2787Y-4.85
X6.2787Y-5.15
X6.3787Y-4.85
X6.3787Y-5.15
X6.4787Y-4.85
X6.4787Y-5.15
X6.5787Y-4.85
X6.5787Y-5.15
X6.6787Y-4.85
X6.6787Y-5.15
X6.8547Y-4.85
X6.8547Y-5.15
X6.9547Y-4.85
X6.9547Y-5.15
X7.0547Y-4.85
X7.0547Y-5.15
X7.1547Y-4.85
X7.1547Y-5.15
X7.2547Y-4.85
X7.2547Y-5.15
X7.3547Y-4.85
X7.3547Y-5.15
X7.4547Y-4.85
X7.4547Y-5.15
X7.5547Y-4.85
X7.5547Y-5.15
T4
X5.1516Y-5.5315
X5.5571Y-5.5315
X5.7421Y-5.5315
X6.1476Y-5.5315
X6.3327Y-5.5315
X6.502Y-5.5315
X6.687Y-5.5315
X6.8563Y-5.5315
M30
