M48
; DRILL file {KiCad 8.0.1} date 2024-06-20T14:59:37+0900
; FORMAT={-:-/ absolute / inch / decimal}
; #@! TF.CreationDate,2024-06-20T14:59:37+09:00
; #@! TF.GenerationSoftware,Kicad,Pcbnew,8.0.1
; #@! TF.FileFunction,Plated,1,2,PTH
FMAT,2
INCH
; #@! TA.AperFunction,Plated,PTH,ViaDrill
T1C0.0118
; #@! TA.AperFunction,Plated,PTH,ComponentDrill
T2C0.0394
; #@! TA.AperFunction,Plated,PTH,ComponentDrill
T3C0.0551
%
G90
G05
T1
X5.0Y-4.3307
X5.0Y-5.1185
X5.0Y-5.5118
X5.0004Y-4.7244
X5.1417Y-5.9965
X5.1504Y-3.9768
X5.2953Y-5.4472
X5.2972Y-5.2264
X5.3189Y-5.8492
X5.4118Y-4.1382
X5.435Y-4.3283
X5.4713Y-5.9949
X5.5039Y-4.2165
X5.5039Y-5.0866
X5.5354Y-4.2165
X5.5354Y-5.0866
X5.5705Y-4.3264
X5.6094Y-4.1799
X5.6457Y-5.0693
X5.6555Y-3.9768
X5.6929Y-4.5406
X5.7382Y-5.7382
X5.8106Y-4.7961
X5.9142Y-6.0043
X6.0272Y-5.2626
X6.0543Y-5.0602
X6.0665Y-4.3362
X6.0665Y-5.4594
X6.0701Y-4.5402
X6.1346Y-5.8433
X6.163Y-4.7764
X6.1835Y-4.1197
X6.1906Y-3.9835
X6.2118Y-5.4488
X6.2146Y-4.328
X6.2146Y-4.4965
X6.2323Y-5.6504
X6.2579Y-5.1551
X6.2819Y-5.1799
X6.3043Y-5.2063
X6.3622Y-5.9933
X6.3744Y-5.0673
X6.3831Y-4.3323
X6.3831Y-4.4701
X6.4197Y-5.0098
X6.4457Y-5.0476
X6.4724Y-5.0894
X6.5098Y-4.6031
X6.5429Y-4.3323
X6.5953Y-5.676
X6.6122Y-3.9803
X6.6362Y-4.8102
X6.6772Y-5.0933
X6.8087Y-4.1965
X6.8114Y-5.9933
X6.8937Y-4.4343
X6.9228Y-4.7291
X6.9835Y-5.5134
X7.0602Y-3.9803
X7.0713Y-4.4748
X7.1134Y-4.4728
X7.1445Y-4.4161
X7.1622Y-4.1465
X7.2047Y-5.0894
X7.2598Y-5.9929
X7.3051Y-4.0969
X7.4374Y-4.828
X7.5185Y-3.9768
X7.5394Y-5.3441
X7.6394Y-5.6949
X7.6669Y-5.0654
X7.7091Y-4.0941
X7.7134Y-5.9976
X7.8972Y-4.5402
X7.9201Y-3.9803
X7.976Y-5.7508
X8.052Y-5.0661
X8.0657Y-5.3591
X8.1008Y-3.9772
X8.1567Y-5.998
X8.3244Y-4.287
X8.3256Y-4.4866
X8.3543Y-5.8697
X8.4055Y-4.6063
X8.4055Y-5.0
X8.4055Y-5.3937
X8.4055Y-5.748
T2
X5.2013Y-4.037
X5.3013Y-4.037
X5.4013Y-4.037
X5.5013Y-4.037
X5.5613Y-5.937
X5.6013Y-4.037
X5.6613Y-5.937
X5.7013Y-4.037
X5.7613Y-5.937
X5.8013Y-4.037
X5.8613Y-5.937
X5.9013Y-4.037
X5.9613Y-5.937
X6.0013Y-4.037
X6.0613Y-5.937
X6.1013Y-4.037
X6.1613Y-5.937
X6.2613Y-4.037
X6.2613Y-5.937
X6.3613Y-4.037
X6.4613Y-4.037
X6.4613Y-5.937
X6.5613Y-4.037
X6.5613Y-5.937
X6.6613Y-4.037
X6.6613Y-5.937
X6.7613Y-4.037
X6.7613Y-5.937
X6.8613Y-4.037
X6.8613Y-5.937
X6.9613Y-4.037
X6.9613Y-5.937
X7.0613Y-5.937
X7.1613Y-4.037
X7.1613Y-5.937
X7.2613Y-4.037
X7.3613Y-4.037
X7.3613Y-5.937
X7.4613Y-4.037
X7.4613Y-5.937
X7.5613Y-4.037
X7.5613Y-5.937
X7.6613Y-4.037
X7.6613Y-5.937
X7.7613Y-4.037
X7.7613Y-5.937
X7.8613Y-4.037
X7.8613Y-5.937
X7.9613Y-5.937
X8.0613Y-5.937
X8.1613Y-4.037
X8.1613Y-4.137
X8.1613Y-4.237
X8.1613Y-4.337
X8.1613Y-4.437
X8.1613Y-4.537
X8.1613Y-4.637
X8.1613Y-4.737
X8.1613Y-4.837
X8.1613Y-4.937
X8.1613Y-5.037
X8.1613Y-5.137
X8.1613Y-5.237
X8.1613Y-5.337
X8.1613Y-5.437
X8.1613Y-5.537
X8.1613Y-5.637
X8.1613Y-5.737
X8.2613Y-4.037
X8.2613Y-4.137
X8.2613Y-4.237
X8.2613Y-4.337
X8.2613Y-4.437
X8.2613Y-4.537
X8.2613Y-4.637
X8.2613Y-4.737
X8.2613Y-4.837
X8.2613Y-4.937
X8.2613Y-5.037
X8.2613Y-5.137
X8.2613Y-5.237
X8.2613Y-5.337
X8.2613Y-5.437
X8.2613Y-5.537
X8.2613Y-5.637
X8.2613Y-5.737
T3
X5.2013Y-4.4307
X5.2013Y-4.6472
X5.2013Y-5.3268
X5.2013Y-5.5433
X5.3666Y-4.4307
X5.3666Y-4.6472
X5.5005Y-5.3268
X5.5005Y-5.5433
X5.6658Y-4.4307
X5.6658Y-4.6472
X5.6658Y-5.3268
X5.6658Y-5.5433
X5.8312Y-4.4307
X5.8312Y-4.6472
X5.8312Y-5.3268
X5.8312Y-5.5433
X6.1304Y-4.4307
X6.1304Y-4.6472
X6.1304Y-5.3268
X6.1304Y-5.5433
X6.2957Y-4.4307
X6.2957Y-4.6472
X6.2957Y-5.3268
X6.2957Y-5.5433
X6.595Y-4.4307
X6.595Y-4.6472
X6.595Y-5.3268
X6.595Y-5.5433
X6.7603Y-4.4307
X6.7603Y-4.6472
X7.2618Y-4.4307
X7.2618Y-4.6472
X7.2618Y-5.3268
X7.2618Y-5.5433
X7.4272Y-4.4307
X7.4272Y-4.6472
X7.4272Y-5.3268
X7.4272Y-5.5433
X7.7264Y-4.4307
X7.7264Y-4.6472
X7.7264Y-5.3268
X7.7264Y-5.5433
X7.8917Y-4.4307
X7.8917Y-4.6472
X7.8917Y-5.3268
X7.8917Y-5.5433
M30
