%TF.GenerationSoftware,KiCad,Pcbnew,8.0.1*%
%TF.CreationDate,2024-06-20T14:59:11+09:00*%
%TF.ProjectId,CoolingBoxWireOrganizer,436f6f6c-696e-4674-926f-78576972654f,rev?*%
%TF.SameCoordinates,Original*%
%TF.FileFunction,Legend,Bot*%
%TF.FilePolarity,Positive*%
%FSLAX46Y46*%
G04 Gerber Fmt 4.6, Leading zero omitted, Abs format (unit mm)*
G04 Created by KiCad (PCBNEW 8.0.1) date 2024-06-20 14:59:11*
%MOMM*%
%LPD*%
G01*
G04 APERTURE LIST*
%ADD10C,0.250000*%
%ADD11C,0.120000*%
G04 APERTURE END LIST*
D10*
X261681487Y-135242669D02*
X260181487Y-135004574D01*
X260181487Y-135004574D02*
X261252916Y-134814098D01*
X261252916Y-134814098D02*
X260181487Y-134623622D01*
X260181487Y-134623622D02*
X261681487Y-134385527D01*
X260181487Y-134004574D02*
X261181487Y-134004574D01*
X261681487Y-134004574D02*
X261610058Y-134052193D01*
X261610058Y-134052193D02*
X261538630Y-134004574D01*
X261538630Y-134004574D02*
X261610058Y-133956955D01*
X261610058Y-133956955D02*
X261681487Y-134004574D01*
X261681487Y-134004574D02*
X261538630Y-134004574D01*
X260181487Y-133528384D02*
X261181487Y-133528384D01*
X260895773Y-133528384D02*
X261038630Y-133480765D01*
X261038630Y-133480765D02*
X261110058Y-133433146D01*
X261110058Y-133433146D02*
X261181487Y-133337908D01*
X261181487Y-133337908D02*
X261181487Y-133242670D01*
X260252916Y-132528384D02*
X260181487Y-132623622D01*
X260181487Y-132623622D02*
X260181487Y-132814098D01*
X260181487Y-132814098D02*
X260252916Y-132909336D01*
X260252916Y-132909336D02*
X260395773Y-132956955D01*
X260395773Y-132956955D02*
X260967201Y-132956955D01*
X260967201Y-132956955D02*
X261110058Y-132909336D01*
X261110058Y-132909336D02*
X261181487Y-132814098D01*
X261181487Y-132814098D02*
X261181487Y-132623622D01*
X261181487Y-132623622D02*
X261110058Y-132528384D01*
X261110058Y-132528384D02*
X260967201Y-132480765D01*
X260967201Y-132480765D02*
X260824344Y-132480765D01*
X260824344Y-132480765D02*
X260681487Y-132956955D01*
X261681487Y-131099812D02*
X261681487Y-130909336D01*
X261681487Y-130909336D02*
X261610058Y-130814098D01*
X261610058Y-130814098D02*
X261467201Y-130718860D01*
X261467201Y-130718860D02*
X261181487Y-130671241D01*
X261181487Y-130671241D02*
X260681487Y-130671241D01*
X260681487Y-130671241D02*
X260395773Y-130718860D01*
X260395773Y-130718860D02*
X260252916Y-130814098D01*
X260252916Y-130814098D02*
X260181487Y-130909336D01*
X260181487Y-130909336D02*
X260181487Y-131099812D01*
X260181487Y-131099812D02*
X260252916Y-131195050D01*
X260252916Y-131195050D02*
X260395773Y-131290288D01*
X260395773Y-131290288D02*
X260681487Y-131337907D01*
X260681487Y-131337907D02*
X261181487Y-131337907D01*
X261181487Y-131337907D02*
X261467201Y-131290288D01*
X261467201Y-131290288D02*
X261610058Y-131195050D01*
X261610058Y-131195050D02*
X261681487Y-131099812D01*
X260181487Y-130242669D02*
X261181487Y-130242669D01*
X260895773Y-130242669D02*
X261038630Y-130195050D01*
X261038630Y-130195050D02*
X261110058Y-130147431D01*
X261110058Y-130147431D02*
X261181487Y-130052193D01*
X261181487Y-130052193D02*
X261181487Y-129956955D01*
X261181487Y-129195050D02*
X259967201Y-129195050D01*
X259967201Y-129195050D02*
X259824344Y-129242669D01*
X259824344Y-129242669D02*
X259752916Y-129290288D01*
X259752916Y-129290288D02*
X259681487Y-129385526D01*
X259681487Y-129385526D02*
X259681487Y-129528383D01*
X259681487Y-129528383D02*
X259752916Y-129623621D01*
X260252916Y-129195050D02*
X260181487Y-129290288D01*
X260181487Y-129290288D02*
X260181487Y-129480764D01*
X260181487Y-129480764D02*
X260252916Y-129576002D01*
X260252916Y-129576002D02*
X260324344Y-129623621D01*
X260324344Y-129623621D02*
X260467201Y-129671240D01*
X260467201Y-129671240D02*
X260895773Y-129671240D01*
X260895773Y-129671240D02*
X261038630Y-129623621D01*
X261038630Y-129623621D02*
X261110058Y-129576002D01*
X261110058Y-129576002D02*
X261181487Y-129480764D01*
X261181487Y-129480764D02*
X261181487Y-129290288D01*
X261181487Y-129290288D02*
X261110058Y-129195050D01*
X260181487Y-128290288D02*
X260967201Y-128290288D01*
X260967201Y-128290288D02*
X261110058Y-128337907D01*
X261110058Y-128337907D02*
X261181487Y-128433145D01*
X261181487Y-128433145D02*
X261181487Y-128623621D01*
X261181487Y-128623621D02*
X261110058Y-128718859D01*
X260252916Y-128290288D02*
X260181487Y-128385526D01*
X260181487Y-128385526D02*
X260181487Y-128623621D01*
X260181487Y-128623621D02*
X260252916Y-128718859D01*
X260252916Y-128718859D02*
X260395773Y-128766478D01*
X260395773Y-128766478D02*
X260538630Y-128766478D01*
X260538630Y-128766478D02*
X260681487Y-128718859D01*
X260681487Y-128718859D02*
X260752916Y-128623621D01*
X260752916Y-128623621D02*
X260752916Y-128385526D01*
X260752916Y-128385526D02*
X260824344Y-128290288D01*
X261181487Y-127814097D02*
X260181487Y-127814097D01*
X261038630Y-127814097D02*
X261110058Y-127766478D01*
X261110058Y-127766478D02*
X261181487Y-127671240D01*
X261181487Y-127671240D02*
X261181487Y-127528383D01*
X261181487Y-127528383D02*
X261110058Y-127433145D01*
X261110058Y-127433145D02*
X260967201Y-127385526D01*
X260967201Y-127385526D02*
X260181487Y-127385526D01*
X260181487Y-126909335D02*
X261181487Y-126909335D01*
X261681487Y-126909335D02*
X261610058Y-126956954D01*
X261610058Y-126956954D02*
X261538630Y-126909335D01*
X261538630Y-126909335D02*
X261610058Y-126861716D01*
X261610058Y-126861716D02*
X261681487Y-126909335D01*
X261681487Y-126909335D02*
X261538630Y-126909335D01*
X261181487Y-126528383D02*
X261181487Y-126004574D01*
X261181487Y-126004574D02*
X260181487Y-126528383D01*
X260181487Y-126528383D02*
X260181487Y-126004574D01*
X260181487Y-125623621D02*
X261181487Y-125623621D01*
X261681487Y-125623621D02*
X261610058Y-125671240D01*
X261610058Y-125671240D02*
X261538630Y-125623621D01*
X261538630Y-125623621D02*
X261610058Y-125576002D01*
X261610058Y-125576002D02*
X261681487Y-125623621D01*
X261681487Y-125623621D02*
X261538630Y-125623621D01*
X261181487Y-125147431D02*
X260181487Y-125147431D01*
X261038630Y-125147431D02*
X261110058Y-125099812D01*
X261110058Y-125099812D02*
X261181487Y-125004574D01*
X261181487Y-125004574D02*
X261181487Y-124861717D01*
X261181487Y-124861717D02*
X261110058Y-124766479D01*
X261110058Y-124766479D02*
X260967201Y-124718860D01*
X260967201Y-124718860D02*
X260181487Y-124718860D01*
X261181487Y-123814098D02*
X259967201Y-123814098D01*
X259967201Y-123814098D02*
X259824344Y-123861717D01*
X259824344Y-123861717D02*
X259752916Y-123909336D01*
X259752916Y-123909336D02*
X259681487Y-124004574D01*
X259681487Y-124004574D02*
X259681487Y-124147431D01*
X259681487Y-124147431D02*
X259752916Y-124242669D01*
X260252916Y-123814098D02*
X260181487Y-123909336D01*
X260181487Y-123909336D02*
X260181487Y-124099812D01*
X260181487Y-124099812D02*
X260252916Y-124195050D01*
X260252916Y-124195050D02*
X260324344Y-124242669D01*
X260324344Y-124242669D02*
X260467201Y-124290288D01*
X260467201Y-124290288D02*
X260895773Y-124290288D01*
X260895773Y-124290288D02*
X261038630Y-124242669D01*
X261038630Y-124242669D02*
X261110058Y-124195050D01*
X261110058Y-124195050D02*
X261181487Y-124099812D01*
X261181487Y-124099812D02*
X261181487Y-123909336D01*
X261181487Y-123909336D02*
X261110058Y-123814098D01*
X260967201Y-122242669D02*
X260895773Y-122099812D01*
X260895773Y-122099812D02*
X260824344Y-122052193D01*
X260824344Y-122052193D02*
X260681487Y-122004574D01*
X260681487Y-122004574D02*
X260467201Y-122004574D01*
X260467201Y-122004574D02*
X260324344Y-122052193D01*
X260324344Y-122052193D02*
X260252916Y-122099812D01*
X260252916Y-122099812D02*
X260181487Y-122195050D01*
X260181487Y-122195050D02*
X260181487Y-122576002D01*
X260181487Y-122576002D02*
X261681487Y-122576002D01*
X261681487Y-122576002D02*
X261681487Y-122242669D01*
X261681487Y-122242669D02*
X261610058Y-122147431D01*
X261610058Y-122147431D02*
X261538630Y-122099812D01*
X261538630Y-122099812D02*
X261395773Y-122052193D01*
X261395773Y-122052193D02*
X261252916Y-122052193D01*
X261252916Y-122052193D02*
X261110058Y-122099812D01*
X261110058Y-122099812D02*
X261038630Y-122147431D01*
X261038630Y-122147431D02*
X260967201Y-122242669D01*
X260967201Y-122242669D02*
X260967201Y-122576002D01*
X260181487Y-121433145D02*
X260252916Y-121528383D01*
X260252916Y-121528383D02*
X260324344Y-121576002D01*
X260324344Y-121576002D02*
X260467201Y-121623621D01*
X260467201Y-121623621D02*
X260895773Y-121623621D01*
X260895773Y-121623621D02*
X261038630Y-121576002D01*
X261038630Y-121576002D02*
X261110058Y-121528383D01*
X261110058Y-121528383D02*
X261181487Y-121433145D01*
X261181487Y-121433145D02*
X261181487Y-121290288D01*
X261181487Y-121290288D02*
X261110058Y-121195050D01*
X261110058Y-121195050D02*
X261038630Y-121147431D01*
X261038630Y-121147431D02*
X260895773Y-121099812D01*
X260895773Y-121099812D02*
X260467201Y-121099812D01*
X260467201Y-121099812D02*
X260324344Y-121147431D01*
X260324344Y-121147431D02*
X260252916Y-121195050D01*
X260252916Y-121195050D02*
X260181487Y-121290288D01*
X260181487Y-121290288D02*
X260181487Y-121433145D01*
X260181487Y-120242669D02*
X260967201Y-120242669D01*
X260967201Y-120242669D02*
X261110058Y-120290288D01*
X261110058Y-120290288D02*
X261181487Y-120385526D01*
X261181487Y-120385526D02*
X261181487Y-120576002D01*
X261181487Y-120576002D02*
X261110058Y-120671240D01*
X260252916Y-120242669D02*
X260181487Y-120337907D01*
X260181487Y-120337907D02*
X260181487Y-120576002D01*
X260181487Y-120576002D02*
X260252916Y-120671240D01*
X260252916Y-120671240D02*
X260395773Y-120718859D01*
X260395773Y-120718859D02*
X260538630Y-120718859D01*
X260538630Y-120718859D02*
X260681487Y-120671240D01*
X260681487Y-120671240D02*
X260752916Y-120576002D01*
X260752916Y-120576002D02*
X260752916Y-120337907D01*
X260752916Y-120337907D02*
X260824344Y-120242669D01*
X260181487Y-119766478D02*
X261181487Y-119766478D01*
X260895773Y-119766478D02*
X261038630Y-119718859D01*
X261038630Y-119718859D02*
X261110058Y-119671240D01*
X261110058Y-119671240D02*
X261181487Y-119576002D01*
X261181487Y-119576002D02*
X261181487Y-119480764D01*
X260181487Y-118718859D02*
X261681487Y-118718859D01*
X260252916Y-118718859D02*
X260181487Y-118814097D01*
X260181487Y-118814097D02*
X260181487Y-119004573D01*
X260181487Y-119004573D02*
X260252916Y-119099811D01*
X260252916Y-119099811D02*
X260324344Y-119147430D01*
X260324344Y-119147430D02*
X260467201Y-119195049D01*
X260467201Y-119195049D02*
X260895773Y-119195049D01*
X260895773Y-119195049D02*
X261038630Y-119147430D01*
X261038630Y-119147430D02*
X261110058Y-119099811D01*
X261110058Y-119099811D02*
X261181487Y-119004573D01*
X261181487Y-119004573D02*
X261181487Y-118814097D01*
X261181487Y-118814097D02*
X261110058Y-118718859D01*
X261181487Y-117576001D02*
X260181487Y-117337906D01*
X260181487Y-117337906D02*
X261181487Y-117099811D01*
X260252916Y-116337906D02*
X260181487Y-116433144D01*
X260181487Y-116433144D02*
X260181487Y-116623620D01*
X260181487Y-116623620D02*
X260252916Y-116718858D01*
X260252916Y-116718858D02*
X260395773Y-116766477D01*
X260395773Y-116766477D02*
X260967201Y-116766477D01*
X260967201Y-116766477D02*
X261110058Y-116718858D01*
X261110058Y-116718858D02*
X261181487Y-116623620D01*
X261181487Y-116623620D02*
X261181487Y-116433144D01*
X261181487Y-116433144D02*
X261110058Y-116337906D01*
X261110058Y-116337906D02*
X260967201Y-116290287D01*
X260967201Y-116290287D02*
X260824344Y-116290287D01*
X260824344Y-116290287D02*
X260681487Y-116766477D01*
X260181487Y-115861715D02*
X261181487Y-115861715D01*
X260895773Y-115861715D02*
X261038630Y-115814096D01*
X261038630Y-115814096D02*
X261110058Y-115766477D01*
X261110058Y-115766477D02*
X261181487Y-115671239D01*
X261181487Y-115671239D02*
X261181487Y-115576001D01*
X260324344Y-115242667D02*
X260252916Y-115195048D01*
X260252916Y-115195048D02*
X260181487Y-115242667D01*
X260181487Y-115242667D02*
X260252916Y-115290286D01*
X260252916Y-115290286D02*
X260324344Y-115242667D01*
X260324344Y-115242667D02*
X260181487Y-115242667D01*
X260181487Y-114242668D02*
X260181487Y-114814096D01*
X260181487Y-114528382D02*
X261681487Y-114528382D01*
X261681487Y-114528382D02*
X261467201Y-114623620D01*
X261467201Y-114623620D02*
X261324344Y-114718858D01*
X261324344Y-114718858D02*
X261252916Y-114814096D01*
X260324344Y-113814096D02*
X260252916Y-113766477D01*
X260252916Y-113766477D02*
X260181487Y-113814096D01*
X260181487Y-113814096D02*
X260252916Y-113861715D01*
X260252916Y-113861715D02*
X260324344Y-113814096D01*
X260324344Y-113814096D02*
X260181487Y-113814096D01*
X260181487Y-112814097D02*
X260181487Y-113385525D01*
X260181487Y-113099811D02*
X261681487Y-113099811D01*
X261681487Y-113099811D02*
X261467201Y-113195049D01*
X261467201Y-113195049D02*
X261324344Y-113290287D01*
X261324344Y-113290287D02*
X261252916Y-113385525D01*
X259266571Y-134956955D02*
X259266571Y-134766479D01*
X259266571Y-134766479D02*
X259195142Y-134671241D01*
X259195142Y-134671241D02*
X259052285Y-134576003D01*
X259052285Y-134576003D02*
X258766571Y-134528384D01*
X258766571Y-134528384D02*
X258266571Y-134528384D01*
X258266571Y-134528384D02*
X257980857Y-134576003D01*
X257980857Y-134576003D02*
X257838000Y-134671241D01*
X257838000Y-134671241D02*
X257766571Y-134766479D01*
X257766571Y-134766479D02*
X257766571Y-134956955D01*
X257766571Y-134956955D02*
X257838000Y-135052193D01*
X257838000Y-135052193D02*
X257980857Y-135147431D01*
X257980857Y-135147431D02*
X258266571Y-135195050D01*
X258266571Y-135195050D02*
X258766571Y-135195050D01*
X258766571Y-135195050D02*
X259052285Y-135147431D01*
X259052285Y-135147431D02*
X259195142Y-135052193D01*
X259195142Y-135052193D02*
X259266571Y-134956955D01*
X257838000Y-134147431D02*
X257766571Y-134052193D01*
X257766571Y-134052193D02*
X257766571Y-133861717D01*
X257766571Y-133861717D02*
X257838000Y-133766479D01*
X257838000Y-133766479D02*
X257980857Y-133718860D01*
X257980857Y-133718860D02*
X258052285Y-133718860D01*
X258052285Y-133718860D02*
X258195142Y-133766479D01*
X258195142Y-133766479D02*
X258266571Y-133861717D01*
X258266571Y-133861717D02*
X258266571Y-134004574D01*
X258266571Y-134004574D02*
X258338000Y-134099812D01*
X258338000Y-134099812D02*
X258480857Y-134147431D01*
X258480857Y-134147431D02*
X258552285Y-134147431D01*
X258552285Y-134147431D02*
X258695142Y-134099812D01*
X258695142Y-134099812D02*
X258766571Y-134004574D01*
X258766571Y-134004574D02*
X258766571Y-133861717D01*
X258766571Y-133861717D02*
X258695142Y-133766479D01*
X257766571Y-132861717D02*
X258552285Y-132861717D01*
X258552285Y-132861717D02*
X258695142Y-132909336D01*
X258695142Y-132909336D02*
X258766571Y-133004574D01*
X258766571Y-133004574D02*
X258766571Y-133195050D01*
X258766571Y-133195050D02*
X258695142Y-133290288D01*
X257838000Y-132861717D02*
X257766571Y-132956955D01*
X257766571Y-132956955D02*
X257766571Y-133195050D01*
X257766571Y-133195050D02*
X257838000Y-133290288D01*
X257838000Y-133290288D02*
X257980857Y-133337907D01*
X257980857Y-133337907D02*
X258123714Y-133337907D01*
X258123714Y-133337907D02*
X258266571Y-133290288D01*
X258266571Y-133290288D02*
X258338000Y-133195050D01*
X258338000Y-133195050D02*
X258338000Y-132956955D01*
X258338000Y-132956955D02*
X258409428Y-132861717D01*
X257766571Y-132385526D02*
X259266571Y-132385526D01*
X258338000Y-132290288D02*
X257766571Y-132004574D01*
X258766571Y-132004574D02*
X258195142Y-132385526D01*
X257766571Y-131147431D02*
X258552285Y-131147431D01*
X258552285Y-131147431D02*
X258695142Y-131195050D01*
X258695142Y-131195050D02*
X258766571Y-131290288D01*
X258766571Y-131290288D02*
X258766571Y-131480764D01*
X258766571Y-131480764D02*
X258695142Y-131576002D01*
X257838000Y-131147431D02*
X257766571Y-131242669D01*
X257766571Y-131242669D02*
X257766571Y-131480764D01*
X257766571Y-131480764D02*
X257838000Y-131576002D01*
X257838000Y-131576002D02*
X257980857Y-131623621D01*
X257980857Y-131623621D02*
X258123714Y-131623621D01*
X258123714Y-131623621D02*
X258266571Y-131576002D01*
X258266571Y-131576002D02*
X258338000Y-131480764D01*
X258338000Y-131480764D02*
X258338000Y-131242669D01*
X258338000Y-131242669D02*
X258409428Y-131147431D01*
X259266571Y-129909335D02*
X258052285Y-129909335D01*
X258052285Y-129909335D02*
X257909428Y-129861716D01*
X257909428Y-129861716D02*
X257838000Y-129814097D01*
X257838000Y-129814097D02*
X257766571Y-129718859D01*
X257766571Y-129718859D02*
X257766571Y-129528383D01*
X257766571Y-129528383D02*
X257838000Y-129433145D01*
X257838000Y-129433145D02*
X257909428Y-129385526D01*
X257909428Y-129385526D02*
X258052285Y-129337907D01*
X258052285Y-129337907D02*
X259266571Y-129337907D01*
X258766571Y-128861716D02*
X257766571Y-128861716D01*
X258623714Y-128861716D02*
X258695142Y-128814097D01*
X258695142Y-128814097D02*
X258766571Y-128718859D01*
X258766571Y-128718859D02*
X258766571Y-128576002D01*
X258766571Y-128576002D02*
X258695142Y-128480764D01*
X258695142Y-128480764D02*
X258552285Y-128433145D01*
X258552285Y-128433145D02*
X257766571Y-128433145D01*
X257766571Y-127956954D02*
X258766571Y-127956954D01*
X259266571Y-127956954D02*
X259195142Y-128004573D01*
X259195142Y-128004573D02*
X259123714Y-127956954D01*
X259123714Y-127956954D02*
X259195142Y-127909335D01*
X259195142Y-127909335D02*
X259266571Y-127956954D01*
X259266571Y-127956954D02*
X259123714Y-127956954D01*
X258766571Y-127576002D02*
X257766571Y-127337907D01*
X257766571Y-127337907D02*
X258766571Y-127099812D01*
X257909428Y-126718859D02*
X257838000Y-126671240D01*
X257838000Y-126671240D02*
X257766571Y-126718859D01*
X257766571Y-126718859D02*
X257838000Y-126766478D01*
X257838000Y-126766478D02*
X257909428Y-126718859D01*
X257909428Y-126718859D02*
X257766571Y-126718859D01*
X259266571Y-125195050D02*
X258195142Y-125195050D01*
X258195142Y-125195050D02*
X257980857Y-125242669D01*
X257980857Y-125242669D02*
X257838000Y-125337907D01*
X257838000Y-125337907D02*
X257766571Y-125480764D01*
X257766571Y-125480764D02*
X257766571Y-125576002D01*
X258766571Y-124290288D02*
X257766571Y-124290288D01*
X258766571Y-124718859D02*
X257980857Y-124718859D01*
X257980857Y-124718859D02*
X257838000Y-124671240D01*
X257838000Y-124671240D02*
X257766571Y-124576002D01*
X257766571Y-124576002D02*
X257766571Y-124433145D01*
X257766571Y-124433145D02*
X257838000Y-124337907D01*
X257838000Y-124337907D02*
X257909428Y-124290288D01*
X258766571Y-123814097D02*
X257766571Y-123814097D01*
X258623714Y-123814097D02*
X258695142Y-123766478D01*
X258695142Y-123766478D02*
X258766571Y-123671240D01*
X258766571Y-123671240D02*
X258766571Y-123528383D01*
X258766571Y-123528383D02*
X258695142Y-123433145D01*
X258695142Y-123433145D02*
X258552285Y-123385526D01*
X258552285Y-123385526D02*
X257766571Y-123385526D01*
X257909428Y-122909335D02*
X257838000Y-122861716D01*
X257838000Y-122861716D02*
X257766571Y-122909335D01*
X257766571Y-122909335D02*
X257838000Y-122956954D01*
X257838000Y-122956954D02*
X257909428Y-122909335D01*
X257909428Y-122909335D02*
X257766571Y-122909335D01*
X259123714Y-121718859D02*
X259195142Y-121671240D01*
X259195142Y-121671240D02*
X259266571Y-121576002D01*
X259266571Y-121576002D02*
X259266571Y-121337907D01*
X259266571Y-121337907D02*
X259195142Y-121242669D01*
X259195142Y-121242669D02*
X259123714Y-121195050D01*
X259123714Y-121195050D02*
X258980857Y-121147431D01*
X258980857Y-121147431D02*
X258838000Y-121147431D01*
X258838000Y-121147431D02*
X258623714Y-121195050D01*
X258623714Y-121195050D02*
X257766571Y-121766478D01*
X257766571Y-121766478D02*
X257766571Y-121147431D01*
X259266571Y-120528383D02*
X259266571Y-120433145D01*
X259266571Y-120433145D02*
X259195142Y-120337907D01*
X259195142Y-120337907D02*
X259123714Y-120290288D01*
X259123714Y-120290288D02*
X258980857Y-120242669D01*
X258980857Y-120242669D02*
X258695142Y-120195050D01*
X258695142Y-120195050D02*
X258338000Y-120195050D01*
X258338000Y-120195050D02*
X258052285Y-120242669D01*
X258052285Y-120242669D02*
X257909428Y-120290288D01*
X257909428Y-120290288D02*
X257838000Y-120337907D01*
X257838000Y-120337907D02*
X257766571Y-120433145D01*
X257766571Y-120433145D02*
X257766571Y-120528383D01*
X257766571Y-120528383D02*
X257838000Y-120623621D01*
X257838000Y-120623621D02*
X257909428Y-120671240D01*
X257909428Y-120671240D02*
X258052285Y-120718859D01*
X258052285Y-120718859D02*
X258338000Y-120766478D01*
X258338000Y-120766478D02*
X258695142Y-120766478D01*
X258695142Y-120766478D02*
X258980857Y-120718859D01*
X258980857Y-120718859D02*
X259123714Y-120671240D01*
X259123714Y-120671240D02*
X259195142Y-120623621D01*
X259195142Y-120623621D02*
X259266571Y-120528383D01*
X259123714Y-119814097D02*
X259195142Y-119766478D01*
X259195142Y-119766478D02*
X259266571Y-119671240D01*
X259266571Y-119671240D02*
X259266571Y-119433145D01*
X259266571Y-119433145D02*
X259195142Y-119337907D01*
X259195142Y-119337907D02*
X259123714Y-119290288D01*
X259123714Y-119290288D02*
X258980857Y-119242669D01*
X258980857Y-119242669D02*
X258838000Y-119242669D01*
X258838000Y-119242669D02*
X258623714Y-119290288D01*
X258623714Y-119290288D02*
X257766571Y-119861716D01*
X257766571Y-119861716D02*
X257766571Y-119242669D01*
X258766571Y-118385526D02*
X257766571Y-118385526D01*
X259338000Y-118623621D02*
X258266571Y-118861716D01*
X258266571Y-118861716D02*
X258266571Y-118242669D01*
D11*
%TO.C,J15*%
X205966000Y-147050000D02*
X205966000Y-103750000D01*
X205966000Y-147050000D02*
X211166000Y-147050000D01*
X206026000Y-101210000D02*
X207356000Y-101210000D01*
X206026000Y-103810000D02*
X208626000Y-103810000D01*
X206086000Y-101210000D02*
X206086000Y-102540000D01*
X208506000Y-101210000D02*
X211106000Y-101210000D01*
X208566000Y-101210000D02*
X208566000Y-103810000D01*
X211166000Y-147050000D02*
X211166000Y-101270000D01*
%TO.C,J10*%
X185646000Y-149470000D02*
X186976000Y-149470000D01*
X185646000Y-150800000D02*
X185646000Y-149470000D01*
X188246000Y-152130000D02*
X188246000Y-149470000D01*
X206086000Y-149470000D02*
X188246000Y-149470000D01*
X206086000Y-152130000D02*
X188246000Y-152130000D01*
X206086000Y-152130000D02*
X206086000Y-149470000D01*
%TO.C,J6*%
X139926000Y-149470000D02*
X141256000Y-149470000D01*
X139926000Y-150800000D02*
X139926000Y-149470000D01*
X142526000Y-152130000D02*
X142526000Y-149470000D01*
X160366000Y-149470000D02*
X142526000Y-149470000D01*
X160366000Y-152130000D02*
X142526000Y-152130000D01*
X160366000Y-152130000D02*
X160366000Y-149470000D01*
%TO.C,J5*%
X130782000Y-101210000D02*
X130782000Y-103870000D01*
X130782000Y-101210000D02*
X153702000Y-101210000D01*
X130782000Y-103870000D02*
X153702000Y-103870000D01*
X153702000Y-101210000D02*
X153702000Y-103870000D01*
X156302000Y-102540000D02*
X156302000Y-103870000D01*
X156302000Y-103870000D02*
X154972000Y-103870000D01*
%TO.C,J7*%
X162786000Y-149470000D02*
X164116000Y-149470000D01*
X162786000Y-150800000D02*
X162786000Y-149470000D01*
X165386000Y-152130000D02*
X165386000Y-149470000D01*
X183226000Y-149470000D02*
X165386000Y-149470000D01*
X183226000Y-152130000D02*
X165386000Y-152130000D01*
X183226000Y-152130000D02*
X183226000Y-149470000D01*
%TO.C,J13*%
X180566000Y-101210000D02*
X181896000Y-101210000D01*
X180566000Y-102540000D02*
X180566000Y-101210000D01*
X183166000Y-103870000D02*
X183166000Y-101210000D01*
X201006000Y-101210000D02*
X183166000Y-101210000D01*
X201006000Y-103870000D02*
X183166000Y-103870000D01*
X201006000Y-103870000D02*
X201006000Y-101210000D01*
%TO.C,J8*%
X157706000Y-101210000D02*
X157706000Y-103870000D01*
X157706000Y-101210000D02*
X175546000Y-101210000D01*
X157706000Y-103870000D02*
X175546000Y-103870000D01*
X175546000Y-101210000D02*
X175546000Y-103870000D01*
X178146000Y-102540000D02*
X178146000Y-103870000D01*
X178146000Y-103870000D02*
X176816000Y-103870000D01*
%TD*%
M02*
