%TF.GenerationSoftware,KiCad,Pcbnew,8.0.1*%
%TF.CreationDate,2024-06-20T14:59:11+09:00*%
%TF.ProjectId,CoolingBoxWireOrganizer,436f6f6c-696e-4674-926f-78576972654f,rev?*%
%TF.SameCoordinates,Original*%
%TF.FileFunction,Soldermask,Top*%
%TF.FilePolarity,Negative*%
%FSLAX46Y46*%
G04 Gerber Fmt 4.6, Leading zero omitted, Abs format (unit mm)*
G04 Created by KiCad (PCBNEW 8.0.1) date 2024-06-20 14:59:11*
%MOMM*%
%LPD*%
G01*
G04 APERTURE LIST*
G04 Aperture macros list*
%AMRoundRect*
0 Rectangle with rounded corners*
0 $1 Rounding radius*
0 $2 $3 $4 $5 $6 $7 $8 $9 X,Y pos of 4 corners*
0 Add a 4 corners polygon primitive as box body*
4,1,4,$2,$3,$4,$5,$6,$7,$8,$9,$2,$3,0*
0 Add four circle primitives for the rounded corners*
1,1,$1+$1,$2,$3*
1,1,$1+$1,$4,$5*
1,1,$1+$1,$6,$7*
1,1,$1+$1,$8,$9*
0 Add four rect primitives between the rounded corners*
20,1,$1+$1,$2,$3,$4,$5,0*
20,1,$1+$1,$4,$5,$6,$7,0*
20,1,$1+$1,$6,$7,$8,$9,0*
20,1,$1+$1,$8,$9,$2,$3,0*%
G04 Aperture macros list end*
%ADD10RoundRect,0.250001X1.099999X1.399999X-1.099999X1.399999X-1.099999X-1.399999X1.099999X-1.399999X0*%
%ADD11O,2.700000X3.300000*%
%ADD12RoundRect,0.250001X-1.099999X-1.399999X1.099999X-1.399999X1.099999X1.399999X-1.099999X1.399999X0*%
%ADD13C,1.700000*%
%ADD14R,1.700000X1.700000*%
%ADD15O,1.700000X1.700000*%
G04 APERTURE END LIST*
D10*
%TO.C,J18*%
X200450000Y-118040000D03*
D11*
X196250000Y-118040000D03*
X200450000Y-112540000D03*
X196250000Y-112540000D03*
%TD*%
D12*
%TO.C,J17*%
X184450000Y-135300000D03*
D11*
X188650000Y-135300000D03*
X184450000Y-140800000D03*
X188650000Y-140800000D03*
%TD*%
D12*
%TO.C,J11*%
X155712000Y-135300000D03*
D11*
X159912000Y-135300000D03*
X155712000Y-140800000D03*
X159912000Y-140800000D03*
%TD*%
D10*
%TO.C,J14*%
X171712000Y-118040000D03*
D11*
X167512000Y-118040000D03*
X171712000Y-112540000D03*
X167512000Y-112540000D03*
%TD*%
D10*
%TO.C,J12*%
X159912000Y-118040000D03*
D11*
X155712000Y-118040000D03*
X159912000Y-112540000D03*
X155712000Y-112540000D03*
%TD*%
D12*
%TO.C,J2*%
X196250000Y-135300000D03*
D11*
X200450000Y-135300000D03*
X196250000Y-140800000D03*
X200450000Y-140800000D03*
%TD*%
D10*
%TO.C,J9*%
X148112000Y-118040000D03*
D11*
X143912000Y-118040000D03*
X148112000Y-112540000D03*
X143912000Y-112540000D03*
%TD*%
D10*
%TO.C,J1*%
X136312000Y-118040000D03*
D11*
X132112000Y-118040000D03*
X136312000Y-112540000D03*
X132112000Y-112540000D03*
%TD*%
D12*
%TO.C,J16*%
X167512000Y-135300000D03*
D11*
X167512000Y-140800000D03*
%TD*%
D12*
%TO.C,J4*%
X139712000Y-135300000D03*
D11*
X143912000Y-135300000D03*
X148112000Y-135300000D03*
X139712000Y-140800000D03*
X143912000Y-140800000D03*
X148112000Y-140800000D03*
%TD*%
D12*
%TO.C,J3*%
X132112000Y-135300000D03*
D11*
X132112000Y-140800000D03*
%TD*%
D10*
%TO.C,J19*%
X188650000Y-118040000D03*
D11*
X184450000Y-118040000D03*
X188650000Y-112540000D03*
X184450000Y-112540000D03*
%TD*%
D13*
%TO.C,J15*%
X209836000Y-102540000D03*
D14*
X207296000Y-102540000D03*
D15*
X209836000Y-105080000D03*
X207296000Y-105080000D03*
X209836000Y-107620000D03*
X207296000Y-107620000D03*
X209836000Y-110160000D03*
X207296000Y-110160000D03*
X209836000Y-112700000D03*
X207296000Y-112700000D03*
X209836000Y-115240000D03*
X207296000Y-115240000D03*
X209836000Y-117780000D03*
X207296000Y-117780000D03*
X209836000Y-120320000D03*
X207296000Y-120320000D03*
X209836000Y-122860000D03*
X207296000Y-122860000D03*
X209836000Y-125400000D03*
X207296000Y-125400000D03*
X209836000Y-127940000D03*
X207296000Y-127940000D03*
X209836000Y-130480000D03*
X207296000Y-130480000D03*
X209836000Y-133020000D03*
X207296000Y-133020000D03*
X209836000Y-135560000D03*
X207296000Y-135560000D03*
X209836000Y-138100000D03*
X207296000Y-138100000D03*
X209836000Y-140640000D03*
X207296000Y-140640000D03*
X209836000Y-143180000D03*
X207296000Y-143180000D03*
X209836000Y-145720000D03*
X207296000Y-145720000D03*
%TD*%
D14*
%TO.C,J10*%
X186976000Y-150800000D03*
D15*
X189516000Y-150800000D03*
X192056000Y-150800000D03*
X194596000Y-150800000D03*
X197136000Y-150800000D03*
X199676000Y-150800000D03*
X202216000Y-150800000D03*
X204756000Y-150800000D03*
%TD*%
D14*
%TO.C,J6*%
X141256000Y-150800000D03*
D15*
X143796000Y-150800000D03*
X146336000Y-150800000D03*
X148876000Y-150800000D03*
X151416000Y-150800000D03*
X153956000Y-150800000D03*
X156496000Y-150800000D03*
X159036000Y-150800000D03*
%TD*%
D14*
%TO.C,J5*%
X154972000Y-102540000D03*
D15*
X152432000Y-102540000D03*
X149892000Y-102540000D03*
X147352000Y-102540000D03*
X144812000Y-102540000D03*
X142272000Y-102540000D03*
X139732000Y-102540000D03*
X137192000Y-102540000D03*
X134652000Y-102540000D03*
X132112000Y-102540000D03*
%TD*%
D14*
%TO.C,J7*%
X164116000Y-150800000D03*
D15*
X166656000Y-150800000D03*
X169196000Y-150800000D03*
X171736000Y-150800000D03*
X174276000Y-150800000D03*
X176816000Y-150800000D03*
X179356000Y-150800000D03*
X181896000Y-150800000D03*
%TD*%
D14*
%TO.C,J13*%
X181896000Y-102540000D03*
D15*
X184436000Y-102540000D03*
X186976000Y-102540000D03*
X189516000Y-102540000D03*
X192056000Y-102540000D03*
X194596000Y-102540000D03*
X197136000Y-102540000D03*
X199676000Y-102540000D03*
%TD*%
D14*
%TO.C,J8*%
X176816000Y-102540000D03*
D15*
X174276000Y-102540000D03*
X171736000Y-102540000D03*
X169196000Y-102540000D03*
X166656000Y-102540000D03*
X164116000Y-102540000D03*
X161576000Y-102540000D03*
X159036000Y-102540000D03*
%TD*%
M02*
